<svg width="440" height="336" viewBox="0 0 440 336" fill="none" xmlns="http://www.w3.org/2000/svg">
<path fill-rule="evenodd" clip-rule="evenodd" d="M280.421 359.934L270.34 519L200.708 375.631C184.446 342.148 159.084 315.862 127.299 303.072C96.3197 290.606 53.9665 288.823 -1.3666 313.858L-36 237.306C23.0313 210.597 77.9936 204.442 126.446 215.157C103.062 193.778 69.7202 173.321 20.1126 154.608L49.7647 75.9922C124.131 104.044 174.699 138.637 209.553 180.873C210.096 178.224 210.67 175.577 211.277 172.934C225.654 110.41 258.074 53.721 328.555 1L378.879 68.2831C327.864 106.444 306.081 143.426 295.365 182.941C295.902 182.596 296.441 182.254 296.982 181.913C360.448 141.965 446.746 134.524 548 173.38L517.899 251.825C435.255 220.111 377.79 230.33 341.737 253.023C304.716 276.326 283.136 317.095 280.421 359.934Z" stroke="white" stroke-opacity="0.4"/>
</svg>
