<svg width="440" height="335" viewBox="0 0 440 335" fill="none" xmlns="http://www.w3.org/2000/svg">
<path fill-rule="evenodd" clip-rule="evenodd" d="M280.421 358.934L270.34 518L200.708 374.631C184.446 341.148 159.084 314.862 127.299 302.072C96.3197 289.606 53.9665 287.823 -1.3666 312.858L-36 236.306C23.0313 209.597 77.9936 203.442 126.446 214.157C103.062 192.778 69.7202 172.321 20.1126 153.608L49.7647 74.9922C124.131 103.044 174.699 137.637 209.553 179.873C210.096 177.224 210.67 174.577 211.277 171.934C225.654 109.41 258.074 52.721 328.555 0L378.879 67.2831C327.864 105.444 306.081 142.426 295.365 181.941C295.902 181.596 296.441 181.254 296.982 180.913C360.448 140.965 446.746 133.524 548 172.38L517.899 250.825C435.255 219.111 377.79 229.33 341.737 252.023C304.716 275.326 283.136 316.095 280.421 358.934Z" fill="#F2C94C"/>
</svg>
