<svg width="57" height="56" viewBox="0 0 57 56" fill="none" xmlns="http://www.w3.org/2000/svg">
<path d="M0.890625 28C0.890625 14.8007 0.890625 8.20101 4.99113 4.1005C9.09163 0 15.6913 0 28.8906 0C42.0899 0 48.6896 0 52.7901 4.1005C56.8906 8.20101 56.8906 14.8007 56.8906 28C56.8906 41.1993 56.8906 47.799 52.7901 51.8995C48.6896 56 42.0899 56 28.8906 56C15.6913 56 9.09163 56 4.99113 51.8995C0.890625 47.799 0.890625 41.1993 0.890625 28Z" fill="#0082FF"/>
<path d="M39.3353 39.3231C34.0171 46.9405 28.0543 47.9984 25.8384 47.9984C19.4371 47.9984 15.711 40.3026 15.5645 34.4565C13.3487 34.4565 13.0747 26.0713 15.5645 25.358C12.9458 9.9117 32.4862 -1.09132 39.7382 12.6623C47.9976 13.5087 45.1773 25.9927 42.9614 30.4362C46.396 30.4362 42.8085 41.512 39.3353 39.3231Z" fill="white"/>
</svg>
