<svg width="493" height="319" viewBox="0 0 493 319" fill="none" xmlns="http://www.w3.org/2000/svg">
<path fill-rule="evenodd" clip-rule="evenodd" d="M428.616 171.829C412.295 224.799 412.029 287.317 412.029 322.962V483.976L327.758 346.776C279.677 268.496 239.368 221.624 208.874 196.501C188.102 179.388 176.229 175.62 171.424 174.746C170.328 177.424 169.003 182.673 168.927 192.253C168.76 213.288 176.012 244.33 195.168 279.102C198.568 285.274 201.473 290.746 203.634 295.272C204.697 297.5 205.925 300.213 206.989 303.081C207.002 303.118 207.017 303.158 207.033 303.2C207.698 304.989 210.109 311.471 210.408 319.566C210.552 323.497 210.544 334.288 203.643 345.565C194.814 359.993 180.212 366.661 167.19 367.442C156.944 368.056 149.213 365.077 146.343 363.88C142.747 362.382 139.996 360.72 138.432 359.719C133.269 356.41 128.563 352.048 126.435 350.077L126.347 349.996C123.099 346.986 119.696 343.702 116.113 340.245C105.95 330.436 94.3355 319.228 80.6692 308.902C71.8017 302.202 64.1118 297.544 57.9886 294.971C56.856 294.495 55.8894 294.137 55.0784 293.868C52.5746 298.251 48.6447 308.196 45.7738 329.141L-44.3832 316.783C-37.1017 263.66 -16.1784 213.917 34.9401 203.672C50.649 200.524 65.5232 202.269 78.3645 205.86C78.0381 201.005 77.8923 196.225 77.9296 191.53C78.2259 154.241 91.5614 106.411 137.765 88.9512C181.491 72.4274 227.91 94.2779 266.738 126.267C286.8 142.795 308.062 164.532 330.425 191.952C333.24 176.292 336.898 160.459 341.651 145.032C352.217 110.74 369.225 74.8386 397.609 47.1105C427.149 18.2535 466.561 0.730469 515.666 0.730469V91.7305C490.153 91.7305 473.614 100.077 461.199 112.205C447.629 125.462 436.679 145.66 428.616 171.829ZM172.884 172.3C172.9 172.32 172.785 172.479 172.49 172.718C172.719 172.4 172.867 172.28 172.884 172.3Z" fill="#BFA3FD"/>
</svg>
