<svg width="493" height="319" viewBox="0 0 493 319" fill="none" xmlns="http://www.w3.org/2000/svg">
<path fill-rule="evenodd" clip-rule="evenodd" d="M428.958 172.012C412.638 224.954 412.372 287.441 412.372 323.068V484L328.108 346.87C280.032 268.63 239.726 221.781 209.235 196.671C188.465 179.566 176.593 175.8 171.789 174.928C170.692 177.604 169.367 182.85 169.291 192.425C169.124 213.449 176.376 244.476 195.53 279.23C198.93 285.399 201.835 290.868 203.995 295.392C205.058 297.619 206.286 300.331 207.35 303.197C207.363 303.234 207.378 303.274 207.394 303.316C208.059 305.104 210.47 311.583 210.768 319.674C210.913 323.602 210.905 334.388 204.005 345.659C195.177 360.08 180.575 366.745 167.555 367.525C157.31 368.14 149.579 365.161 146.709 363.965C143.113 362.467 140.362 360.807 138.799 359.806C133.637 356.499 128.931 352.14 126.803 350.169L126.716 350.088C123.467 347.08 120.065 343.798 116.482 340.342C106.319 330.538 94.7064 319.336 81.0414 309.015C73.2623 303.14 64.8093 297.093 55.4528 293.988C52.9492 298.37 49.0197 308.309 46.1491 329.244L-44 316.893C-36.7192 263.796 -15.7977 214.078 35.3163 203.839C51.0238 200.692 65.8967 202.436 78.7368 206.025C78.4104 201.173 78.2646 196.395 78.3019 191.702C78.5983 154.432 91.9325 106.627 138.132 89.176C181.854 72.6606 228.269 94.5 267.093 126.473C287.153 142.992 308.414 164.718 330.775 192.124C333.59 176.473 337.247 160.647 342 145.229C352.566 110.954 369.572 75.0705 397.953 47.3564C427.49 18.5142 466.899 1 516 1V91.9538C490.489 91.9538 473.951 100.296 461.538 112.418C447.969 125.668 437.02 145.856 428.958 172.012Z" stroke="white" stroke-opacity="0.4"/>
</svg>
