<svg width="626" height="496" viewBox="0 0 626 496" fill="none" xmlns="http://www.w3.org/2000/svg">
<g filter="url(#filter0_ii_897_11466)">
<circle cx="458" cy="247" r="168" fill="#FBFCFE" fill-opacity="0.19"/>
</g>
<g filter="url(#filter1_dii_897_11466)">
<path fill-rule="evenodd" clip-rule="evenodd" d="M248 77C245.203 77 242.421 77.0676 239.657 77.2012C238.553 77.2545 237.702 78.1922 237.756 79.2954C237.809 80.3987 238.746 81.2499 239.85 81.1965C242.55 81.066 245.267 81 248 81C250.733 81 253.45 81.066 256.15 81.1965C257.254 81.2499 258.191 80.3987 258.244 79.2954C258.298 78.1922 257.447 77.2545 256.343 77.2012C253.579 77.0676 250.797 77 248 77ZM272.951 78.8184C271.858 78.6576 270.842 79.4132 270.681 80.506C270.52 81.5988 271.276 82.615 272.369 82.7758C277.786 83.5726 283.118 84.631 288.351 85.9378C289.422 86.2054 290.508 85.5536 290.776 84.482C291.043 83.4103 290.391 82.3246 289.32 82.057C283.96 80.7185 278.499 79.6344 272.951 78.8184ZM223.631 82.7758C224.724 82.615 225.48 81.5988 225.319 80.506C225.158 79.4132 224.142 78.6576 223.049 78.8184C217.501 79.6344 212.04 80.7185 206.68 82.057C205.609 82.3246 204.957 83.4103 205.224 84.482C205.492 85.5536 206.578 86.2054 207.649 85.9378C212.882 84.631 218.214 83.5726 223.631 82.7758ZM305.289 86.8952C304.249 86.523 303.104 87.0644 302.732 88.1044C302.36 89.1444 302.901 90.2892 303.941 90.6613C309.079 92.4999 314.1 94.5846 318.989 96.9013C319.987 97.3742 321.18 96.9484 321.653 95.9502C322.126 94.952 321.7 93.7594 320.702 93.2865C315.694 90.9137 310.551 88.7785 305.289 86.8952ZM192.059 90.6613C193.099 90.2892 193.64 89.1444 193.268 88.1044C192.896 87.0644 191.751 86.5231 190.711 86.8952C185.449 88.7785 180.306 90.9137 175.298 93.2865C174.3 93.7594 173.874 94.952 174.347 95.9502C174.82 96.9484 176.013 97.3742 177.011 96.9013C181.9 94.5846 186.921 92.4999 192.059 90.6613ZM335.41 101.164C334.463 100.595 333.235 100.902 332.666 101.849C332.097 102.796 332.404 104.024 333.35 104.593C338.017 107.396 342.535 110.422 346.889 113.657C347.776 114.315 349.029 114.131 349.687 113.244C350.346 112.357 350.161 111.104 349.274 110.446C344.816 107.134 340.189 104.035 335.41 101.164ZM162.649 104.593C163.596 104.024 163.903 102.796 163.334 101.849C162.765 100.902 161.537 100.595 160.59 101.164C155.811 104.035 151.184 107.134 146.726 110.446C145.839 111.104 145.654 112.357 146.313 113.244C146.971 114.131 148.224 114.315 149.111 113.657C153.465 110.422 157.983 107.396 162.649 104.593ZM136.522 124C137.34 123.258 137.402 121.993 136.66 121.175C135.917 120.357 134.653 120.295 133.834 121.037C129.713 124.775 125.775 128.713 122.037 132.834C121.295 133.653 121.357 134.917 122.175 135.66C122.993 136.402 124.258 136.34 125 135.522C128.651 131.496 132.496 127.651 136.522 124ZM114.657 148.111C115.315 147.224 115.131 145.971 114.244 145.313C113.357 144.654 112.104 144.839 111.446 145.726C108.134 150.184 105.035 154.811 102.164 159.59C101.595 160.537 101.902 161.765 102.849 162.334C103.796 162.903 105.024 162.596 105.593 161.65C108.396 156.983 111.422 152.465 114.657 148.111ZM97.9013 176.011C98.3742 175.013 97.9484 173.82 96.9502 173.347C95.952 172.874 94.7594 173.3 94.2865 174.298C91.9137 179.306 89.7785 184.449 87.8952 189.711C87.523 190.751 88.0644 191.896 89.1044 192.268C90.1444 192.64 91.2892 192.099 91.6613 191.059C93.4999 185.921 95.5846 180.9 97.9013 176.011ZM86.9378 206.649C87.2054 205.578 86.5536 204.492 85.482 204.224C84.4103 203.957 83.3246 204.609 83.057 205.68C81.7185 211.04 80.6344 216.501 79.8184 222.049C79.6576 223.142 80.4132 224.158 81.506 224.319C82.5988 224.48 83.615 223.724 83.7758 222.631C84.5726 217.214 85.631 211.882 86.9378 206.649ZM82.1965 238.85C82.2499 237.746 81.3987 236.809 80.2954 236.756C79.1922 236.702 78.2545 237.553 78.2012 238.657C78.0676 241.421 78 244.203 78 247C78 249.797 78.0676 252.579 78.2012 255.343C78.2545 256.447 79.1922 257.298 80.2954 257.244C81.3987 257.191 82.2499 256.254 82.1965 255.15C82.066 252.45 82 249.733 82 247C82 244.267 82.066 241.55 82.1965 238.85ZM83.7758 271.369C83.615 270.276 82.5988 269.52 81.506 269.681C80.4132 269.842 79.6576 270.858 79.8184 271.951C80.6344 277.499 81.7185 282.96 83.057 288.32C83.3246 289.391 84.4103 290.043 85.482 289.776C86.5536 289.508 87.2054 288.422 86.9378 287.351C85.631 282.118 84.5726 276.786 83.7758 271.369ZM91.6613 302.941C91.2892 301.901 90.1444 301.36 89.1044 301.732C88.0644 302.104 87.5231 303.249 87.8952 304.289C89.7785 309.551 91.9137 314.694 94.2865 319.702C94.7594 320.7 95.952 321.126 96.9502 320.653C97.9484 320.18 98.3742 318.987 97.9013 317.989C95.5846 313.1 93.4999 308.079 91.6613 302.941ZM105.593 332.351C105.024 331.404 103.796 331.097 102.849 331.666C101.902 332.235 101.595 333.463 102.164 334.41C105.035 339.189 108.134 343.816 111.446 348.274C112.104 349.161 113.357 349.346 114.244 348.687C115.131 348.029 115.315 346.776 114.657 345.889C111.422 341.535 108.396 337.017 105.593 332.351ZM125 358.478C124.258 357.66 122.993 357.598 122.175 358.34C121.357 359.082 121.295 360.347 122.037 361.166C125.775 365.287 129.713 369.225 133.834 372.963C134.653 373.705 135.917 373.643 136.66 372.825C137.402 372.007 137.34 370.742 136.522 370C132.496 366.349 128.651 362.504 125 358.478ZM149.111 380.343C148.224 379.685 146.971 379.869 146.313 380.756C145.654 381.643 145.839 382.896 146.726 383.554C151.184 386.866 155.811 389.965 160.59 392.836C161.537 393.405 162.765 393.098 163.334 392.151C163.903 391.204 163.596 389.976 162.65 389.407C157.983 386.604 153.465 383.578 149.111 380.343ZM349.274 383.554C350.161 382.896 350.346 381.643 349.687 380.756C349.029 379.869 347.776 379.685 346.889 380.343C342.535 383.578 338.017 386.604 333.351 389.407C332.404 389.976 332.097 391.204 332.666 392.151C333.235 393.098 334.463 393.405 335.41 392.836C340.189 389.965 344.816 386.866 349.274 383.554ZM177.011 397.099C176.013 396.626 174.82 397.052 174.347 398.05C173.874 399.048 174.3 400.241 175.298 400.714C180.306 403.086 185.449 405.222 190.711 407.105C191.751 407.477 192.896 406.936 193.268 405.896C193.64 404.856 193.099 403.711 192.059 403.339C186.921 401.5 181.9 399.415 177.011 397.099ZM320.702 400.714C321.7 400.241 322.126 399.048 321.653 398.05C321.18 397.052 319.987 396.626 318.989 397.099C314.1 399.415 309.079 401.5 303.941 403.339C302.901 403.711 302.36 404.856 302.732 405.896C303.104 406.936 304.249 407.477 305.289 407.105C310.551 405.222 315.694 403.086 320.702 400.714ZM207.649 408.062C206.578 407.795 205.492 408.446 205.224 409.518C204.957 410.59 205.609 411.675 206.68 411.943C212.04 413.282 217.501 414.366 223.049 415.182C224.142 415.342 225.158 414.587 225.319 413.494C225.48 412.401 224.724 411.385 223.631 411.224C218.214 410.427 212.882 409.369 207.649 408.062ZM289.32 411.943C290.391 411.675 291.043 410.59 290.776 409.518C290.508 408.446 289.422 407.795 288.351 408.062C283.118 409.369 277.786 410.427 272.369 411.224C271.276 411.385 270.52 412.401 270.681 413.494C270.842 414.587 271.858 415.342 272.951 415.182C278.499 414.366 283.96 413.282 289.32 411.943ZM239.85 412.803C238.746 412.75 237.809 413.601 237.756 414.705C237.702 415.808 238.553 416.745 239.657 416.799C242.421 416.932 245.203 417 248 417C250.797 417 253.579 416.932 256.343 416.799C257.447 416.745 258.298 415.808 258.244 414.705C258.191 413.601 257.254 412.75 256.15 412.803C253.45 412.934 250.733 413 248 413C245.267 413 242.55 412.934 239.85 412.803Z" fill="white"/>
</g>
<path opacity="0.34" fill-rule="evenodd" clip-rule="evenodd" d="M292.891 215.803C290.502 214.422 287.693 213.462 284.428 213.013C277.972 201.505 268.86 195 258.853 192.686C248.633 190.323 237.688 192.376 227.955 197.562C208.888 207.723 194.003 230.183 197.857 256.589C195.701 257.925 194.335 260.43 193.491 262.966C192.405 266.233 191.944 270.238 192.005 274.084C192.067 277.924 192.651 281.789 193.785 284.767C194.35 286.252 195.096 287.633 196.081 288.673C196.659 289.283 197.346 289.801 198.135 290.131C198.686 299.99 202.081 311.087 208.006 319.921C214.252 329.235 223.5 336.278 235.388 336.278C243.449 336.278 263.988 332.57 282.43 307.486C283.826 307.98 285.253 308.056 286.656 307.752C288.575 307.337 290.301 306.245 291.792 304.856C294.021 302.78 295.949 299.833 297.453 296.636C296.806 294.542 296.199 292.429 295.633 290.301C295.453 290.878 295.256 291.456 295.044 292.033C293.554 296.086 291.403 299.753 289.066 301.929C287.906 303.009 286.803 303.628 285.809 303.843C284.873 304.045 283.903 303.924 282.838 303.264L281.241 302.275L280.154 303.806C262.281 328.97 242.418 332.278 235.388 332.278C225.271 332.278 217.113 326.32 211.328 317.693C205.535 309.055 202.313 297.989 202.071 288.469L202.021 286.52H200.071C199.807 286.52 199.453 286.417 198.985 285.923C198.494 285.404 197.984 284.553 197.523 283.344C196.606 280.934 196.061 277.564 196.005 274.02C195.948 270.482 196.381 266.951 197.287 264.228C198.236 261.374 199.484 260.019 200.613 259.701L202.348 259.213L202.042 257.436C197.708 232.308 211.703 210.755 229.837 201.092C238.888 196.268 248.847 194.478 257.952 196.583C267.006 198.677 275.423 204.668 281.407 215.823L281.91 216.761L282.969 216.867C286.78 217.251 289.785 218.388 292.146 220.075C292.376 218.645 292.625 217.221 292.891 215.803ZM292.237 274.482L290.992 276.935H292.659C292.512 276.12 292.372 275.302 292.237 274.482Z" fill="white"/>
<path d="M491.785 304.964C473.503 330.704 453.005 334.278 445.388 334.278C423.383 334.278 410.575 308.274 410.071 288.52C402.454 288.52 401.512 260.186 410.071 257.776C401.069 205.583 468.24 168.404 493.169 214.877C521.561 217.737 511.867 259.921 504.249 274.935C516.056 274.935 503.724 312.361 491.785 304.964Z" stroke="white" stroke-width="4"/>
<path opacity="0.4" d="M484.139 295.818C469.949 315.858 454.038 318.641 448.126 318.641C431.046 318.641 421.103 298.395 420.713 283.015C414.8 283.015 414.069 260.955 420.713 259.078C413.725 218.442 465.864 189.495 485.214 225.678C507.253 227.905 499.727 260.748 493.815 272.438C502.979 272.438 493.407 301.577 484.139 295.818Z" stroke="white" stroke-width="4"/>
<path opacity="0.2" d="M477.293 287.392C466.819 302.139 455.076 304.187 450.712 304.187C438.105 304.187 430.767 289.288 430.478 277.971C426.114 277.971 425.575 261.738 430.478 260.357C425.321 230.455 463.804 209.154 478.087 235.78C494.353 237.418 488.799 261.586 484.435 270.188C491.199 270.188 484.134 291.63 477.293 287.392Z" stroke="white" stroke-width="4"/>
<defs>
<filter id="filter0_ii_897_11466" x="228.298" y="45" width="397.702" height="380.798" filterUnits="userSpaceOnUse" color-interpolation-filters="sRGB">
<feFlood flood-opacity="0" result="BackgroundImageFix"/>
<feBlend mode="normal" in="SourceGraphic" in2="BackgroundImageFix" result="shape"/>
<feColorMatrix in="SourceAlpha" type="matrix" values="0 0 0 0 0 0 0 0 0 0 0 0 0 0 0 0 0 0 127 0" result="hardAlpha"/>
<feOffset dy="10.7979"/>
<feGaussianBlur stdDeviation="70.1865"/>
<feComposite in2="hardAlpha" operator="arithmetic" k2="-1" k3="1"/>
<feColorMatrix type="matrix" values="0 0 0 0 0.803056 0 0 0 0 0.861076 0 0 0 0 0.983333 0 0 0 1 0"/>
<feBlend mode="normal" in2="shape" result="effect1_innerShadow_897_11466"/>
<feColorMatrix in="SourceAlpha" type="matrix" values="0 0 0 0 0 0 0 0 0 0 0 0 0 0 0 0 0 0 127 0" result="hardAlpha"/>
<feOffset dx="-61.7024" dy="-34"/>
<feGaussianBlur stdDeviation="34.7076"/>
<feComposite in2="hardAlpha" operator="arithmetic" k2="-1" k3="1"/>
<feColorMatrix type="matrix" values="0 0 0 0 0.558333 0 0 0 0 0.700479 0 0 0 0 1 0 0 0 0.2 0"/>
<feBlend mode="normal" in2="effect1_innerShadow_897_11466" result="effect2_innerShadow_897_11466"/>
</filter>
<filter id="filter1_dii_897_11466" x="0.585747" y="0.822583" width="426.911" height="494.829" filterUnits="userSpaceOnUse" color-interpolation-filters="sRGB">
<feFlood flood-opacity="0" result="BackgroundImageFix"/>
<feColorMatrix in="SourceAlpha" type="matrix" values="0 0 0 0 0 0 0 0 0 0 0 0 0 0 0 0 0 0 127 0" result="hardAlpha"/>
<feOffset dy="1.23684"/>
<feGaussianBlur stdDeviation="38.7071"/>
<feComposite in2="hardAlpha" operator="out"/>
<feColorMatrix type="matrix" values="0 0 0 0 0.303194 0 0 0 0 0.521352 0 0 0 0 0.983333 0 0 0 0.2 0"/>
<feBlend mode="normal" in2="BackgroundImageFix" result="effect1_dropShadow_897_11466"/>
<feBlend mode="normal" in="SourceGraphic" in2="effect1_dropShadow_897_11466" result="shape"/>
<feColorMatrix in="SourceAlpha" type="matrix" values="0 0 0 0 0 0 0 0 0 0 0 0 0 0 0 0 0 0 127 0" result="hardAlpha"/>
<feOffset dy="10.7979"/>
<feGaussianBlur stdDeviation="70.1865"/>
<feComposite in2="hardAlpha" operator="arithmetic" k2="-1" k3="1"/>
<feColorMatrix type="matrix" values="0 0 0 0 0.653698 0 0 0 0 0.753083 0 0 0 0 0.9625 0 0 0 1 0"/>
<feBlend mode="normal" in2="shape" result="effect2_innerShadow_897_11466"/>
<feColorMatrix in="SourceAlpha" type="matrix" values="0 0 0 0 0 0 0 0 0 0 0 0 0 0 0 0 0 0 127 0" result="hardAlpha"/>
<feOffset dx="-61.7024" dy="41.6491"/>
<feGaussianBlur stdDeviation="34.7076"/>
<feComposite in2="hardAlpha" operator="arithmetic" k2="-1" k3="1"/>
<feColorMatrix type="matrix" values="0 0 0 0 0.301961 0 0 0 0 0.521569 0 0 0 0 0.984314 0 0 0 0.7 0"/>
<feBlend mode="normal" in2="effect2_innerShadow_897_11466" result="effect3_innerShadow_897_11466"/>
</filter>
</defs>
</svg>
