<svg width="16" height="16" viewBox="0 0 16 16" fill="none" xmlns="http://www.w3.org/2000/svg">
<g clip-path="url(#clip0_4_6667)">
<rect width="16" height="16" rx="4" fill="#A8E0FD"/>
<path d="M26.9548 9.16869L15.0749 22.6487C14.7253 23.0454 14.5505 23.2438 14.3247 23.2438C14.0989 23.2438 13.9241 23.0454 13.5745 22.6487L1.69457 9.16869C1.42136 8.85869 1.28476 8.70368 1.28321 8.51718C1.28166 8.33068 1.41566 8.17343 1.68367 7.85892L6.72322 1.94496L6.72323 1.94495C6.8442 1.803 6.90468 1.73202 6.9845 1.68796C7.06431 1.64391 7.15661 1.63056 7.3412 1.60386L14.1816 0.614456L14.1816 0.614455C14.253 0.60412 14.2887 0.598953 14.3247 0.598953C14.3607 0.598953 14.3964 0.604121 14.4679 0.614456L21.3082 1.60386C21.4928 1.63056 21.5851 1.64391 21.6649 1.68796C21.7447 1.73202 21.8052 1.803 21.9262 1.94496L26.9657 7.85892C27.2338 8.17343 27.3678 8.33068 27.3662 8.51718C27.3647 8.70368 27.2281 8.85869 26.9548 9.16869Z" fill="#D172FD"/>
<path opacity="0.45" fill-rule="evenodd" clip-rule="evenodd" d="M16.0002 8.96484H1.47412L8.48825 16.8496L16.0143 8.97961L23.5404 16.8496L30.5545 8.96484H16.0284H16.0002Z" fill="#AC64CE"/>
<path opacity="0.45" fill-rule="evenodd" clip-rule="evenodd" d="M16.0143 8.95965L16.0285 8.9713V8.94799L24.9149 1.63245L16.0285 0.28457V0.280273L16.0143 0.282422L16.0002 0.280273V0.28457L7.11377 1.63245L16.0002 8.94799V8.9713L16.0143 8.95965Z" fill="#A8E0FD"/>
</g>
<defs>
<clipPath id="clip0_4_6667">
<rect width="16" height="16" rx="4" fill="white"/>
</clipPath>
</defs>
</svg>
