<svg width="18" height="18" viewBox="0 0 18 18" fill="none" xmlns="http://www.w3.org/2000/svg">
<path fill-rule="evenodd" clip-rule="evenodd" d="M8.99036 1.38281C7.23064 1.38281 5.89847 1.38281 4.86954 1.52115C3.83539 1.66019 3.09002 1.9409 2.51546 2.51546C1.9409 3.09002 1.66019 3.83539 1.52115 4.86954C1.38281 5.89847 1.38281 7.23064 1.38281 8.99036V9.0093C1.38281 10.769 1.38281 12.1012 1.52115 13.1301C1.66019 14.1643 1.9409 14.9096 2.51546 15.4842C3.09002 16.0588 3.83539 16.3395 4.86954 16.4785C5.89848 16.6168 7.23064 16.6168 8.99037 16.6168H9.00929C10.769 16.6168 12.1012 16.6168 13.1301 16.4785C14.1643 16.3395 14.9096 16.0588 15.4842 15.4842C16.0588 14.9096 16.3395 14.1643 16.4785 13.1301C16.6168 12.1012 16.6168 10.769 16.6168 9.00929V8.99037C16.6168 7.23065 16.6168 5.89848 16.4785 4.86954C16.3395 3.83539 16.0588 3.09002 15.4842 2.51546C14.9096 1.9409 14.1643 1.66019 13.1301 1.52115C12.1012 1.38281 10.769 1.38281 9.0093 1.38281H8.99036ZM2.68118 2.68118C3.20495 2.15742 3.89261 1.88897 4.90077 1.75343C5.9123 1.61743 7.22879 1.61718 8.99983 1.61718C10.7709 1.61718 12.0874 1.61743 13.0989 1.75343C13.6297 1.82479 14.0716 1.93299 14.4475 2.09589L8.64278 3.01734C8.2628 3.07766 7.86488 3.17123 7.61602 3.46464L2.82292 9.11559C2.79326 9.15057 2.76751 9.18868 2.74613 9.22925C2.54106 9.6184 2.90726 10.0335 3.20258 10.3682L8.50045 16.3823C6.97794 16.3812 5.81484 16.3691 4.90077 16.2462C3.89261 16.1107 3.20495 15.8422 2.68118 15.3185C2.15742 14.7947 1.88897 14.107 1.75343 13.0989C1.61743 12.0874 1.61718 10.7709 1.61718 8.99983C1.61718 7.22879 1.61743 5.9123 1.75343 4.90077C1.88897 3.89261 2.15742 3.20495 2.68118 2.68118ZM8.81289 16.3825C8.87464 16.3825 8.93695 16.3825 8.99983 16.3825C9.50303 16.3825 9.96954 16.3825 10.4028 16.3793L16.0543 10.2569C16.1669 10.1349 16.0803 9.93732 15.9143 9.93732H3.13537L8.81289 16.3825ZM10.7245 16.3763C11.6692 16.3651 12.4473 16.3338 13.0989 16.2462C14.107 16.1107 14.7947 15.8422 15.3185 15.3185C15.8422 14.7947 16.1107 14.107 16.2462 13.0989C16.3333 12.451 16.3648 11.6779 16.3761 10.7404C16.3782 10.5666 16.1651 10.4823 16.0472 10.6101L10.7245 16.3763ZM16.073 9.23321C16.1976 9.33322 16.3825 9.24461 16.3825 9.08485C16.3825 9.05663 16.3825 9.02829 16.3825 8.99983C16.3825 7.22879 16.3822 5.9123 16.2462 4.90077C16.1107 3.89261 15.8422 3.20495 15.3185 2.68118C15.2386 2.60134 15.155 2.52744 15.067 2.45903C14.8932 2.32398 14.6669 2.28593 14.4494 2.31917L8.57808 3.21616L16.073 9.23321ZM8.27473 3.27319C8.08914 3.34597 7.92413 3.46371 7.79475 3.61624L3.00166 9.26719C2.98304 9.28914 2.96689 9.31305 2.95347 9.33851C2.89633 9.44694 2.8928 9.57577 2.9439 9.68717L2.95114 9.70295H15.7424C15.9222 9.70295 16.0018 9.47662 15.8616 9.36403L8.27473 3.27319Z" fill="#D172FD"/>
<path d="M15.3185 15.3185C14.7947 15.8422 14.107 16.1107 13.0989 16.2462C12.4473 16.3338 11.6692 16.3651 10.7245 16.3763L16.0472 10.6101C16.1651 10.4823 16.3782 10.5666 16.3761 10.7404C16.3648 11.6779 16.3333 12.451 16.2462 13.0989C16.1107 14.107 15.8422 14.7947 15.3185 15.3185ZM15.3185 15.3185L15.4013 15.4013M4.90077 1.75343C3.89261 1.88897 3.20495 2.15742 2.68118 2.68118C2.15742 3.20495 1.88897 3.89261 1.75343 4.90077C1.61743 5.9123 1.61718 7.22879 1.61718 8.99983C1.61718 10.7709 1.61743 12.0874 1.75343 13.0989C1.88897 14.107 2.15742 14.7947 2.68118 15.3185C3.20495 15.8422 3.89261 16.1107 4.90077 16.2462C5.81484 16.3691 6.97794 16.3812 8.50045 16.3823L3.20258 10.3682C2.90726 10.0335 2.54106 9.6184 2.74613 9.22925C2.76751 9.18868 2.79326 9.15057 2.82292 9.11559L7.61602 3.46464C7.86488 3.17123 8.2628 3.07766 8.64278 3.01734L14.4475 2.09589C14.0716 1.93299 13.6297 1.82479 13.0989 1.75343C12.0874 1.61743 10.7709 1.61718 8.99983 1.61718C7.22879 1.61718 5.9123 1.61743 4.90077 1.75343ZM8.81289 16.3825C8.87464 16.3825 8.93695 16.3825 8.99983 16.3825C9.50303 16.3825 9.96954 16.3825 10.4028 16.3793L16.0543 10.2569C16.1669 10.1349 16.0803 9.93732 15.9143 9.93732H3.13537L8.81289 16.3825ZM16.3825 8.99983C16.3825 9.02829 16.3825 9.05663 16.3825 9.08485C16.3825 9.24461 16.1976 9.33322 16.073 9.23321L8.57808 3.21616L14.4494 2.31917C14.6669 2.28593 14.8932 2.32398 15.067 2.45903C15.155 2.52744 15.2386 2.60134 15.3185 2.68118C15.8422 3.20495 16.1107 3.89261 16.2462 4.90077C16.3822 5.9123 16.3825 7.22879 16.3825 8.99983ZM8.99036 1.38281C7.23064 1.38281 5.89847 1.38281 4.86954 1.52115C3.83539 1.66019 3.09002 1.9409 2.51546 2.51546C1.9409 3.09002 1.66019 3.83539 1.52115 4.86954C1.38281 5.89847 1.38281 7.23064 1.38281 8.99036V9.0093C1.38281 10.769 1.38281 12.1012 1.52115 13.1301C1.66019 14.1643 1.9409 14.9096 2.51546 15.4842C3.09002 16.0588 3.83539 16.3395 4.86954 16.4785C5.89848 16.6168 7.23064 16.6168 8.99037 16.6168H9.00929C10.769 16.6168 12.1012 16.6168 13.1301 16.4785C14.1643 16.3395 14.9096 16.0588 15.4842 15.4842C16.0588 14.9096 16.3395 14.1643 16.4785 13.1301C16.6168 12.1012 16.6168 10.769 16.6168 9.00929V8.99037C16.6168 7.23065 16.6168 5.89848 16.4785 4.86954C16.3395 3.83539 16.0588 3.09002 15.4842 2.51546C14.9096 1.9409 14.1643 1.66019 13.1301 1.52115C12.1012 1.38281 10.769 1.38281 9.0093 1.38281H8.99036ZM7.79475 3.61624C7.92413 3.46371 8.08914 3.34597 8.27473 3.27319L15.8616 9.36403C16.0018 9.47662 15.9222 9.70295 15.7424 9.70295H2.95114L2.9439 9.68717C2.8928 9.57577 2.89633 9.44694 2.95347 9.33851C2.96689 9.31305 2.98304 9.28914 3.00166 9.26719L7.79475 3.61624Z" stroke="#D172FD" stroke-width="0.952127"/>
</svg>
