<svg width="1311" height="779" viewBox="0 0 1311 779" fill="none" xmlns="http://www.w3.org/2000/svg">
<g clip-path="url(#clip0_1057_11860)">
<rect width="1311" height="779" fill="#292929"/>
<g opacity="0.67" filter="url(#filter0_f_1057_11860)">
<path d="M596.301 258.086C513.959 188.494 410.033 149.606 302.233 148.049C194.433 146.491 89.4273 182.36 5.10844 249.544C-79.2104 316.728 -137.626 411.069 -160.184 516.494C-182.743 621.919 -168.048 731.905 -118.605 827.711C-69.1624 923.516 11.9704 999.214 110.969 1041.91C209.967 1084.6 320.706 1091.64 424.317 1061.84C527.927 1032.04 617.999 967.234 679.185 878.467C740.37 789.699 768.884 682.463 759.868 575.029L363.458 608.297C364.778 624.019 360.605 639.713 351.651 652.703C342.696 665.694 329.515 675.178 314.352 679.539C299.189 683.9 282.983 682.869 268.496 676.622C254.008 670.374 242.134 659.296 234.899 645.275C227.663 631.255 225.513 615.159 228.814 599.731C232.115 584.302 240.664 570.496 253.003 560.664C265.343 550.832 280.71 545.583 296.486 545.811C312.262 546.039 327.471 551.73 339.521 561.914L596.301 258.086Z" fill="#7DFF70"/>
</g>
</g>
<defs>
<filter id="filter0_f_1057_11860" x="-465.422" y="-146.922" width="1521.84" height="1521.84" filterUnits="userSpaceOnUse" color-interpolation-filters="sRGB">
<feFlood flood-opacity="0" result="BackgroundImageFix"/>
<feBlend mode="normal" in="SourceGraphic" in2="BackgroundImageFix" result="shape"/>
<feGaussianBlur stdDeviation="147.461" result="effect1_foregroundBlur_1057_11860"/>
</filter>
<clipPath id="clip0_1057_11860">
<rect width="1311" height="779" fill="white"/>
</clipPath>
</defs>
</svg>
