<svg width="1311" height="763" viewBox="0 0 1311 763" fill="none" xmlns="http://www.w3.org/2000/svg">
<g clip-path="url(#clip0_550_13861)">
<rect width="1311" height="763" rx="24" fill="#292929"/>
<g opacity="0.67" filter="url(#filter0_f_550_13861)">
<path d="M697.666 310.663C644.261 233.814 565.861 177.861 475.826 152.336C385.791 126.812 289.691 133.295 203.9 170.682C118.11 208.069 47.9366 274.046 5.33753 357.372C-37.2615 440.697 -49.6507 536.215 -29.7191 627.652C-9.78753 719.088 41.2317 800.784 114.645 858.82C188.059 916.857 279.325 947.643 372.893 945.932C466.46 944.222 556.54 910.121 627.784 849.441C699.028 788.76 747.027 705.254 763.604 613.15L423.76 551.986C421.334 565.464 414.31 577.685 403.884 586.565C393.458 595.446 380.275 600.436 366.582 600.686C352.889 600.937 339.533 596.431 328.789 587.938C318.045 579.445 310.579 567.489 307.662 554.108C304.745 540.727 306.558 526.748 312.792 514.554C319.026 502.36 329.296 492.704 341.851 487.233C354.406 481.762 368.469 480.813 381.646 484.548C394.822 488.284 406.295 496.472 414.111 507.718L697.666 310.663Z" fill="#7DFF70"/>
</g>
</g>
<defs>
<filter id="filter0_f_550_13861" x="-295" y="-119" width="1314.61" height="1321" filterUnits="userSpaceOnUse" color-interpolation-filters="sRGB">
<feFlood flood-opacity="0" result="BackgroundImageFix"/>
<feBlend mode="normal" in="SourceGraphic" in2="BackgroundImageFix" result="shape"/>
<feGaussianBlur stdDeviation="128" result="effect1_foregroundBlur_550_13861"/>
</filter>
<clipPath id="clip0_550_13861">
<rect width="1311" height="763" rx="24" fill="white"/>
</clipPath>
</defs>
</svg>
