<svg width="1311" height="763" viewBox="0 0 1311 763" fill="none" xmlns="http://www.w3.org/2000/svg">
<g clip-path="url(#clip0_550_14109)">
<rect width="1311" height="763" rx="24" fill="#D172FD"/>
<g opacity="0.45" filter="url(#filter0_f_550_14109)">
<path d="M772.225 613.988C791.41 558.462 791.137 493.367 771.454 429.796C751.77 366.224 713.894 308.108 664.278 265.35C614.662 222.592 556.377 197.838 499.353 195.305C442.33 192.772 390.096 212.618 351.552 251.46C313.008 290.303 290.539 345.739 287.973 408.322C285.407 470.906 302.903 536.765 337.48 594.679C372.057 652.592 421.575 698.976 477.597 725.928C533.62 752.88 592.68 758.731 644.715 742.485L552.825 512.686C545.21 515.064 536.567 514.207 528.368 510.263C520.17 506.319 512.923 499.531 507.863 491.056C502.803 482.58 500.243 472.942 500.618 463.784C500.994 454.625 504.282 446.512 509.922 440.828C515.563 435.143 523.207 432.239 531.552 432.61C539.897 432.98 548.427 436.603 555.688 442.86C562.949 449.118 568.492 457.623 571.373 466.926C574.253 476.229 574.293 485.756 571.485 493.881L772.225 613.988Z" fill="white"/>
</g>
<path d="M1728.38 530.023L1333.96 953.532C1322.63 965.697 1316.96 971.779 1309.77 971.779C1302.58 971.779 1296.92 965.697 1285.59 953.532L891.166 530.023C881.574 519.724 876.778 514.574 876.654 508.259C876.53 501.944 881.12 496.61 890.3 485.942L1057.2 292.001C1061.2 287.353 1063.2 285.029 1065.83 283.588C1068.46 282.148 1071.49 281.713 1077.56 280.843L1305.09 248.256C1307.43 247.921 1308.6 247.753 1309.77 247.753C1310.95 247.753 1312.12 247.921 1314.46 248.256L1541.98 280.843C1548.05 281.713 1551.09 282.148 1553.72 283.588C1556.35 285.029 1558.35 287.353 1562.35 292.001L1729.25 485.942L1729.25 485.943C1738.43 496.61 1743.02 501.944 1742.89 508.259C1742.77 514.574 1737.97 519.724 1728.38 530.023Z" stroke="white" stroke-width="8.39331"/>
<path opacity="0.45" d="M882.749 508.504C878.333 508.504 876.042 513.771 879.053 517.001L1117.95 773.286C1119.51 774.965 1122.16 775.006 1123.77 773.376L1363.15 531.846C1364.73 530.25 1367.31 530.25 1368.89 531.846L1608.21 773.307C1609.85 774.963 1612.54 774.891 1614.09 773.15L1843.81 515.234C1846.13 512.629 1844.28 508.504 1840.79 508.504H882.749Z" stroke="white" stroke-width="8.39331"/>
<path opacity="0.45" d="M1366.03 517.598H1370.23V515.562L1368.63 514.302L1366.03 517.598ZM1071.18 285.185L1068.58 288.481L1068.58 288.481L1071.18 285.185ZM1366.03 517.599H1361.83V522.67L1366.81 521.721L1366.03 517.599ZM1366.03 517.599L1366.82 521.721L1367.85 521.523L1368.68 520.857L1366.03 517.599ZM1658.55 280.094L1661.19 283.352L1668.58 277.352L1659.17 275.943L1658.55 280.094ZM1366.03 236.333L1366.65 232.183L1365.95 232.077L1365.24 232.211L1366.03 236.333ZM1366.03 236.334L1366.67 240.481L1366.74 240.47L1366.81 240.456L1366.03 236.334ZM1072.12 281.6L1071.48 277.453H1071.48L1072.12 281.6ZM1368.63 514.302L1073.78 281.889L1068.58 288.481L1363.43 520.894L1368.63 514.302ZM1361.83 517.598V517.599H1370.23V517.598H1361.83ZM1366.81 521.721L1366.82 521.721L1365.24 513.476L1365.24 513.476L1366.81 521.721ZM1368.68 520.857L1661.19 283.352L1655.9 276.836L1363.38 514.341L1368.68 520.857ZM1659.17 275.943L1366.65 232.183L1365.41 240.484L1657.92 284.244L1659.17 275.943ZM1365.24 232.211L1365.24 232.211L1366.81 240.456L1366.82 240.456L1365.24 232.211ZM1072.76 285.748L1366.67 240.481L1365.39 232.186L1071.48 277.453L1072.76 285.748ZM1073.78 281.889C1075.27 283.066 1074.64 285.459 1072.76 285.748L1071.48 277.453C1066.11 278.28 1064.31 285.116 1068.58 288.481L1073.78 281.889Z" fill="white"/>
</g>
<defs>
<filter id="filter0_f_550_14109" x="31.7266" y="-60.9104" width="1010.69" height="1068.4" filterUnits="userSpaceOnUse" color-interpolation-filters="sRGB">
<feFlood flood-opacity="0" result="BackgroundImageFix"/>
<feBlend mode="normal" in="SourceGraphic" in2="BackgroundImageFix" result="shape"/>
<feGaussianBlur stdDeviation="128" result="effect1_foregroundBlur_550_14109"/>
</filter>
<clipPath id="clip0_550_14109">
<rect width="1311" height="763" rx="24" fill="white"/>
</clipPath>
</defs>
</svg>
