<svg width="1440" height="530" viewBox="0 0 1440 530" fill="none" xmlns="http://www.w3.org/2000/svg">
<path d="M1211.86 300.86C1213.03 295.94 1214.18 291.21 1215.03 287.67" stroke="url(#paint0_linear_1_10985)" stroke-width="3" stroke-miterlimit="10"/>
<path d="M1215.51 222.78C1200.97 220.51 1196.96 218.89 1189.1 218.89C1179.27 218.89 1145.02 228.09 1122.81 231.58C1100.6 235.07 1112 253.78 1125 256C1138 258.22 1177.66 251.24 1189.39 251.24C1190.81 251.24 1192.19 251.24 1193.51 251.38" stroke="url(#paint1_linear_1_10985)" stroke-width="3" stroke-miterlimit="10"/>
<path d="M1201.25 335.25C1196.65 341.49 1189.5 346.86 1180.75 344.71C1170.4 342.16 1171.12 331.71 1173.69 320.29" stroke="url(#paint2_linear_1_10985)" stroke-width="3" stroke-miterlimit="10"/>
<path d="M1181.78 283.61C1182.12 281.82 1182.48 279.92 1182.87 277.89C1185.66 263.15 1189.11 256.89 1193.54 251.38C1195.54 248.88 1197.75 246.54 1200.19 243.63C1205.81 237.071 1210.92 230.102 1215.5 222.78C1216.28 221.57 1217.09 220.28 1217.96 218.89C1232.15 196.19 1253.48 185.27 1291.54 225.23" stroke="url(#paint3_linear_1_10985)" stroke-width="3" stroke-miterlimit="10"/>
<path d="M1143.11 299.14C1144.11 284.58 1164.92 291.14 1169.76 293.43C1175 295.94 1177 303.89 1171 310.24C1165 316.59 1142.48 308.34 1143.11 299.14Z" stroke="url(#paint4_linear_1_10985)" stroke-width="3" stroke-miterlimit="10"/>
<path d="M1238.46 300.57C1231.03 297.598 1223.94 293.818 1217.33 289.3C1216.53 288.76 1215.76 288.21 1215.03 287.66C1189.3 268.35 1209.53 245.73 1224.95 230.31C1240.8 214.45 1264.28 197.31 1291.55 225.23C1318.82 253.15 1460.29 399.68 1460.29 399.68" stroke="url(#paint5_linear_1_10985)" stroke-width="3" stroke-miterlimit="10"/>
<path d="M1256.84 281.17C1270.35 259.51 1259.84 251.33 1251.59 252.51C1243.93 253.61 1238.59 268.85 1256.84 281.17ZM1256.84 281.17C1255.86 282.75 1254.74 284.417 1253.49 286.17C1248.49 293.08 1243.49 297.78 1238.49 300.61C1230.1 305.32 1221.44 304.89 1211.89 300.9C1205.3 297.953 1199.05 294.295 1193.26 289.99C1189.71 287.432 1185.86 285.307 1181.81 283.66C1162.48 275.88 1146.44 283.61 1143.81 289.99C1140.64 297.6 1140.64 308.39 1162.81 315.36C1166.59 316.695 1170.24 318.368 1173.72 320.36C1181.35 324.47 1190.56 330.14 1201.28 335.36C1225.06 346.85 1256.28 355.91 1294.12 340.16C1319.49 364.9 1379.12 438.49 1379.12 438.49L1458.45 528.875" stroke="url(#paint6_linear_1_10985)" stroke-width="3" stroke-miterlimit="10"/>
<path d="M209.41 289.11C204.22 316.11 200.06 340.46 219.41 344.41C233.41 347.27 229.78 334.16 232.8 308.41" stroke="url(#paint7_linear_1_10985)" stroke-width="3" stroke-miterlimit="10"/>
<path d="M179.81 244.86C186.609 249.534 192.789 255.052 198.2 261.28" stroke="url(#paint8_linear_1_10985)" stroke-width="3" stroke-miterlimit="10"/>
<path d="M120.81 303.08C112.02 303.4 102.38 307.41 84.71 321.83C60.33 341.73 15.3199 381.02 15.3199 381.02C-4.44005 398.41 -12.0601 402.85 -12.0601 402.85" stroke="url(#paint9_linear_1_10985)" stroke-width="3" stroke-miterlimit="10"/>
<path d="M215 218.3C233.4 218.15 249.76 230.12 263.1 225.85C277.93 221.1 279.85 207.85 267.63 205.21C255.41 202.57 231.15 191.62 222.17 191.12C214 190.66 210.54 193.12 193.32 195.12" stroke="url(#paint10_linear_1_10985)" stroke-width="3" stroke-miterlimit="10"/>
<path d="M102.92 286.54C102.92 286.54 107.92 295.54 120.8 303.08C127.332 306.868 134.418 309.604 141.8 311.19C170.57 317.58 187.96 297.41 200.61 291.79C203.436 290.604 206.374 289.706 209.38 289.11C212.45 288.45 215.6 287.93 218.71 287.26C224.37 286.05 229.89 284.33 234.49 280.34" stroke="url(#paint11_linear_1_10985)" stroke-width="3" stroke-miterlimit="10"/>
<path d="M210.21 255.13C206.099 256.957 202.093 259.01 198.21 261.28C194.507 263.53 190.612 265.448 186.57 267.01C175.57 270.68 151.43 265.48 154.57 252.44C156.57 244.12 167.89 243.38 179.86 244.86C186.368 245.749 192.827 246.971 199.21 248.52C202.58 249.29 206.31 251.74 210.21 255.13C215.89 252.74 221.83 251.31 227.8 252.44C243 255.33 246.29 262.35 240.19 273.27C238.728 275.94 236.809 278.333 234.52 280.34" stroke="url(#paint12_linear_1_10985)" stroke-width="3" stroke-miterlimit="10"/>
<path d="M-8.13998 306.91C-8.13998 306.91 112.72 219.06 138.4 195.48C164.08 171.9 178.64 181.33 187.94 189.76C189.05 190.76 190.94 192.63 193.35 195.16C198.55 200.53 206.35 208.89 215.02 218.3L217.76 221.3" stroke="url(#paint13_radial_1_10985)" stroke-width="3" stroke-miterlimit="10"/>
<path d="M240.29 245.71C253.79 260.38 265.75 273.32 270.21 277.71C278.1 285.56 271.21 299.42 254.21 294.95C252.579 294.489 251.016 293.816 249.56 292.95" stroke="url(#paint14_linear_1_10985)" stroke-width="3" stroke-miterlimit="10"/>
<path d="M218.74 287.26C218.87 293.071 221.171 298.622 225.19 302.82C227.357 305.125 229.935 307.007 232.79 308.37C242.88 313.12 252.44 308.22 250.79 300.37C250.42 298.67 250.03 296.12 249.58 292.99C247.76 280.51 245.06 258.86 240.32 245.67C239.541 243.373 238.536 241.159 237.32 239.06C233.72 233.06 226.46 227.16 217.8 221.23C216.38 220.257 214.923 219.283 213.43 218.31C203.72 211.95 192.81 205.59 183.43 199.16C163.88 185.75 153.99 182.06 138.43 195.45" stroke="url(#paint15_linear_1_10985)" stroke-width="3" stroke-miterlimit="10"/>
<path d="M242.41 261.08C240.17 248.89 205.25 255.83 211.86 272.02C218.47 288.21 244.79 274 242.41 261.08Z" stroke="url(#paint16_radial_1_10985)" stroke-width="3" stroke-miterlimit="10"/>
<path d="M245.07 196.05C245.07 196.05 249.07 182.41 259.77 181.67C270.47 180.93 261.88 198.8 245.07 196.05Z" stroke="#E22D69" stroke-width="3" stroke-miterlimit="10"/>
<path d="M1149.3 224.76C1149.3 224.76 1134.87 173.85 1093.63 157.99C1052.39 142.13 1019.63 186.09 1040.35 232.85C1072.7 305.8 1046.06 369.85 969.3 359.72C898.87 350.41 890.64 266.47 806.9 258.22C723.16 249.97 692.72 293.74 591.22 342C489.72 390.26 407.22 399.09 392.66 316.62C378.1 234.15 442.78 179.62 483.38 189.75C523.98 199.88 519.54 254.45 470.06 261.43C420.58 268.41 378.71 189.75 332.4 148.52C286.09 107.29 263.89 129.52 254.4 152.32C248.601 166.642 245.381 181.877 244.89 197.32C244.89 197.32 229.07 186.92 223.48 176.86C220.31 171.15 222.19 165.79 225.22 163.7C228.25 161.61 234.42 162.91 238.07 168.78C244.07 178.51 244.89 197.32 244.89 197.32" stroke="#E22D69" stroke-width="3" stroke-linecap="round" stroke-linejoin="round"/>
<path d="M1150.51 225.6C1149.14 217.35 1147.24 207.52 1150.41 190.71C1152.05 181.99 1160.24 177.07 1166.27 179.29C1171.69 181.29 1173.27 191.19 1170.39 198.29C1166.07 208.86 1159.25 218.223 1150.51 225.57L1154.11 257.29" stroke="#E22D69" stroke-width="3" stroke-miterlimit="10" stroke-linecap="round"/>
<path d="M1149.3 224.76C1149.3 224.76 1144.86 208.76 1138.35 203.03C1131.84 197.3 1126.3 197.03 1123.61 200.03C1121.11 202.82 1122.28 210.44 1128.31 215.41C1132.38 218.76 1149.3 224.76 1149.3 224.76Z" stroke="#E22D69" stroke-width="3" stroke-miterlimit="10"/>
<path d="M244.7 195.58L237.52 224.81" stroke="#E22D69" stroke-width="3" stroke-miterlimit="10" stroke-linecap="round"/>
<defs>
<linearGradient id="paint0_linear_1_10985" x1="1216.49" y1="294.08" x2="1210.36" y2="294.08" gradientUnits="userSpaceOnUse">
<stop stop-color="#47F8D8"/>
<stop offset="1" stop-color="#7FA5E7"/>
</linearGradient>
<linearGradient id="paint1_linear_1_10985" x1="1215.74" y1="237.66" x2="1108.75" y2="237.66" gradientUnits="userSpaceOnUse">
<stop stop-color="#47F8D8"/>
<stop offset="1" stop-color="#7FA5E7"/>
</linearGradient>
<linearGradient id="paint2_linear_1_10985" x1="1202.46" y1="333.49" x2="1170.56" y2="333.49" gradientUnits="userSpaceOnUse">
<stop stop-color="#47F8D8"/>
<stop offset="1" stop-color="#7FA5E7"/>
</linearGradient>
<linearGradient id="paint3_linear_1_10985" x1="1292.64" y1="240.46" x2="1180.31" y2="240.46" gradientUnits="userSpaceOnUse">
<stop stop-color="#47F8D8"/>
<stop offset="1" stop-color="#7FA5E7"/>
</linearGradient>
<linearGradient id="paint4_linear_1_10985" x1="1176.22" y1="301.22" x2="1141.6" y2="301.22" gradientUnits="userSpaceOnUse">
<stop stop-color="#47F8D8"/>
<stop offset="1" stop-color="#7FA5E7"/>
</linearGradient>
<linearGradient id="paint5_linear_1_10985" x1="1461.37" y1="304.8" x2="1201.23" y2="304.8" gradientUnits="userSpaceOnUse">
<stop stop-color="#47F8D8"/>
<stop offset="1" stop-color="#7FA5E7"/>
</linearGradient>
<linearGradient id="paint6_linear_1_10985" x1="1380.26" y1="345.11" x2="1140.75" y2="345.11" gradientUnits="userSpaceOnUse">
<stop stop-color="#47F8D8"/>
<stop offset="1" stop-color="#7FA5E7"/>
</linearGradient>
<linearGradient id="paint7_linear_1_10985" x1="235.1" y1="315.569" x2="203.358" y2="309.415" gradientUnits="userSpaceOnUse">
<stop stop-color="#47F8D8"/>
<stop offset="1" stop-color="#7FA5E7"/>
</linearGradient>
<linearGradient id="paint8_linear_1_10985" x1="201.004" y1="249.23" x2="179.385" y2="245.038" gradientUnits="userSpaceOnUse">
<stop stop-color="#47F8D8"/>
<stop offset="1" stop-color="#7FA5E7"/>
</linearGradient>
<linearGradient id="paint9_linear_1_10985" x1="110.147" y1="356.97" x2="-0.808735" y2="335.458" gradientUnits="userSpaceOnUse">
<stop stop-color="#47F8D8"/>
<stop offset="1" stop-color="#7FA5E7"/>
</linearGradient>
<linearGradient id="paint10_linear_1_10985" x1="277.468" y1="210.742" x2="192.845" y2="194.335" gradientUnits="userSpaceOnUse">
<stop stop-color="#47F8D8"/>
<stop offset="1" stop-color="#7FA5E7"/>
</linearGradient>
<linearGradient id="paint11_linear_1_10985" x1="231.618" y1="298.442" x2="103.777" y2="273.656" gradientUnits="userSpaceOnUse">
<stop stop-color="#47F8D8"/>
<stop offset="1" stop-color="#7FA5E7"/>
</linearGradient>
<linearGradient id="paint12_linear_1_10985" x1="244.548" y1="262.848" x2="153.977" y2="245.288" gradientUnits="userSpaceOnUse">
<stop stop-color="#47F8D8"/>
<stop offset="1" stop-color="#7FA5E7"/>
</linearGradient>
<radialGradient id="paint13_radial_1_10985" cx="0" cy="0" r="1" gradientUnits="userSpaceOnUse" gradientTransform="translate(108.836 242.474) rotate(-169.028) scale(92.7573)">
<stop stop-color="#47F8D8"/>
<stop offset="1" stop-color="#7FA5E7"/>
</radialGradient>
<linearGradient id="paint14_linear_1_10985" x1="277.403" y1="270.448" x2="235.116" y2="262.249" gradientUnits="userSpaceOnUse">
<stop stop-color="#47F8D8"/>
<stop offset="1" stop-color="#7FA5E7"/>
</linearGradient>
<linearGradient id="paint15_linear_1_10985" x1="261.12" y1="254.784" x2="130.477" y2="229.455" gradientUnits="userSpaceOnUse">
<stop stop-color="#47F8D8"/>
<stop offset="1" stop-color="#7FA5E7"/>
</linearGradient>
<radialGradient id="paint16_radial_1_10985" cx="0" cy="0" r="1" gradientUnits="userSpaceOnUse" gradientTransform="translate(227.109 261.175) rotate(-169.028) scale(15.6326)">
<stop stop-color="#47F8D8"/>
<stop offset="1" stop-color="#7FA5E7"/>
</radialGradient>
</defs>
</svg>
