<svg width="375" height="812" viewBox="0 0 375 812" fill="none" xmlns="http://www.w3.org/2000/svg">
<g clip-path="url(#clip0_51_2757)">
<rect width="375" height="812" fill="#09050A"/>
<path d="M29.7496 617.888C168.298 434.867 348.308 718.962 475.133 544.717C540.596 443.275 660.017 486.016 703.359 498.539" stroke="url(#paint0_linear_51_2757)" stroke-width="14.4326" stroke-linecap="round"/>
<circle cx="201.289" cy="568.587" r="7.72852" fill="#A57BF1" stroke="white" stroke-width="3.63695"/>
<g filter="url(#filter0_bi_51_2757)">
<path fill-rule="evenodd" clip-rule="evenodd" d="M605.385 383.339C604.703 383.711 603.67 384.68 603.185 385.493C602.649 386.312 601.55 387.133 600.758 387.414C599.269 387.915 596.522 391.297 596.639 392.513C596.673 392.868 596.55 393.186 596.296 393.211C596.093 393.23 595.749 394.439 595.535 395.942C595.095 399.359 595.854 399.797 600.848 399.01L602.112 398.838L600.936 399.922C599.622 401.173 598.724 401.413 598.138 400.651C597.957 400.362 597.181 400.283 596.434 400.508C595.637 400.738 594.755 400.619 594.204 400.212C593.324 399.58 593.07 399.605 591.423 400.581C590.406 401.19 589.073 402.239 588.421 402.915C587.769 403.591 586.624 404.468 585.888 404.794C585.1 405.126 583.716 406.179 582.789 407.188C581.811 408.203 579.906 410.226 578.515 411.74C577.125 413.254 574.753 415.221 573.304 416.127C570.645 417.763 563.008 426.217 563.12 427.382C563.149 427.686 562.635 429.269 561.924 430.923C561.263 432.571 560.718 434.362 560.767 434.868C560.815 435.375 560.325 436.138 559.644 436.51C558.963 436.882 558.473 437.645 558.522 438.152C558.57 438.658 558.1 439.624 557.448 440.3C556.612 441.198 556.335 442.043 556.457 443.309C556.603 444.829 556.78 445.068 557.845 444.965C558.505 444.902 559.194 445.142 559.385 445.533C559.576 445.924 560.204 446.068 561.002 445.838C562.992 445.237 567.019 446.64 567.146 447.957C567.214 448.666 566.857 449.212 566.161 449.432C565.516 449.647 563.992 450.305 562.772 450.934C560.815 451.889 560.363 451.983 559.599 451.494C558.78 450.959 558.76 450.757 559.398 449.929C559.984 449.105 559.914 448.908 558.473 447.768L556.921 446.537L555.702 448.239C554.538 449.987 554.288 451.647 555.199 452.071C555.468 452.198 555.94 453.38 556.265 454.627C556.778 456.776 556.701 457.039 555.402 458.442C554.659 459.229 554.01 460.467 553.976 461.186C553.953 462.007 553.595 462.552 552.945 462.717C551.498 463.112 550.813 464.507 551.013 466.584C551.13 467.8 550.867 468.796 550.266 469.468C549.756 470.028 549.387 470.984 549.441 471.541C549.538 472.554 548.845 473.336 546.196 475.074C545.087 475.794 544.824 475.717 542.655 473.931L540.324 472.059L536.954 472.69C533.781 473.251 533.537 473.376 531.86 475.634C528.784 479.866 527.45 482.499 527.61 484.171C527.722 485.336 527.262 486.403 525.804 488.282C523.841 490.771 523.79 490.776 522.006 490.334C520.431 489.923 519.928 490.022 518.484 490.979C517.619 491.573 516.588 492.031 516.278 492.009C515.969 491.988 515.348 492.456 514.894 493.062C514.079 494.163 512.743 494.65 512.67 493.89C512.65 493.687 512.952 493.096 513.304 492.5C513.881 491.575 513.811 491.377 512.556 490.578L511.19 489.686L508.42 491.231C505.304 492.911 504.333 494.538 504.645 497.78C504.765 499.558 504.678 499.719 503.486 499.578C502.716 499.55 501.822 499.841 501.262 500.406C500.513 501.142 500.554 501.036 501.37 499.935C503.538 496.915 502.155 496.383 497.713 498.651C495.172 499.917 494.078 500.79 493.668 501.851C493.012 503.551 491.77 504.488 489.994 504.659C489.335 504.722 488.415 505.271 487.915 505.932C487.191 506.922 487.159 507.13 487.858 507.471C490.324 508.615 490.324 508.615 489.228 509.998C487.953 511.655 488.105 514.299 489.548 514.927C490.186 515.172 490.693 515.123 490.821 514.856C491.077 514.32 494.906 516.866 494.974 517.575C494.994 517.778 494.506 518.029 493.846 518.092C492.781 518.195 490.163 520.798 490.241 521.609C490.261 521.811 490.691 522.026 491.208 522.078C491.938 522.213 491.943 522.263 491.085 522.397C490.532 522.501 489.237 522.881 488.251 523.283C486.321 523.98 485.035 526.046 485.224 528.022C485.361 529.44 482.268 530.3 480.639 529.332C479.94 528.99 478.79 528.742 478.029 528.816C476.811 528.933 476.628 529.155 476.745 530.371C476.818 531.13 477.159 532.018 477.548 532.338C478.16 532.842 480.544 537.93 480.651 539.044C480.675 539.298 479.639 539.704 478.274 539.886C476.305 540.178 475.57 539.993 473.875 538.878C472.782 538.165 471.501 537.623 471.096 537.662C470.69 537.701 470.235 537.234 470.07 536.585C469.881 535.683 469.506 535.514 468.298 535.733C466.786 535.98 466.786 535.98 467.819 535.012C469.459 533.423 468.333 529.697 466.417 530.545C465.487 530.993 463.088 528.411 463.382 527.207C463.594 526.215 462.53 525.806 459.503 525.739C458.833 525.702 457.992 525.476 457.552 525.16C457.006 524.804 456.605 524.893 455.861 525.68C455.296 526.195 454.912 526.999 454.946 527.353C454.985 527.759 454.7 527.99 454.381 527.868C454.016 527.801 453.316 527.97 452.833 528.272C452.156 528.695 451.639 528.643 450.921 528.098C450.37 527.691 449.58 527.46 449.239 527.646C448.894 527.782 448.164 527.647 447.668 527.286C446.844 526.701 446.701 526.817 446.415 528.634C445.902 531.29 445.982 531.589 447.359 533.655C448.982 536.158 449.024 537.125 447.388 537.692C446.596 537.972 445.395 538.803 444.698 539.535C443.012 541.18 442.555 541.224 441.694 539.722C440.954 538.412 440.156 538.642 440.303 540.162C440.385 541.023 440.095 541.204 438.762 541.179C437.686 541.18 437.048 540.935 436.999 540.428C436.91 540.028 436.634 539.288 436.281 538.81C435.746 538.044 435.487 538.017 432.714 539C431.129 539.561 429.144 540.212 428.397 540.437C427.605 540.718 426.083 541.938 424.927 543.225C423.031 545.35 422.884 545.415 422.782 544.351C422.718 543.693 422.22 542.769 421.715 542.307C420.76 541.427 420.709 541.432 419.591 543.124C418.561 544.655 418.317 544.781 417.004 544.447C416.163 544.221 414.667 544.109 413.602 544.211C411.775 544.387 411.719 544.341 411.786 542.903C411.81 542.083 412.659 540.263 413.644 538.788C415.613 535.838 416.631 533.644 416.515 532.428C416.476 532.023 416.651 531.188 416.953 530.596C417.383 529.737 417.293 529.337 416.207 528.163C415.515 527.36 414.881 526.092 414.803 525.281C414.662 523.812 412 521.154 410.963 521.56C410.72 521.686 409.835 521.004 409.082 520.105C408.047 518.927 407.344 518.534 406.491 518.718C405.887 518.827 405.061 518.754 404.676 518.484C404.241 518.219 403.739 518.318 403.128 518.888C402.659 519.342 401.729 519.79 401.12 519.848C400.511 519.907 399.419 520.267 398.743 520.69C397.675 521.304 397.311 521.237 396.203 520.372C395.04 519.461 394.523 519.409 392.675 519.893L390.527 520.457L391.577 519.129C392.347 518.084 392.492 517.456 392.112 516.164C391.756 515.124 391.352 514.652 390.798 514.756C390.347 514.851 389.373 514.842 388.592 514.713C387.447 514.516 386.857 514.777 385.314 516.306C382.458 519.086 380.986 525.618 382.821 527.129C383.822 527.953 382.622 528.784 379.983 529.037C378.207 529.208 377.867 529.394 378.051 530.246C378.155 530.798 378.564 531.321 379.035 531.429C379.618 531.629 379.389 531.907 378.27 532.525C377.396 533.018 376.688 533.649 376.717 533.953C376.742 534.206 376.157 534.518 375.447 534.586C374.381 534.689 374.21 534.501 374.385 533.666C374.556 532.78 374.389 532.643 373.019 532.774C372.157 532.857 371.374 533.239 371.261 533.659C371.148 534.079 370.075 534.642 368.877 534.962C366.475 535.551 364.007 537.577 365.223 537.972C366.277 538.28 363.586 540.123 361.093 540.823C359.945 541.138 358.914 541.595 358.735 541.868C358.608 542.135 357.798 542.776 356.868 543.223C355.994 543.716 355.057 544.624 354.756 545.215C354.469 545.959 353.792 546.382 352.879 546.469C351.357 546.616 351.243 547.036 351.208 551.998C351.211 552.56 350.644 553.586 349.992 554.263L348.836 555.55L350.646 556.807C351.587 557.535 352.421 558.221 352.436 558.373C352.509 559.133 343.468 560.974 339.43 561.055C336.721 561.111 335.919 561.29 335.028 562.143C333.903 563.222 333.774 565.075 334.737 566.568C335.15 567.141 335.141 568.114 334.821 569.576C334.3 571.62 334.371 571.818 335.824 573.621C336.697 574.713 337.546 575.551 337.8 575.527C338.206 575.488 339.986 578.027 340.069 578.888C340.156 579.8 338.296 579.621 337.174 578.604C336.608 578.045 336.109 577.121 336.107 576.559C336.103 574.923 331.877 572.518 330.085 573.048C328.942 573.413 328.725 573.281 328.804 572.506C328.852 571.939 328.332 571.325 327.425 570.952C325.982 570.323 325.881 570.333 324.464 572.105C323.087 573.771 323.056 573.979 323.861 574.362C324.393 574.566 324.975 574.766 325.178 574.746C325.63 574.652 326.695 577.208 326.374 577.597C326.232 577.713 325.427 577.33 324.593 576.643C323.152 575.504 322.994 575.468 322.002 576.33C321.005 577.141 320.954 577.146 321.076 575.754C321.104 574.985 321.149 572.782 321.116 570.842L321.094 567.419L319.724 567.551C318.557 567.663 318.446 567.571 318.987 566.803C319.477 566.041 319.351 565.797 318.263 565.135C316.902 564.294 316.902 564.294 316.678 565.696C316.507 566.582 316.682 567.332 317.187 567.794C318.142 568.674 318.448 573.451 317.687 574.597C317.325 575.092 316.598 575.52 315.989 575.579C315.33 575.642 313.956 576.797 312.722 578.347C310.8 580.73 310.631 581.104 311.349 581.648C311.84 581.959 312.278 582.786 312.346 583.495C312.41 584.154 312.804 585.599 313.262 586.628C313.874 588.205 313.923 588.712 313.332 589.485C312.118 591.237 310.485 596.098 310.631 597.618C310.709 598.428 310.562 599.567 310.307 600.103C309.484 601.665 310.5 603.714 311.921 603.578C312.631 603.509 313.265 603.704 313.4 604.049C313.591 604.44 314.094 604.34 315.207 603.671C316.606 602.769 316.86 602.745 318.88 603.522C321.276 604.468 323.237 606.222 323.373 607.641C323.548 609.464 322.591 609.096 321.19 606.777C319.734 604.412 319.734 604.412 317.141 604.61C314.909 604.824 314.421 605.076 313.095 606.737C311.632 608.565 311.601 608.772 312.164 611.428L312.787 614.18L310.742 616.882C309.605 618.371 308.69 620.044 308.744 620.601C308.812 621.311 308.307 621.921 307.281 622.429C306.401 622.872 305.227 623.445 304.689 623.701C304.155 624.008 303.225 624.455 302.631 624.666C301.94 624.936 301.532 625.487 301.59 626.095C301.702 627.26 300.596 627.469 299.58 626.493C299.186 626.121 298.441 625.835 297.934 625.884C296.666 626.006 293.871 624.638 292.776 623.363C291.503 621.85 292.144 621.584 294.097 622.725C295.509 623.561 295.924 623.623 296.688 623.038C297.216 622.681 297.963 622.456 298.434 622.564C299.964 623.03 301.5 621.962 302.859 619.582C303.646 618.177 305.087 616.658 306.104 616.049C307.706 615.128 307.92 614.699 307.917 613.063C307.896 611.787 308.224 610.937 308.983 610.302C310.601 609.022 310.619 607.077 309.066 605.846C307.463 604.62 307.276 603.206 308.196 598.925C308.584 597.099 308.841 594.978 308.768 594.218C308.7 593.509 309.122 592.037 309.684 590.96C310.297 589.879 310.895 587.572 311.033 585.82C311.273 582.985 311.174 582.483 310.385 581.741C309.208 580.678 309.463 579.069 311.191 576.807C311.87 575.872 312.54 574.325 312.651 573.343C312.761 572.361 313.06 571.208 313.28 570.829C313.596 570.389 313.508 569.477 312.9 567.951C312.148 565.978 311.869 565.749 310.601 565.871C309.84 565.944 309.004 565.769 308.827 565.531C308.646 565.241 307.966 565.102 307.307 565.165C306.647 565.229 305.69 564.861 305.129 564.352C304.23 563.518 304.077 563.533 302.938 564.461C302.271 564.985 301.146 567.138 300.264 569.677C298.653 574.229 297.016 576.38 294.028 577.792C292.707 578.43 292.06 579.157 291.546 580.74C290.9 582.54 290.939 582.946 291.592 583.343C292.244 583.741 292.278 584.095 291.835 585.876C291.531 586.979 291.344 588.224 291.332 588.634C291.371 589.039 290.748 590.019 289.959 590.862C288.508 592.28 288.512 592.331 289.424 593.828C289.964 594.645 290.803 595.382 291.279 595.541C291.912 595.736 292.108 596.177 291.976 597.468C291.885 598.653 292.181 599.596 293.059 600.738C294.123 602.221 294.193 602.419 293.522 602.892C293.09 603.189 292.808 603.983 292.871 604.642C292.934 605.301 292.749 606.034 292.464 606.266C291.792 606.74 290.924 605.698 290.788 604.28C290.729 603.672 289.428 601.854 287.837 600.218C286.296 598.576 284.519 596.6 283.984 595.833C282.279 593.543 274.733 586.958 274.037 587.178C273.686 587.263 273.099 587.012 272.705 586.641C272.25 586.174 271.576 586.085 270.784 586.366C269.697 586.777 269.59 586.736 269.959 585.78C270.256 585.138 270.193 584.48 269.844 584.053C269.557 583.723 269.271 582.881 269.212 582.273C269.062 580.703 267.791 578.678 267.03 578.751C266.675 578.785 265.786 579.126 265.11 579.549C263.895 580.228 263.864 580.436 264.373 582.534C264.692 583.73 265.276 585.004 265.721 585.37C266.165 585.736 266.523 586.264 266.548 586.517C266.572 586.771 267.048 586.929 267.606 586.876C268.165 586.822 268.641 586.981 268.67 587.285C268.694 587.538 268.516 587.811 268.211 587.84C267.958 587.864 267.826 589.155 267.972 590.675C268.205 593.107 268.138 593.471 267.225 593.559C266.667 593.612 266.244 594.011 266.283 594.416C266.327 594.872 265.899 595.22 265.087 595.298C264.377 595.366 263.701 595.789 263.587 596.209C263.423 596.634 263.153 597.018 262.899 597.042C262.088 597.12 262.27 595.824 263.248 594.81C263.762 594.301 264.151 593.548 264.117 593.193C264.024 592.23 262.047 590.836 261.421 591.254C261.187 591.481 259.897 591.911 258.551 592.296C256.362 592.967 256.099 592.89 254.288 591.633C252.361 590.233 251.438 590.219 246.766 591.691C244.978 592.272 244.427 591.865 244.728 590.2C244.858 589.42 245.28 589.022 246.143 588.939C247.31 588.827 247.346 588.67 246.9 587.23C246.174 584.999 246.058 584.857 244.434 585.013C242.252 585.223 239.914 586.47 240.002 587.382C240.019 588.096 239.918 588.106 239.175 587.308C238.66 586.744 237.657 586.431 236.43 586.447C228.216 586.776 225.116 587.023 225.155 587.429C225.175 587.631 224.829 587.767 224.409 587.654C223.983 587.49 222.821 587.653 221.872 587.898C220.577 588.278 220.154 588.676 220.222 589.385C220.378 591.007 218.803 591.669 216.382 590.982C214.482 590.397 214.254 590.164 213.75 588.116C212.863 584.213 212.899 584.057 214.839 583.461C216.286 583.066 216.859 583.165 217.966 584.03L219.296 585.078L220.31 583.907C220.953 583.129 221.237 581.824 221.284 580.183C221.282 578.036 221.011 577.346 219.911 576.02C216.68 572.241 215.123 570.959 213.803 571.086C212.535 571.208 212.489 571.263 212.996 573.873C213.437 576.336 213.365 576.65 212.22 577.526C211.559 578.101 211.018 578.869 211.057 579.274C211.101 579.73 210.596 580.341 209.966 580.709C208.705 581.443 207.861 583.314 208.021 584.986C208.333 588.228 204.512 591.1 202.766 588.916C202.302 588.347 201.332 587.316 200.706 586.66C199.523 585.547 199.371 585.561 197.197 586.384C195.267 587.081 194.658 587.139 193.432 586.644C192.364 586.184 191.704 586.247 191.028 586.67C190.55 587.023 189.047 587.372 187.672 587.453L185.232 587.636L185.421 589.612C185.529 590.726 185.331 591.87 184.909 592.269C184.486 592.667 184.305 593.451 184.415 594.055C184.594 594.855 184.411 595.077 183.64 595.049C183.072 595.002 182.373 594.66 182.025 594.233C181.727 593.802 180.874 592.912 180.192 592.211C179.338 591.322 178.564 589.658 177.909 587.113C176.996 583.469 176.88 583.327 175.611 583.448C173.531 583.648 172.244 585.715 172.512 588.501C172.634 589.768 172.954 590.964 173.273 591.087C174.24 591.556 174.074 593.566 173.026 594.382C172.07 595.088 171.806 595.011 170.022 593.495C168.192 592.035 168.066 591.792 168.563 590.568C169.024 589.501 168.965 588.893 168.125 587.082C167.21 585.023 167.186 584.77 167.976 583.927C168.439 583.422 168.881 582.153 168.986 581.12C169.188 578.953 170.616 576.771 171.986 576.639C173.762 576.469 175.643 570.459 174.335 569.102C173.597 568.355 173.807 565.216 174.619 565.138C174.974 565.104 175.509 565.871 175.754 566.819C176.434 569.105 180.117 575.449 181.265 576.207C181.756 576.518 182.213 577.548 182.306 578.51C182.486 580.385 184.312 581.794 188.389 583.192C191.514 584.272 197.214 583.366 198.88 581.519C201.896 578.263 203.27 570.718 201.193 568.821C200.066 567.754 199.371 565.316 198.748 559.905C198.332 556.11 198.092 555.213 196.961 554.095C196.274 553.343 195.654 552.227 195.586 551.517C195.523 550.859 195.105 550.234 194.684 550.121C194.259 549.958 193.845 549.384 193.787 548.776C193.733 548.219 192.971 547.219 192.091 546.587C191.211 545.956 190.328 544.763 190.033 543.82C189.633 542.325 190.123 541.562 190.89 542.613C191.066 542.851 191.724 543.299 192.311 543.55C193.375 543.959 193.365 543.857 192.786 541.561C192.122 538.915 191.667 538.448 189.536 538.653C188.267 538.775 188.105 538.688 188.288 537.392C188.517 536.041 188.517 536.041 187.331 537.024C186.471 537.669 185.821 537.834 185.183 537.589C184.651 537.384 183.035 537.079 181.58 536.861C178.989 536.548 178.791 536.618 175.216 538.853L171.54 541.098L171.803 543.834C171.944 545.303 171.769 547.211 171.441 548.061C170.867 549.548 170.573 549.678 168.086 549.917C165.549 550.161 165.259 550.342 163.714 552.383C162.807 553.595 162.117 554.939 162.165 555.446C162.209 555.902 161.568 557.753 160.774 559.618C159.72 561.969 159.041 562.904 158.519 562.8C158.099 562.687 156.833 563.372 155.749 564.345C154.665 565.318 153.363 566.159 152.855 566.208C152.145 566.276 151.981 566.701 152.113 568.069C152.22 569.183 151.993 570.023 151.551 570.219C151.165 570.461 150.878 571.204 150.956 572.014C151.131 573.838 149.776 575.195 147.594 575.405C145.818 575.576 145.818 575.576 145.716 578.244C145.705 579.728 145.763 581.921 145.879 583.137C146.196 586.429 145.404 586.71 130.404 588.356C123.462 589.126 117.849 589.87 117.859 589.971C117.873 590.123 118.439 590.682 119.112 591.282C120.117 592.157 120.338 592.852 120.441 594.989C120.549 597.177 120.755 597.72 121.736 598.341C122.551 598.825 122.918 599.455 122.849 600.33L122.763 601.566L122.018 600.206C121.58 599.379 120.533 598.61 119.423 598.257C118.42 597.944 117.56 597.516 117.536 597.262C117.516 597.06 116.863 596.662 116.068 596.381C114.746 595.946 114.497 596.021 113.686 597.172C113.191 597.884 112.129 598.549 111.271 598.683C107.642 599.287 106.072 600 104.939 601.541C104.256 602.424 103.457 603.166 103.051 603.205C102.645 603.244 102.15 603.956 101.929 604.847C101.681 605.995 101.263 606.444 100.349 606.532C98.878 606.674 97.5984 608.279 97.7348 609.698C97.8078 610.457 97.2574 611.124 95.8999 611.919C94.2985 612.84 93.9774 613.229 94.2221 614.176C94.4523 614.972 94.0423 616.034 93.0623 617.56C91.2615 620.136 91.2643 620.698 92.9286 623.095C93.9977 624.628 94.1528 625.175 93.8227 626.536C93.4468 627.953 93.5677 628.146 94.561 628.357C96.3857 628.693 97.6237 629.852 97.7601 631.27C97.8457 632.694 95.7891 635.806 94.3156 636.458C93.6754 636.725 93.1014 638.211 92.3885 641.45C91.8104 643.959 91.2225 646.368 91.0175 646.898C90.8174 647.48 90.9675 647.977 91.5139 648.333C92.3891 648.914 92.4831 652.024 91.6623 653.074C90.9791 653.958 88.857 653.19 87.8434 651.703C86.5977 649.931 84.8169 650.051 84.0788 651.962C83.8377 652.65 82.9953 654.009 82.2155 654.953C79.8907 657.938 79.7295 658.925 81.1684 660.576C82.0923 661.663 82.6797 661.913 83.4721 661.632C84.2137 661.357 84.7962 661.556 85.2147 662.181C85.6186 662.653 86.4284 663.086 87.0977 663.124C89.7704 663.225 90.7314 668.961 88.3015 670.32C87.7169 670.632 87.1158 671.303 87.0581 671.769C86.9546 672.29 86.4959 672.845 86.1045 673.036C85.4692 673.353 85.6097 673.748 86.9013 675.465C88.7372 678.049 88.934 679.564 87.5656 681.843C86.4167 683.743 86.6087 685.207 88.1776 686.078C88.6683 686.389 89.2995 687.095 89.5609 687.684C89.8223 688.272 91.116 689.477 92.4819 690.368C94.8391 691.982 94.9552 692.125 95.0777 694.465C95.1856 696.653 95.3865 697.145 97.2363 698.807C98.3631 699.875 99.3425 701.008 99.3815 701.413C99.4156 701.768 99.8292 702.341 100.269 702.657C100.709 702.973 101.137 703.698 101.196 704.306C101.254 704.914 101.581 705.65 101.915 705.924C103.027 706.84 102.173 708.609 100.498 708.77C98.5702 708.955 95.7887 711.984 95.9133 713.812C95.9863 714.572 95.5207 715.588 94.6296 716.441L93.2243 717.803L91.0603 716.068C89.3413 714.699 88.5461 714.418 86.654 714.447C84.2039 714.529 81.5807 716.008 81.1638 717.531C80.9324 718.32 82.9997 720.115 84.0701 720.063C84.3238 720.039 85.0683 720.325 85.6703 720.727C86.7074 721.395 86.7074 721.395 85.6126 721.193C85.0399 721.095 83.4981 721.038 82.2199 721.059C80.9416 721.08 79.2741 720.78 78.515 720.342C76.2524 719.179 75.3516 719.93 76.0205 722.626L76.5948 724.872L73.8548 725.135C71.7744 725.335 70.7839 725.686 69.8012 726.65L68.4875 727.901L67.4671 726.874C66.3256 725.654 64.7429 725.704 63.886 726.911C62.947 728.331 63.4019 732.531 64.6594 733.893C65.2302 734.502 65.8037 735.674 65.8816 736.485C65.9595 737.295 66.5623 738.771 67.2276 739.832C68.1348 741.279 68.5297 742.723 68.8413 745.965C69.2406 750.119 69.9428 752.097 71.0084 751.994C72.3276 751.868 77.6845 758.05 77.8598 759.874C77.8939 760.228 78.8392 761.007 79.973 761.614C82.2404 762.827 85.1086 766.028 85.2498 767.497C85.2985 768.004 85.717 768.628 86.157 768.944C86.5971 769.259 87.0496 770.238 87.1373 771.15C87.3126 772.974 88.4902 774.036 90.6192 774.343C91.395 774.422 92.478 775.034 93.0028 775.699C93.5276 776.364 94.2916 776.853 94.6468 776.819C95.0527 776.78 95.3815 777.004 95.4156 777.359C95.4448 777.663 95.8633 778.287 96.3686 778.75C97.1013 779.446 97.191 779.846 96.82 781.314C96.403 782.836 96.4976 783.287 97.6077 784.715C98.2584 785.623 98.8924 786.892 98.9557 787.55C99.0142 788.158 99.3819 788.788 99.7517 788.905C100.172 789.018 101.068 790.875 101.845 793.101C102.852 796.123 103.462 797.138 104.252 797.369C105.727 797.789 110.721 797.002 111.972 796.166C113.126 795.391 113.205 793.543 112.224 786.531C111.779 783.506 111.89 782.524 112.693 780.759C113.19 779.536 113.813 778.556 114.066 778.531C114.269 778.512 114.448 778.239 114.414 777.884C114.385 777.58 114.676 776.888 115.039 776.393C115.447 775.842 115.757 774.279 115.819 772.79C115.873 770.689 115.653 769.994 114.864 769.252C113.293 767.818 113.976 766.934 117.286 766.207C119.794 765.659 120.525 765.282 122.044 763.5L123.787 761.39L125.448 762.15C127.599 763.222 134.966 762.616 136.067 761.283C136.985 760.172 136.98 760.122 135.616 758.719C134.025 757.082 133.964 755.912 135.467 756.637C136.383 757.111 136.632 757.036 137.209 756.112C137.694 755.298 137.679 754.073 137.079 750.5C136.366 746.274 136.175 745.884 134.441 744.363C132.702 742.792 132.637 742.645 132.955 740.62C133.282 738.697 133.197 738.348 132.055 737.128L130.747 735.771L132.01 734.525C132.657 733.798 133.674 733.189 134.232 733.135C135.754 732.989 137.138 731.936 137.046 730.973C136.924 729.707 139.227 727.031 140.547 726.905C141.156 726.846 142.066 726.196 142.556 725.433C143.046 724.67 143.804 724.035 144.21 723.996C144.87 723.933 145.015 724.379 144.946 726.328C144.91 729.144 145.889 730.277 148.456 730.337C149.739 730.367 150.065 730.029 150.863 728.214C151.753 726.288 152.038 726.056 154.003 725.713C155.211 725.495 156.588 724.903 157.051 724.398C157.749 723.666 158.15 723.576 159.675 723.992C161.667 724.465 163.266 724.056 164.565 722.653C165.726 721.417 167.129 722.151 167.647 724.351C168.057 725.947 168.168 726.039 170.147 725.849C172.227 725.649 173.985 726.349 174.092 727.463C174.121 727.767 175.001 728.399 176.12 728.853C177.776 729.563 178.245 730.183 179.627 733.373C180.939 736.366 181.123 737.217 180.703 738.178C180.462 738.866 180.393 739.742 180.584 740.132C181.092 741.157 182.863 740.936 183.467 739.753C183.845 738.898 183.947 738.889 184.856 739.824C185.422 740.383 186.169 741.231 186.522 741.709C187.233 742.714 190.592 742.493 192.326 741.355C193.145 740.816 193.662 740.869 195.059 741.553C196.026 742.022 197.078 742.841 197.487 743.364C198.128 744.172 198.386 744.198 199.915 743.591C201.983 742.728 203.269 743.32 203.449 745.194C203.513 745.853 204.485 747.446 205.636 748.767C207.363 750.749 207.96 751.1 209.33 750.969C210.244 750.881 211.183 750.535 211.413 750.257C211.734 749.868 212.275 750.174 213.134 751.114C214.275 752.334 214.751 752.492 216.984 752.278C219.318 752.053 219.755 751.807 221.117 749.989C222.891 747.671 222.922 747.464 221.774 746.705C221.334 746.389 220.925 745.866 220.891 745.511C220.857 745.157 219.924 743.968 218.852 742.947C216.64 740.705 216.634 739.581 218.821 739.422C220.855 739.278 221.814 738.061 221.636 735.675C221.562 733.841 221.699 733.675 223.106 733.386C224.111 733.187 224.952 733.413 225.68 734.059C226.968 735.213 228.191 735.147 229.231 733.718C230.047 732.617 230.042 732.566 228.415 731.086C226.793 729.657 226.572 728.963 226.587 725.383C226.596 724.41 228.294 724.503 230.4 725.63C231.969 726.501 233.109 726.647 237.036 726.474C239.689 726.373 242.869 726.425 244.172 726.658C247.188 727.135 248.659 726.993 250.053 726.041C250.922 725.497 251.526 725.388 252.534 725.752C253.279 726.038 255.231 726.106 256.804 725.955C258.377 725.803 260.02 725.85 260.395 726.018C261.256 726.447 266.288 724.992 267.068 724.048C267.802 723.159 269.024 723.093 270.33 723.888C270.876 724.244 271.976 724.496 272.686 724.428C273.447 724.355 274.187 724.59 274.378 724.981C274.564 725.321 275.522 725.689 276.505 725.799C277.692 725.89 278.446 726.277 278.666 726.972C279.148 728.255 278.952 731.546 278.371 732.42C278.151 732.799 278.183 733.665 278.399 734.309C278.895 735.744 281.348 736.224 282.843 735.262C284.043 734.431 284.563 735.045 284.272 736.812C284.126 737.95 284.302 738.189 285.513 738.533C286.511 738.795 287.12 738.736 287.543 738.338C287.915 737.944 288.63 737.926 289.79 738.275L291.477 738.778L290.313 739.452C289.199 740.121 288.464 742.595 289.161 743.448C289.337 743.687 290.311 743.696 291.316 743.497C292.316 743.247 293.549 743.282 294.035 743.542C294.728 743.833 295.383 743.719 296.69 742.929C297.661 742.376 298.738 741.863 299.093 741.829C299.448 741.795 300.115 741.27 300.569 740.664C301.114 739.947 302.044 739.5 303.262 739.383C304.379 739.276 305.659 738.744 306.311 738.067C307.441 737.039 308.151 736.97 308.249 737.983C308.273 738.237 307.754 738.696 307.068 739.017C305.355 739.846 305.569 742.075 307.409 742.563C308.143 742.748 309.251 743.613 309.795 744.481C310.335 745.298 311.597 746.711 312.557 747.641C314.588 749.593 315.73 751.886 315.984 754.521C316.086 755.584 316.548 756.665 316.988 756.98C317.428 757.296 317.866 758.123 317.939 758.883C318.007 759.592 318.595 760.916 319.241 761.774C319.887 762.632 320.446 763.652 320.485 764.057C320.602 765.273 322.589 769.428 323.433 770.216C324.555 771.233 326.688 770.517 327.206 768.984C327.811 767.29 329.486 767.129 329.642 768.75C329.793 770.32 332.65 772.346 334.037 771.855C334.581 771.65 335.356 771.728 335.791 771.993C336.671 772.625 339.414 771.85 340.133 770.809C340.398 770.375 341.029 770.007 341.49 770.014C342.865 769.933 347.181 772.739 347.445 773.89C347.605 774.488 348.927 775.997 350.434 777.283C351.94 778.57 353.268 780.13 353.428 780.728C353.612 781.579 354.316 781.972 356.566 782.471C359.181 783.038 359.587 782.999 361.345 782.114C362.367 781.556 363.251 781.164 363.362 781.255C363.423 781.352 364.078 782.311 364.85 783.413C366.695 786.099 368.977 786.391 371.278 784.227C372.362 783.253 373.44 782.741 374.86 782.604C376.129 782.482 377.165 782.076 377.472 781.535C377.839 781.091 378.79 780.335 379.715 779.837C380.59 779.344 381.288 778.612 381.249 778.207C381.205 777.751 381.577 777.357 382.135 777.304C382.642 777.255 383.364 776.776 383.676 776.286C384.752 774.7 388.496 772.091 389.917 771.954C390.83 771.867 391.308 771.514 391.443 770.785C391.532 770.112 392.056 769.704 392.868 769.626C393.527 769.562 394.356 769.125 394.672 768.685C395.437 767.589 395.797 767.606 397.77 768.95C399.252 769.983 399.617 770.05 400.685 769.437C402.581 768.385 403.154 768.483 406.127 770.652C409.435 773.095 411.361 773.421 418.905 773.053L424.718 772.801L427.092 770.324C428.951 768.356 429.39 767.597 429.269 766.331C429.186 765.47 428.733 764.491 428.293 764.175C427.853 763.86 427.41 762.982 427.337 762.222C427.264 761.462 426.821 760.585 426.381 760.269C425.395 759.597 425.601 757.481 426.775 755.834C427.279 755.223 427.617 754.475 427.593 754.222C427.563 753.918 428.14 752.993 428.879 752.155C430.168 750.651 430.32 750.636 431.459 751.294C432.163 751.686 433.668 751.9 434.835 751.787C436.205 751.656 437.249 751.862 437.871 752.467C438.659 753.209 439.12 753.216 440.756 752.65C444.667 751.251 447.548 752.457 450.483 756.879C451.673 758.605 455.137 760.01 457.678 759.817C460.571 759.539 464.523 758.034 465.634 756.803C467.121 755.228 473.122 753.731 475.742 754.348C476.74 754.61 478.896 754.659 480.469 754.507C483.112 754.304 483.533 754.417 484.628 755.692C486.512 757.71 488.327 757.944 493.906 756.846C503.145 754.935 503.048 754.996 505.025 752.658C506.039 751.487 507.648 750.105 508.573 749.608C510.962 748.355 514.253 744.767 514.141 743.602C514.029 742.437 516.875 738.482 518.66 737.339C519.768 736.619 520.179 736.631 522.084 737.266L524.201 737.982L526.652 736.315C528.911 734.769 529.413 734.669 532.34 734.746C537.416 734.82 540.573 733.034 541.709 729.397C542.022 728.396 542.797 727.401 543.529 727.024C545.191 726.2 544.972 723.92 542.943 721.456C541.61 719.846 541.46 719.349 541.805 718.14C542.031 717.301 542.182 715.139 542.2 713.194C542.172 711.305 542.327 709.194 542.573 708.557C543.169 706.761 541.898 703.663 539.85 702.07C538.409 700.93 538.039 700.813 537.23 701.453C536.086 702.33 536.076 702.228 536.805 698.631C537.347 696.278 537.782 695.469 539.354 694.244C540.453 693.423 542.291 691.764 543.503 690.522C545.794 688.257 547.959 687.333 552.943 686.445C554.354 686.207 556.922 685.756 558.73 685.378C561.75 684.832 562.216 684.889 564.317 685.965C565.557 686.613 566.613 687.483 566.648 687.837C566.687 688.243 567.4 688.737 568.195 689.018C570.52 689.766 574.151 692.382 574.578 693.619C574.858 694.41 575.516 694.858 576.55 694.963C578.107 695.172 582.729 698.511 584.42 700.649C585.651 702.269 588.242 702.582 590.626 701.279C591.551 700.781 592.461 700.132 592.635 699.808C592.978 699.111 598.661 698.564 601.215 699.034C602.624 699.308 603.335 699.24 603.701 698.795C603.977 698.462 604.561 698.15 605.018 698.107C606.185 697.994 608.823 700.399 608.95 701.716C609.023 702.476 609.695 703.076 611.184 703.649C613.898 704.717 615.877 704.527 616.106 703.176C616.204 702.604 616.516 702.114 616.871 702.08C617.175 702.051 618.569 701.099 619.897 700C622.08 698.205 622.351 697.821 621.975 696.579C621.675 695.585 621.969 694.381 623.074 692.025C625.954 685.767 626.249 685.636 629.393 688.504C631.247 690.217 631.545 690.649 631.106 691.407C630.094 693.14 630.097 693.702 631.108 694.627C632.341 695.736 633.856 698.709 634.128 700.472C634.196 701.181 634.588 702.064 634.931 702.44C635.725 703.233 636.536 705.813 636.956 708.585C637.114 709.695 637.55 711.033 637.913 711.612C638.916 712.998 637.818 714.893 635.89 715.078C634.013 715.259 631.951 717.246 632.092 718.715C632.15 719.323 631.694 720.441 631.047 721.168C629.432 723.01 629.687 725.133 631.597 725.818C632.392 726.1 633.611 727.056 634.256 727.914C634.907 728.823 636.508 730.561 637.857 731.812C640.459 734.374 640.9 735.763 639.919 738.874C639.061 741.666 639.325 742.816 640.901 743.227C643.322 743.915 643.901 742.479 643.856 736.143C643.83 733.743 643.938 733.272 644.54 733.675C645.471 734.301 646.34 733.757 646.228 732.592C646.17 731.984 646.317 731.919 646.818 732.331C647.763 733.109 648.819 732.905 651.142 731.506C652.205 730.842 653.582 730.249 654.09 730.2C654.749 730.137 655.413 729.051 656.402 726.553C657.13 724.54 658.093 722.3 658.532 721.542C659.232 720.299 659.207 718.972 658.203 708.536C657.507 701.292 657.199 695.954 657.464 694.446C657.855 691.596 656.725 686.234 654.506 680.721C652.688 676.193 651.456 670.84 651.012 665.157C650.675 660.588 650.61 660.441 648.917 658.814C647.962 657.935 646.741 656.416 646.238 655.442C645.11 653.301 642.696 650.567 638.533 646.673C634.985 643.333 634.063 641.734 633.106 637.634C632.253 634.086 632.304 634.081 636.903 635.582C639.173 636.284 640.423 637.033 641.027 637.997C641.562 638.764 643.775 641.005 646.009 642.938C650.371 646.762 652.487 649.064 653.605 651.104C654.033 651.829 655.464 652.868 657.009 653.486C658.933 654.324 660.212 655.377 661.731 657.327C662.846 658.805 664.502 660.588 665.443 661.316C666.388 662.094 667.196 663.039 667.24 663.495C667.279 663.9 668.814 665.491 670.649 667.002C673.43 669.291 674.128 669.632 674.846 669.103C676.082 668.115 675.939 667.158 674.314 665.167C673.501 664.171 672.811 662.857 672.859 662.29C672.936 660.953 675.298 659.959 677.29 660.433C679.859 661.055 679.913 658.953 677.338 657.207C675.472 655.904 674.234 655.818 673.312 656.878C672.858 657.484 672.544 657.412 671.843 656.508C671.328 655.944 670.518 655.511 670.01 655.56C669.503 655.608 668.92 655.409 668.744 655.17C668.562 654.881 667.731 654.756 666.97 654.829C666.107 654.912 664.725 654.381 663.294 653.342C661.483 652.085 660.958 651.419 660.836 650.153C660.749 649.241 660.039 647.724 659.232 646.779C657.611 644.839 656.93 641.479 658.148 641.362C659.213 641.26 661.302 639.014 661.214 638.102C661.165 637.595 660.28 636.914 659.115 636.514C656.143 635.42 652.331 633.588 651.269 632.667C650.713 632.209 649.412 631.465 648.293 631.01C647.225 630.551 645.504 629.694 644.471 629.077C643.439 628.461 641.95 627.888 641.225 627.804C639.471 627.666 636.296 625.006 634.436 622.168C633.413 620.58 632.639 619.989 631.392 619.802C630.454 619.637 629.316 618.979 628.796 618.365C628.271 617.7 627.405 617.22 626.898 617.269C626.391 617.318 625.409 616.696 624.672 615.949C623.465 614.583 619.762 613.354 619.166 614.076C618.977 614.247 619.121 615.205 619.37 616.203C619.811 617.592 620.099 617.923 621.063 617.83C621.824 617.757 622.801 618.328 623.77 619.359L625.311 621.001L624.093 621.118C623.027 621.22 622.854 621.543 622.715 623.295C622.612 624.89 622.315 625.532 621.334 625.984C619.673 626.808 617.491 627.018 616.712 626.377C616.323 626.057 614.837 626.046 612.873 626.388C610.452 626.775 609.222 627.302 607.65 628.527L605.66 630.2L607.45 632.84C609.603 636.059 609.618 636.211 608.216 636.55C607.566 636.715 606.909 637.34 606.668 638.028C606.191 639.454 605.541 639.619 605.414 638.302C605.361 637.745 604.543 636.699 603.593 635.87C602.208 634.776 601.732 634.617 601.217 635.127C600.469 635.863 600.521 638.005 601.326 638.388C601.645 638.511 601.902 639.049 601.945 639.505C601.997 640.573 599.632 638.347 598.226 635.977C597.687 635.159 597.106 634.448 596.903 634.468C596.7 634.487 595.957 635.274 595.223 636.163C594.489 637.052 593.593 637.853 593.136 637.897C592.73 637.936 592.054 638.359 591.591 638.864C591.127 639.369 590.487 639.635 590.214 639.456C589.464 639.119 589.516 633.797 590.242 632.296C591.224 630.259 591.223 619.062 590.203 618.036C589.354 617.197 588.877 605.842 589.615 603.93C590.061 602.711 589.986 602.463 588.93 601.593C587.373 600.311 587.01 597.074 588.188 595.478C589.055 594.372 589.04 594.22 588.063 592.576C586.234 589.531 586.539 586.843 589.259 582.645C592.158 578.174 594.452 575.397 595.365 575.309C595.872 575.26 596.954 574.799 597.778 574.31C599.126 573.414 599.116 573.313 598.299 572.266C597.37 571.129 597.565 570.496 598.884 570.37C600.052 570.257 602.83 566.667 602.301 565.951C602.008 565.57 602.095 565.408 602.566 565.517C602.987 565.63 603.764 565.197 604.324 564.632L605.343 563.511L604.141 562.195C602.647 560.498 603.003 558.879 605.143 557.702C606.069 557.204 606.781 556.624 606.757 556.371C606.718 555.966 610.722 552.871 611.331 552.813C611.432 552.803 611.592 553.401 611.66 554.11C611.816 555.731 612.989 556.743 614.663 556.583C615.729 556.48 615.999 556.096 616.331 554.224C616.575 553.025 617.158 551.639 617.673 551.13C618.467 550.337 618.52 549.821 618.081 547.92C617.562 545.721 617.603 545.615 618.908 545.336C619.913 545.137 620.285 544.743 620.294 543.771C620.327 543.052 620.605 542.207 620.935 541.92C621.261 541.582 621.589 540.732 621.664 539.907C621.801 538.667 621.634 538.53 620.467 538.642C619.756 538.71 618.633 539.278 617.976 539.904C616.704 541.049 615.498 540.755 615.352 539.236C615.308 538.78 614.773 538.013 614.157 537.459C613.373 536.767 612.891 535.484 612.375 532.773C611.972 530.716 611.306 528.581 610.897 528.058C610.438 527.54 610.016 526.354 609.919 525.34C609.802 524.125 609.425 523.394 608.67 523.006C607.385 522.414 606.88 519.293 607.824 517.924C608.186 517.429 608.658 515.952 608.841 514.656C609.209 512.627 609.429 512.248 610.26 512.373C611.041 512.502 611.417 512.159 611.757 510.899C612.169 509.326 612.923 508.64 613.025 509.704C613.088 510.363 617.52 514.384 618.129 514.326C618.383 514.302 618.527 513.674 618.5 512.859C618.379 511.592 618.485 511.633 619.477 513.43L620.585 515.368L621.045 513.228C621.288 512.028 621.251 510.038 620.911 508.639C619.532 502.279 619.217 501.133 618.772 500.767C617.988 500.075 618.087 499.503 618.95 499.421C619.457 499.372 619.662 498.841 619.565 497.828C619.448 496.612 619.216 496.327 618.302 496.415C617.643 496.479 616.084 495.708 614.86 494.701C612.817 493.159 612.575 492.773 612.739 491.275C612.914 489.366 614.058 488.49 614.219 490.161C614.346 491.478 619.305 495.654 621.069 495.894C621.799 496.028 623.068 496.98 623.941 498.072C625.223 499.687 625.494 500.376 625.331 501.875C625.22 502.857 625.108 504.35 625.029 505.125C624.959 506 625.194 506.847 625.755 507.356C626.655 508.189 631.212 517.772 631.343 519.14C631.387 519.596 632.118 520.804 632.981 521.794C633.799 522.84 635.197 525.671 636.1 528.141C637.449 532.05 637.568 532.754 637.027 533.522C636.619 534.073 636.55 534.949 636.845 535.891C637.085 536.789 637.057 537.558 636.772 537.79C636.487 538.022 636.302 538.756 636.37 539.465C636.452 540.326 636.791 540.651 637.451 540.588C638.516 540.486 640.233 542.366 640.369 543.784C640.423 544.341 640.846 545.016 641.287 545.332C641.727 545.648 642.16 546.424 642.223 547.082C642.296 547.842 643.628 549.453 645.984 551.578C648 553.378 649.642 555.01 649.666 555.263C649.749 556.124 655.248 558.459 659.642 559.417C662.156 559.993 664.643 560.828 665.097 561.295C666.396 562.551 668.542 563.571 673.294 565.057C675.675 565.851 678.126 566.843 678.788 567.341C679.395 567.794 680.301 568.167 680.809 568.118C681.266 568.075 682.486 568.52 683.468 569.141C684.5 569.758 685.923 570.183 686.837 570.095C687.902 569.993 688.753 570.32 689.551 571.164L690.748 572.429L690.485 569.693C690.339 568.174 689.736 565.624 689.169 563.992C688.602 562.359 688.108 560.413 687.989 559.708C687.892 558.695 686.862 557.567 684.096 555.43C679.782 552.112 679.419 551.534 679.567 548.81C679.675 547.266 679.931 546.73 680.784 546.546C682.383 546.136 682.016 543.922 680.298 543.627C676.34 542.934 673.823 540.722 672.752 537.041C672.272 535.247 672.395 534.928 674.153 532.97C675.819 531.123 675.937 530.753 675.419 529.627C674.528 527.821 672.331 526.805 670.589 527.331C669.645 527.626 668.92 527.542 668.475 527.176C668.131 526.8 667.327 526.417 666.652 526.329C665.405 526.142 662.987 523.358 662.855 521.99C662.816 521.585 663.128 521.095 663.565 520.848C663.956 520.657 664.497 519.89 664.683 519.156C664.991 518.104 664.795 517.662 663.835 516.732C662.607 515.674 660.026 515.462 659.555 516.428C658.87 517.823 654.031 515.425 653.855 513.601C653.777 512.791 649.967 509.374 649.706 509.859C648.659 511.749 647.868 514.177 648.129 514.765C648.698 515.887 647.659 515.731 645.063 514.293C642.416 512.861 641.946 512.241 641.722 509.911C641.601 508.644 640.844 507.695 638.22 505.442C635.152 502.822 634.91 502.437 635.063 500.837C635.118 499.809 635.813 498.515 636.745 497.557C638.563 495.695 638.667 495.173 637.202 494.854C636.625 494.705 636.115 494.192 636.061 493.634C636.007 493.077 635.661 492.139 635.298 491.56C634.638 490.55 634.638 490.55 635.624 491.222C636.171 491.579 637.295 492.084 638.141 492.361C639.463 492.796 639.559 492.736 639.438 491.469C639.369 490.76 638.781 489.436 638.085 488.583C637.086 487.247 636.931 486.7 637.236 485.086C637.47 483.785 637.387 482.924 636.993 482.553C636.599 482.182 636.779 481.397 637.515 479.997C638.128 478.916 638.717 477.581 638.816 477.009C639.11 475.805 640.984 475.063 642.422 475.64C643.273 475.967 643.669 475.827 644.481 474.675L645.581 473.343L643.848 471.822C642.063 470.306 640.725 467.572 640.472 464.938C640.399 464.178 639.714 462.914 638.926 462.172C638.188 461.425 637.332 459.974 637.077 458.924C636.777 457.931 635.995 455.654 635.266 453.935C634.588 452.21 633.878 449.62 633.742 448.202C633.555 446.788 633 444.745 632.487 443.67C631.923 442.599 631.381 441.22 631.267 440.566C631.107 439.968 630.568 439.151 629.971 438.799C628.989 438.178 628.989 438.178 630.101 438.02C630.912 437.942 631.376 437.437 631.68 436.334C631.892 435.342 632.488 434.62 633.23 434.345C634.169 433.999 634.384 433.569 634.257 432.252C634.17 431.34 633.712 430.31 633.222 430C632.731 429.689 632.09 428.881 631.778 428.298C631.33 427.37 631.062 427.242 630.34 427.72C629.861 428.073 628.953 428.212 628.329 428.118C627.655 428.03 626.665 428.38 625.952 428.96C625.286 429.484 624.6 429.806 624.433 429.669C624.215 429.536 623.773 429.732 623.401 430.126C622.836 430.64 622.633 430.66 622.432 430.168C622.241 429.777 621.055 429.687 619.076 429.877C616.437 430.13 615.894 430.336 615.138 431.533C614.648 432.296 613.839 432.937 613.23 432.995C612.266 433.088 612.266 433.088 613.161 431.212C613.975 429.549 613.981 429.088 613.245 426.756C612.635 424.668 611.868 423.617 609.578 421.638C606.848 419.344 606.631 419.212 604.783 419.696C603.036 420.171 602.823 420.089 602.25 418.917C601.872 418.187 601.657 417.543 601.703 417.487C602.171 417.033 606.114 416.501 606.808 416.792C607.4 417.093 607.883 416.791 608.598 415.7C609.399 414.447 609.488 413.773 609.049 411.873C608.361 408.974 608.87 408.413 612.178 408.198C614.116 408.114 614.756 407.848 615.14 407.044C616.674 403.829 617.541 402.723 619.065 402.065C620.442 401.473 620.804 400.978 621.187 399.1C621.416 397.749 621.391 396.422 621.074 395.788C620.761 395.205 620.558 394.151 620.642 393.427L620.723 392.141L618.246 395.14L615.835 392.969C614.097 391.397 613.449 391.051 613.461 391.714C613.53 392.423 613.336 392.544 612.643 392.253C612.05 391.952 611.668 391.171 611.546 389.904C611.335 388.237 611.158 387.999 610.356 388.178C609.559 388.408 609.448 388.317 609.902 387.711C610.3 387.059 610.164 386.714 609.057 385.849C608.283 385.259 607.623 384.248 607.559 383.59C607.433 382.273 607.281 382.287 605.385 383.339ZM611.81 433.132C611.834 433.385 611.402 433.682 610.793 433.741C610.235 433.794 609.906 433.57 610.034 433.302C610.157 432.984 610.645 432.732 611.051 432.693C611.456 432.654 611.78 432.828 611.81 433.132ZM611.038 435.762C611.063 436.015 610.833 436.293 610.529 436.322C610.275 436.347 610.149 436.103 610.277 435.835C610.4 435.517 610.634 435.29 610.787 435.275C610.888 435.265 611.009 435.458 611.038 435.762ZM397.544 523.668C396.452 524.029 396.007 523.663 396.391 522.859C396.606 522.429 396.915 522.451 397.517 522.853C398.337 523.388 398.291 523.443 397.544 523.668ZM412.098 547.219C411.937 548.206 412.114 548.444 412.926 548.366C414.499 548.215 414.226 549.111 412.176 550.688C411.128 551.505 410.21 552.615 410.061 553.192C409.957 553.713 409.25 554.344 408.498 554.518C407.752 554.743 406.716 555.15 406.182 555.457C405.303 555.899 405.298 555.848 406.237 554.429C406.768 553.56 407.187 552.599 407.148 552.194C407.114 551.839 407.786 551.366 408.578 551.085C409.619 550.729 410.042 550.331 409.969 549.571C409.842 548.254 411.162 545.468 411.805 545.764C412.073 545.892 412.187 546.546 412.098 547.219ZM322.16 581.172C322.605 581.538 322.968 582.117 322.997 582.42C323.026 582.724 323.365 583.05 323.735 583.168C324.155 583.281 324.124 583.488 323.539 583.8C323.102 584.046 322.164 583.881 321.359 583.498C320.226 582.891 319.918 582.359 319.753 580.636C319.495 577.951 320.036 577.184 320.829 579.05C321.156 579.785 321.761 580.75 322.16 581.172ZM625.199 626.226C625.537 626.552 626.558 627.578 627.518 628.508C629.498 630.465 629.832 631.814 628.361 631.955C627.752 632.014 626.983 631.474 626.439 630.606C625.839 629.692 625.126 629.198 624.466 629.262C623.553 629.35 623.442 629.258 623.982 628.49C624.431 627.834 624.392 627.428 623.863 626.712C623.282 626.001 623.313 625.794 623.922 625.735C624.328 625.696 624.916 625.947 625.199 626.226Z" fill="white" fill-opacity="0.05"/>
<path d="M704.996 614.107C705.201 616.235 705.317 616.377 706.535 616.26C707.55 616.162 707.784 615.935 707.472 615.352C707.276 614.91 707.026 613.912 706.948 613.101C706.841 611.987 706.553 611.657 705.792 611.73C704.93 611.813 704.811 612.182 704.996 614.107Z" fill="white" fill-opacity="0.05"/>
<path d="M705.566 626.425C705.147 627.386 705.034 628.879 705.236 630.445C705.561 632.765 705.733 632.953 706.849 632.846C708.016 632.734 708.048 632.526 707.941 628.753C707.827 625.441 707.718 624.838 707.059 624.901C706.602 624.945 705.95 625.621 705.566 626.425Z" fill="white" fill-opacity="0.05"/>
<path d="M702.833 642.741C702.317 643.762 703.32 650.465 704.074 650.853C705.258 651.455 705.707 650.798 705.59 648.509C705.574 647.283 705.616 645.592 705.691 644.767C705.837 643.628 705.636 643.136 704.923 642.642C703.678 641.944 703.222 641.988 702.833 642.741Z" fill="white" fill-opacity="0.05"/>
<path d="M694.702 586.926C694.766 587.585 695.199 588.361 695.689 588.672C696.352 589.171 696.652 589.091 697.294 588.313C698.028 587.425 698.018 587.323 696.712 586.528C694.911 585.372 694.561 585.457 694.702 586.926Z" fill="white" fill-opacity="0.05"/>
<path d="M689.179 574.215C688.53 575.454 688.55 575.656 689.423 576.748C690.064 577.556 690.364 578.55 690.268 579.684C690.122 581.896 691.759 583.477 692.976 582.286C693.348 581.893 693.63 581.099 693.572 580.491C693.514 579.883 693.694 579.099 693.969 578.765C694.336 578.321 694.116 577.626 693.223 576.332C692.558 575.271 691.878 574.058 691.677 573.566C691.15 572.339 690.002 572.654 689.179 574.215Z" fill="white" fill-opacity="0.05"/>
<path d="M702.202 655.89C701.41 656.171 701.393 656.531 701.818 658.279C702.852 662.117 704.415 661.864 704.239 657.893C704.126 655.654 703.787 655.329 702.202 655.89Z" fill="white" fill-opacity="0.05"/>
<path d="M707.797 657.09C707.372 658 709.188 659.308 709.83 658.531C710.151 658.142 710.194 657.524 710.003 657.134C709.56 656.256 708.226 656.231 707.797 657.09Z" fill="white" fill-opacity="0.05"/>
<path d="M676.284 507.202C675.949 507.439 675.905 508.057 676.172 508.696C676.513 509.583 676.984 509.691 679.268 509.472C681.297 509.277 682.136 508.94 682.773 508.112C683.227 507.506 683.422 506.874 683.25 506.686C682.699 506.279 677.002 506.673 676.284 507.202Z" fill="white" fill-opacity="0.05"/>
<path d="M684.631 501.338C683.163 502.042 682.789 502.947 683.734 503.725C684.401 504.274 684.696 504.144 685.792 502.76C687.113 501.048 686.588 500.383 684.631 501.338Z" fill="white" fill-opacity="0.05"/>
<path d="M641.679 500.405C640.622 501.12 640.951 505.077 642.104 505.886C642.544 506.202 642.967 506.877 643.016 507.383C643.069 507.94 643.797 508.586 644.759 509.005L646.461 509.659L645.921 507.769C645.611 506.674 645.208 504.616 645.011 503.101C644.695 500.882 644.439 500.344 643.547 500.123C642.965 499.924 642.107 500.057 641.679 500.405Z" fill="white" fill-opacity="0.05"/>
<path d="M552.295 405.876C550.774 407.095 550.564 407.576 550.488 409.986C550.413 412.396 550.628 413.04 551.94 414.959C553.669 417.502 555.199 417.969 556.483 416.414C556.942 415.859 557.391 415.202 557.367 414.949C557.762 410.003 557.14 405.665 555.946 404.962C554.691 404.163 554.29 404.252 552.295 405.876Z" fill="white" fill-opacity="0.05"/>
<path d="M473.49 480.528C472.54 480.773 471.366 481.346 470.949 481.795C470.297 482.471 469.946 482.556 469.344 482.154C468.742 481.751 468.184 481.805 466.771 482.554C464.972 483.545 464.936 483.702 466.204 486.239C466.465 486.827 462.415 487.319 461.393 486.804C460.958 486.539 460.687 486.923 460.592 488.057C460.471 488.937 460.194 489.782 460.006 489.953C459.431 490.367 459.696 492.591 460.344 492.937C460.663 493.06 460.919 493.598 460.968 494.104C461.017 494.611 461.527 495.124 462.049 495.227C462.617 495.275 463.188 495.885 463.348 496.483C463.621 497.735 464.214 498.036 467.295 498.66C470.529 499.269 472.773 498.645 473.033 497.086C473.428 494.798 475.491 491.226 476.281 491.456C477.335 491.764 479 488.843 478.61 487.449C478.45 486.851 478.489 486.183 478.677 486.011C479.348 485.538 478.985 483.886 478.09 483.102C477.645 482.736 477.202 481.858 477.134 481.149C477.003 479.782 477.053 479.777 473.49 480.528Z" fill="white" fill-opacity="0.05"/>
<path d="M468.128 507.323C467.954 507.646 467.927 507.904 467.988 508.001C470.63 509.383 471.263 509.578 471.869 508.957C472.944 507.882 471.677 506.419 469.85 506.595C469.038 506.673 468.251 507.004 468.128 507.323Z" fill="white" fill-opacity="0.05"/>
<path d="M458.329 495.943C458.201 496.211 458.361 496.809 458.663 497.292C458.965 497.774 459.399 498.55 459.595 498.991C459.796 499.483 460.443 499.83 461.002 499.776C462.169 499.664 462.242 497.766 461.163 496.131C460.508 495.171 458.753 495.033 458.329 495.943Z" fill="white" fill-opacity="0.05"/>
<path d="M482.979 497.203C481.475 499.137 481.024 499.232 480.679 497.782C480.401 496.48 478.885 496.165 477.903 497.129C476.92 498.092 477.148 499.4 478.567 500.848C479.704 502.017 479.81 502.058 480.341 501.189C480.821 500.325 480.923 500.315 481.695 501.417C482.113 502.041 482.454 502.929 482.448 503.389C482.39 503.855 482.753 504.434 483.193 504.749C483.85 505.197 484.044 505.077 484.219 504.242C484.364 503.614 485.311 502.807 486.733 502.159C488.014 501.627 489.559 500.661 490.17 500.091C491.204 499.122 491.245 499.016 490.287 497.574C489.566 496.468 488.913 496.07 488.051 496.153C487.391 496.217 486.255 496.121 485.571 495.931C484.467 495.629 484.076 495.82 482.979 497.203Z" fill="white" fill-opacity="0.05"/>
<path d="M485.453 473.396C484.241 474.638 483.702 474.894 483.257 474.528C482.757 474.116 482.223 474.423 481.025 475.816C479.644 477.431 479.299 477.567 478.286 477.153C477.218 476.693 477.172 476.749 477.583 477.834C478.915 481.029 481.784 482.645 483.267 481.02C483.684 480.571 484.614 480.123 485.325 480.055C487.608 479.836 489.747 477.585 490.021 475.104C490.417 471.232 488.239 470.419 485.453 473.396Z" fill="white" fill-opacity="0.05"/>
<path d="M471.582 465.476C470.998 466.862 471.891 468.156 473.065 467.583C473.944 467.141 473.861 466.28 472.831 465.152C472.084 464.303 472.033 464.308 471.582 465.476Z" fill="white" fill-opacity="0.05"/>
<path fill-rule="evenodd" clip-rule="evenodd" d="M361.332 483.641C361.233 484.213 360.398 485.111 359.487 485.761C358.14 486.658 357.879 487.143 358.01 488.511C358.098 489.422 357.976 490.815 357.689 491.558C357.33 492.615 357.434 493.167 358.048 494.233C358.527 494.954 359.011 495.725 359.188 495.964C359.314 496.208 358.71 496.317 357.731 496.257C356.179 496.1 356.083 496.16 356.49 497.195C356.7 497.788 356.94 498.685 356.984 499.141C357.096 500.306 360.231 501.488 361.02 500.645C361.443 500.246 361.692 500.171 361.726 500.526C361.75 500.779 361.444 501.32 361.072 501.714C360.277 502.506 361.114 503.755 362.332 503.637C362.738 503.598 363.35 504.102 363.672 504.787C363.989 505.421 364.99 506.245 365.896 506.618C366.747 506.945 367.516 507.485 367.545 507.789C367.584 508.194 367.787 508.175 368.255 507.721C368.816 507.155 369.226 507.167 370.305 507.728C371.98 508.641 373.772 508.111 375.093 506.399C376.005 505.237 376.001 505.187 374.825 503.612C374.174 502.704 373.894 501.913 374.183 501.731C374.418 501.504 374.438 500.122 374.186 498.561C373.795 496.094 373.553 495.708 372.323 495.162C371.523 494.829 370.646 494.76 370.406 494.937C370.117 495.118 369.884 494.834 369.831 494.276C369.772 493.668 369.424 493.242 369.018 493.281C368.612 493.32 368.122 493.009 367.925 492.568C367.296 491.35 367.21 488.853 367.768 488.8C368.732 488.707 368.163 487.586 366.258 485.877C365.247 484.952 364.278 483.92 364.152 483.677C364.021 483.383 363.373 483.036 362.694 482.897C361.756 482.731 361.411 482.867 361.332 483.641ZM362.251 498.533C362.353 498.523 362.522 498.149 362.686 497.724C362.799 497.304 362.663 496.959 362.41 496.984C362.105 497.013 361.936 497.387 361.975 497.792C362.014 498.198 362.15 498.542 362.251 498.533Z" fill="white" fill-opacity="0.05"/>
<path d="M353.605 485.304C353.161 486.011 353.241 486.31 354.03 487.052C354.985 487.932 355.086 487.922 355.926 487.075C357.124 485.681 356.831 484.227 355.359 484.368C354.699 484.432 353.922 484.864 353.605 485.304Z" fill="white" fill-opacity="0.05"/>
<path d="M335.363 488.386C334.26 489.157 334.323 489.815 335.604 490.357C336.399 490.638 336.897 490.488 337.742 489.691C338.297 489.076 338.705 488.525 338.538 488.388C337.82 487.843 336.081 487.857 335.363 488.386Z" fill="white" fill-opacity="0.05"/>
<path d="M377.401 500.041C376.993 500.591 376.651 502.363 376.599 503.952C376.552 505.593 376.333 507.046 376.144 507.217C375.905 507.393 375.795 508.375 375.892 509.389C375.99 510.402 375.952 512.144 375.796 513.181C375.597 514.836 375.676 515.135 376.462 515.316C377.035 515.414 378.163 514.896 379.206 514.029C380.203 513.218 381.556 512.372 382.247 512.101C384.334 511.44 386.604 509.484 387.275 507.937C387.813 506.607 387.728 506.257 386.584 504.475C385.914 503.364 385.176 502.617 384.937 502.793C384.647 502.974 383.944 502.582 383.262 501.88C382.635 501.225 381.826 500.791 381.485 500.978C381.094 501.169 380.649 500.802 380.423 500.057C379.876 498.627 378.441 498.612 377.401 500.041Z" fill="white" fill-opacity="0.05"/>
<path d="M394.272 516.263C393.968 517.366 394.863 518.149 395.839 517.646C396.916 517.133 396.737 516.333 395.511 515.837C394.711 515.505 394.462 515.58 394.272 516.263Z" fill="white" fill-opacity="0.05"/>
<path d="M388.312 508.604C388.552 509.501 390.653 510.578 391.977 510.501C393.144 510.389 393.472 509.54 392.695 508.387C391.858 507.138 387.983 507.306 388.312 508.604Z" fill="white" fill-opacity="0.05"/>
<path d="M370.923 524.285C370.469 524.891 369.752 525.42 369.295 525.464C368.686 525.522 368.761 525.771 369.707 526.549C370.925 527.505 370.976 527.5 371.903 526.491C372.83 525.482 373.008 523.062 372.196 523.14C371.942 523.164 371.377 523.679 370.923 524.285Z" fill="white" fill-opacity="0.05"/>
<path d="M355.225 525.589C355.066 526.064 355.286 526.759 355.68 527.13C356.302 527.735 356.5 527.664 357.168 526.629C357.617 525.972 357.955 525.224 357.931 524.971C357.853 524.16 355.451 524.749 355.225 525.589Z" fill="white" fill-opacity="0.05"/>
<path d="M329.291 501.394C328.395 502.196 328.4 502.246 329.715 503.142C330.479 503.631 331.233 504.019 331.39 504.055C332.101 503.987 332.044 501.794 331.321 501.199C330.375 500.42 330.375 500.42 329.291 501.394Z" fill="white" fill-opacity="0.05"/>
<path d="M303.702 525.53C302.497 526.311 301.164 527.359 300.746 527.809C299.723 528.878 294.559 528.966 293.178 527.922C291.969 527.067 290.853 527.175 290.088 528.271C289.639 528.927 288.892 529.152 287.3 529.101C284.84 529.082 282.173 530.105 280.782 531.619C280.135 532.346 279.439 532.566 278.507 532.451C277.569 532.286 277.228 532.472 277.282 533.029C277.37 533.941 276.766 534.05 275.931 533.364C274.986 532.585 274.252 533.474 274.5 534.984C274.832 536.844 274.347 537.657 272.774 537.808C272.013 537.882 271.622 538.073 271.788 538.21C272.4 538.713 268.493 541.748 266.12 542.64C263.55 543.603 262.937 544.685 264.404 545.566C264.951 545.923 265.132 546.212 264.828 546.241C264.472 546.275 264.248 546.604 264.287 547.009C264.336 547.515 263.787 547.67 262.043 547.634C259.841 547.641 259.745 547.701 259.861 548.917C259.954 549.879 259.78 550.203 259.253 550.049C258.833 549.936 257.944 550.277 257.231 550.857C256.091 551.785 256.055 551.941 256.814 552.38C257.578 552.869 257.593 553.021 256.803 553.863C256.34 554.368 254.816 555.026 253.414 555.365C250.703 555.932 249.868 556.831 249.452 559.427C249.291 560.414 249.658 561.043 251.257 562.219C253.694 564.132 254.708 566.693 253.45 567.99C252.936 568.499 252.603 569.298 252.652 569.805C252.749 570.818 256.601 574.129 257.565 574.036C257.92 574.002 258.193 574.18 258.217 574.434C258.242 574.687 258.778 574.942 259.448 574.98C260.168 575.013 260.668 575.425 260.838 576.124C261.097 577.224 261.148 577.219 262.795 576.243C264.585 575.151 264.71 574.321 263.455 572.447C262.869 571.686 262.741 570.88 262.967 570.04C263.153 569.307 263.075 568.496 262.773 568.014C262.052 566.907 262.14 562.502 262.935 561.71C263.311 561.367 263.562 560.78 263.523 560.375C263.489 560.02 263.907 559.571 264.395 559.32C264.989 559.109 265.378 558.356 265.401 557.536C265.396 556.412 265.722 556.074 266.93 555.855C267.985 555.652 268.693 555.021 269.439 553.722C269.955 552.701 270.689 551.813 271.095 551.774C271.45 551.74 272.025 551.327 272.341 550.887C272.744 550.286 273.09 550.151 273.535 550.517C274.424 551.249 274.912 550.998 274.805 549.883C274.752 549.326 275.063 548.836 275.469 548.797C275.875 548.758 276.211 548.521 276.181 548.217C276.157 547.964 276.988 547.015 278.036 546.199C279.079 545.331 279.905 544.332 279.866 543.926C279.822 543.471 280.107 543.239 280.583 543.397C281.004 543.51 281.349 543.375 281.325 543.122C281.295 542.818 282.088 542.537 283.103 542.439C285.437 542.215 286.83 541.263 286.327 540.289C285.824 539.315 286.821 538.503 288.851 538.308C289.713 538.225 290.694 537.773 291.01 537.334C291.413 536.732 292.612 536.413 295.301 536.154C297.331 535.959 299.087 535.586 299.261 535.262C299.435 534.939 299.947 534.941 300.737 535.172C301.689 535.489 302.293 535.38 303.453 534.655C304.272 534.116 305.506 533.639 306.115 533.581C306.825 533.513 308.021 532.631 309.025 531.358C310.305 529.753 310.679 528.848 310.552 527.531C310.155 523.939 307.364 523.133 303.702 525.53Z" fill="white" fill-opacity="0.05"/>
<path d="M229.482 575.969C227.302 579.399 229.779 581.717 234.328 580.564C236.973 579.85 237.395 578.378 235.702 575.678C234.608 573.891 234.284 573.718 232.559 573.883C230.986 574.035 230.457 574.392 229.482 575.969Z" fill="white" fill-opacity="0.05"/>
<path d="M307.423 558.917C307.447 559.17 306.882 559.685 306.206 560.108C305.479 560.535 305.071 561.086 305.262 561.477C305.448 561.817 305.4 562.384 305.171 562.661C304.345 563.661 306.41 564.894 308.101 564.374C308.898 564.143 309.898 563.894 310.254 563.86C311.319 563.757 310.99 562.46 309.355 560.367C307.896 558.514 307.345 558.107 307.423 558.917Z" fill="white" fill-opacity="0.05"/>
<path d="M320.484 561.598C319.764 562.638 321.037 564.152 321.877 563.304C322.203 562.966 322.954 562.792 323.583 562.936C324.88 563.118 324.957 562.855 324.055 561.459C323.284 560.357 321.295 560.446 320.484 561.598Z" fill="white" fill-opacity="0.05"/>
<path d="M329.535 568.397C329.348 569.642 330.26 571.139 331.173 571.051C331.427 571.027 331.932 570.416 332.32 569.663C332.882 568.586 332.894 568.176 332.328 567.617C331.196 566.499 329.754 566.944 329.535 568.397Z" fill="white" fill-opacity="0.05"/>
<path d="M340.345 556.723C339.744 557.394 340.151 558.428 341.014 558.346C341.47 558.302 342.316 558.578 342.872 559.036C343.808 559.713 343.859 559.708 343.717 558.239C343.625 557.277 343.252 556.597 342.725 556.443C341.672 556.135 340.708 556.228 340.345 556.723Z" fill="white" fill-opacity="0.05"/>
<path d="M347.627 552.035C346.939 552.868 347.188 553.867 348.325 555.036C348.719 555.407 349.943 553.755 349.86 552.894C349.719 551.425 348.549 550.975 347.627 552.035Z" fill="white" fill-opacity="0.05"/>
<path d="M339.107 544.368C338.119 545.28 338.674 547.323 339.892 547.206C340.906 547.109 341.237 545.748 340.557 544.535C340.068 543.713 339.911 543.677 339.107 544.368Z" fill="white" fill-opacity="0.05"/>
<path d="M340.351 538.675C339.586 539.771 341.155 540.643 342.836 540.021L344.223 539.53L342.862 538.69C341.233 537.722 341.025 537.69 340.351 538.675Z" fill="white" fill-opacity="0.05"/>
<path d="M171.028 581.588C170.864 582.012 171.085 582.707 171.479 583.078C172.105 583.734 172.308 583.714 173.093 582.821C173.928 581.922 173.918 581.821 173.048 581.291C171.798 580.542 171.296 580.642 171.028 581.588Z" fill="white" fill-opacity="0.05"/>
<path d="M598.196 627.134C598.225 627.438 597.945 627.721 597.539 627.76C596.474 627.862 595.916 628.989 595.903 630.985C595.897 632.519 596.074 632.758 597.038 632.665C597.647 632.606 598.326 632.746 598.548 632.929C599.216 633.478 600.659 631.448 600.537 630.181C600.469 629.472 599.905 628.401 599.279 627.746C598.653 627.09 598.162 626.78 598.196 627.134Z" fill="white" fill-opacity="0.05"/>
<path d="M54.6601 596.302C54.1458 596.811 53.1963 597.056 52.3191 596.987C50.9755 596.86 50.9296 596.916 51.4934 597.987C53.7729 602.522 55.7854 605.345 58.4888 607.897L61.5815 610.77L63.5547 609.455C66.2453 607.612 66.7296 605.725 65.0077 603.794C64.2097 602.951 63.6772 601.672 63.5603 600.457C63.4094 598.886 63.0972 598.303 62.0747 597.787C60.941 597.181 60.738 597.2 60.0958 597.978C59.4077 598.811 59.3062 598.82 58.9141 597.938C58.2801 596.67 56.8753 595.373 56.1649 595.441C55.8604 595.471 55.1793 595.843 54.6601 596.302Z" fill="white" fill-opacity="0.05"/>
</g>
<circle cx="67.1769" cy="594.5" r="7.72852" fill="#BB58F7" stroke="white" stroke-width="3.63695"/>
<circle cx="201.289" cy="568.587" r="7.72852" fill="#A57BF1" stroke="white" stroke-width="3.63695"/>
<g opacity="0.1" filter="url(#filter1_f_51_2757)">
<ellipse cx="146.963" cy="680.65" rx="333.008" ry="194.349" transform="rotate(15 146.963 680.65)" fill="#D172FD"/>
</g>
<g opacity="0.1" filter="url(#filter2_f_51_2757)">
<ellipse cx="370.038" cy="587.916" rx="333.008" ry="194.349" transform="rotate(-15 370.038 587.916)" fill="#D172FD"/>
</g>
<path d="M69.1575 596.79C68.0823 598.371 66.8768 598.591 66.4288 598.591C65.1346 598.591 64.3813 596.993 64.3517 595.779C63.9037 595.779 63.8483 594.038 64.3517 593.89C63.8223 590.683 67.7728 588.398 69.239 591.254C70.9088 591.43 70.3386 594.022 69.8906 594.945C70.585 594.945 69.8597 597.244 69.1575 596.79Z" fill="white"/>
<path d="M204.499 566.792C204.62 567.009 204.828 566.831 204.916 566.715C204.977 566.993 204.739 567.218 204.613 567.296C205.294 568.576 204.02 571.061 204.537 571.551C205.084 571.891 204.765 572.079 204.537 572.131C204.385 572.379 204.069 572.389 203.929 572.363C203.565 572.796 203.043 572.595 202.828 572.44C202.646 572.905 202.145 572.582 201.917 572.363C201.34 572.858 201.12 572.337 201.082 572.015C200.535 572.696 200.196 572.299 200.095 572.015C199.184 572.479 198.93 572.183 198.918 571.976C198.371 571.976 198.285 571.693 198.31 571.551C198.766 571.427 198.728 570.854 198.652 570.584C197.743 569.349 198.076 567.846 198.88 566.677C199.108 566.29 199.032 565.671 199.373 565.207C199.647 564.835 200.095 564.768 200.285 564.781C200.528 564.286 201.322 564.085 201.689 564.046C203.724 563.922 204.41 565.825 204.499 566.792Z" fill="#FDF9FF"/>
<path d="M217.455 728H224.991V707.168H217.455V728ZM227.911 728H235.069V714.238H235.098L246.329 728H255.435V707.168H248.278V720.755H248.249L237.047 707.168H227.911V728ZM258.342 728H265.936V722.705L269.078 720.057L275.276 728H284.499L274.316 715.663L284.441 707.168H274.897L265.994 714.791H265.936V707.168H258.342V728ZM284.534 728H292.39L293.991 724.363H304.378L306.007 728H313.892L303.738 707.168H294.922L284.534 728ZM295.474 720.086L299.199 711.852H299.257L302.923 720.086H295.474ZM327.22 728.611C334.873 728.611 339.819 725.672 339.79 721.366C339.79 717.584 336.764 715.663 329.723 714.936L325.853 714.529C323.176 714.267 322.012 713.772 322.012 712.987C322.041 711.881 324.224 711.183 327.191 711.154C330.392 711.125 333.825 712.085 336.095 713.598L338.219 709.233C335.658 707.575 331.527 706.527 327.133 706.527C319.714 706.527 314.651 709.059 314.651 713.539C314.651 717.235 317.473 719.068 324.049 719.766L327.89 720.202C331.061 720.552 332.399 721.104 332.399 722.006C332.399 723.083 330.537 723.781 327.599 723.781C323.613 723.781 319.103 722.385 316.688 720.464L314.069 724.974C316.862 727.127 322.216 728.611 327.22 728.611ZM347.666 728H355.26V712.521H363.378V707.168H339.549V712.521H347.666V728Z" fill="white"/>
</g>
<defs>
<filter id="filter0_bi_51_2757" x="21.043" y="352.464" width="719.184" height="475.131" filterUnits="userSpaceOnUse" color-interpolation-filters="sRGB">
<feFlood flood-opacity="0" result="BackgroundImageFix"/>
<feGaussianBlur in="BackgroundImage" stdDeviation="15.0548"/>
<feComposite in2="SourceAlpha" operator="in" result="effect1_backgroundBlur_51_2757"/>
<feBlend mode="normal" in="SourceGraphic" in2="effect1_backgroundBlur_51_2757" result="shape"/>
<feColorMatrix in="SourceAlpha" type="matrix" values="0 0 0 0 0 0 0 0 0 0 0 0 0 0 0 0 0 0 127 0" result="hardAlpha"/>
<feOffset dx="-7.02558" dy="-8.53106"/>
<feGaussianBlur stdDeviation="12.7966"/>
<feComposite in2="hardAlpha" operator="arithmetic" k2="-1" k3="1"/>
<feColorMatrix type="matrix" values="0 0 0 0 1 0 0 0 0 1 0 0 0 0 1 0 0 0 0.2 0"/>
<feBlend mode="normal" in2="shape" result="effect2_innerShadow_51_2757"/>
</filter>
<filter id="filter1_f_51_2757" x="-295.037" y="357.651" width="883.999" height="645.999" filterUnits="userSpaceOnUse" color-interpolation-filters="sRGB">
<feFlood flood-opacity="0" result="BackgroundImageFix"/>
<feBlend mode="normal" in="SourceGraphic" in2="BackgroundImageFix" result="shape"/>
<feGaussianBlur stdDeviation="58.1912" result="effect1_foregroundBlur_51_2757"/>
</filter>
<filter id="filter2_f_51_2757" x="-71.9622" y="264.916" width="883.999" height="645.999" filterUnits="userSpaceOnUse" color-interpolation-filters="sRGB">
<feFlood flood-opacity="0" result="BackgroundImageFix"/>
<feBlend mode="normal" in="SourceGraphic" in2="BackgroundImageFix" result="shape"/>
<feGaussianBlur stdDeviation="58.1912" result="effect1_foregroundBlur_51_2757"/>
</filter>
<linearGradient id="paint0_linear_51_2757" x1="-34.5398" y1="-12.6072" x2="647.922" y2="-78.1968" gradientUnits="userSpaceOnUse">
<stop stop-color="#BF47F8"/>
<stop offset="1" stop-color="#47F8D8"/>
</linearGradient>
<clipPath id="clip0_51_2757">
<rect width="375" height="812" fill="white"/>
</clipPath>
</defs>
</svg>
