<svg width="375" height="812" viewBox="0 0 375 812" fill="none" xmlns="http://www.w3.org/2000/svg">
<g clip-path="url(#clip0_53_2668)">
<g opacity="0.1" filter="url(#filter0_f_53_2668)">
<ellipse cx="97" cy="536" rx="392" ry="203" fill="#D172FD"/>
</g>
<path d="M333.97 209.717C334.303 208.315 334.631 206.967 334.873 205.959" stroke="url(#paint0_linear_53_2668)" stroke-width="0.854717" stroke-miterlimit="10"/>
<path d="M335.009 187.471C330.867 186.825 329.724 186.363 327.485 186.363C324.684 186.363 314.926 188.984 308.599 189.978C302.271 190.973 305.519 196.303 309.223 196.936C312.926 197.568 324.226 195.58 327.568 195.58C327.972 195.58 328.365 195.58 328.741 195.62" stroke="url(#paint1_linear_53_2668)" stroke-width="0.854717" stroke-miterlimit="10"/>
<path d="M330.947 219.515C329.636 221.292 327.599 222.822 325.106 222.21C322.157 221.483 322.363 218.506 323.095 215.252" stroke="url(#paint2_linear_53_2668)" stroke-width="0.854717" stroke-miterlimit="10"/>
<path d="M325.4 204.802C325.497 204.292 325.599 203.751 325.71 203.172C326.505 198.973 327.488 197.189 328.75 195.62C329.32 194.907 329.95 194.241 330.645 193.412C332.245 191.543 333.703 189.557 335.007 187.471C335.229 187.127 335.46 186.759 335.708 186.363C339.75 179.896 345.827 176.785 356.671 188.169" stroke="url(#paint3_linear_53_2668)" stroke-width="0.854717" stroke-miterlimit="10"/>
<path d="M314.382 209.227C314.667 205.078 320.596 206.947 321.975 207.6C323.468 208.315 324.038 210.58 322.328 212.389C320.619 214.198 314.203 211.848 314.382 209.227Z" stroke="url(#paint4_linear_53_2668)" stroke-width="0.854717" stroke-miterlimit="10"/>
<path d="M341.548 209.634C339.43 208.787 337.411 207.711 335.528 206.423C335.3 206.269 335.081 206.113 334.873 205.956C327.542 200.454 333.306 194.01 337.699 189.617C342.215 185.098 348.904 180.215 356.674 188.169C364.443 196.124 404.749 237.871 404.749 237.871" stroke="url(#paint5_linear_53_2668)" stroke-width="0.854717" stroke-miterlimit="10"/>
<path d="M346.785 204.107C350.634 197.936 347.639 195.605 345.289 195.942C343.107 196.255 341.585 200.597 346.785 204.107ZM346.785 204.107C346.505 204.557 346.187 205.032 345.83 205.531C344.406 207.5 342.981 208.839 341.557 209.645C339.166 210.987 336.699 210.865 333.978 209.728C332.101 208.889 330.321 207.846 328.67 206.62C327.658 205.891 326.563 205.286 325.408 204.816C319.901 202.6 315.331 204.802 314.582 206.62C313.679 208.788 313.679 211.862 319.995 213.848C321.072 214.228 322.112 214.705 323.103 215.272C325.277 216.443 327.901 218.059 330.955 219.546C337.73 222.82 346.625 225.401 357.406 220.914C364.634 227.962 381.623 248.928 381.623 248.928L404.224 274.679" stroke="url(#paint6_linear_53_2668)" stroke-width="0.854717" stroke-miterlimit="10"/>
<path d="M48.366 206.369C46.8873 214.062 45.7021 220.999 51.215 222.124C55.2037 222.939 54.1695 219.204 55.0299 211.868" stroke="url(#paint7_linear_53_2668)" stroke-width="0.854717" stroke-miterlimit="10"/>
<path d="M39.9327 193.762C41.8699 195.094 43.6304 196.666 45.1721 198.44" stroke="url(#paint8_linear_53_2668)" stroke-width="0.854717" stroke-miterlimit="10"/>
<path d="M23.1233 210.349C20.619 210.44 17.8725 211.583 12.8382 215.691C5.89217 221.361 -6.93144 232.555 -6.93144 232.555C-12.5612 237.509 -14.7322 238.774 -14.7322 238.774" stroke="url(#paint9_linear_53_2668)" stroke-width="0.854717" stroke-miterlimit="10"/>
<path d="M49.9586 186.195C55.2009 186.152 59.8619 189.563 63.6626 188.346C67.8877 186.993 68.4347 183.218 64.9532 182.466C61.4716 181.713 54.5598 178.594 52.0014 178.451C49.6737 178.32 48.6879 179.021 43.7818 179.591" stroke="url(#paint10_linear_53_2668)" stroke-width="0.854717" stroke-miterlimit="10"/>
<path d="M18.0263 205.637C18.0263 205.637 19.4509 208.201 23.1204 210.349C24.9813 211.428 27.0003 212.208 29.1035 212.66C37.3002 214.48 42.2547 208.734 45.8587 207.133C46.6638 206.795 47.5009 206.539 48.3574 206.369C49.232 206.181 50.1295 206.033 51.0155 205.842C52.6281 205.497 54.2008 205.007 55.5114 203.87" stroke="url(#paint11_linear_53_2668)" stroke-width="0.854717" stroke-miterlimit="10"/>
<path d="M48.5941 196.688C47.423 197.208 46.2816 197.793 45.1753 198.44C44.1202 199.081 43.0104 199.627 41.859 200.073C38.725 201.118 31.8474 199.637 32.742 195.922C33.3118 193.551 36.5369 193.34 39.9472 193.762C41.8015 194.015 43.6415 194.363 45.4602 194.805C46.4203 195.024 47.483 195.722 48.5941 196.688C50.2124 196.007 51.9048 195.6 53.6056 195.922C57.9362 196.745 58.8735 198.745 57.1356 201.856C56.7192 202.617 56.1724 203.299 55.5202 203.87" stroke="url(#paint12_linear_53_2668)" stroke-width="0.854717" stroke-miterlimit="10"/>
<path d="M-13.6151 211.44C-13.6151 211.44 20.8186 186.411 28.135 179.693C35.4514 172.975 39.5996 175.662 42.2492 178.064C42.5655 178.349 43.1039 178.881 43.7906 179.602C45.2721 181.132 47.4943 183.514 49.9645 186.195L50.7451 187.05" stroke="url(#paint13_radial_53_2668)" stroke-width="0.854717" stroke-miterlimit="10"/>
<path d="M57.1641 194.004C61.0103 198.184 64.4177 201.87 65.6884 203.121C67.9363 205.358 65.9733 209.306 61.1299 208.033C60.6654 207.902 60.22 207.71 59.8052 207.463" stroke="url(#paint14_linear_53_2668)" stroke-width="0.854717" stroke-miterlimit="10"/>
<path d="M51.0243 205.842C51.0612 207.497 51.7168 209.079 52.862 210.275C53.4794 210.932 54.2137 211.468 55.0273 211.856C57.902 213.21 60.6257 211.814 60.1556 209.577C60.0501 209.093 59.939 208.366 59.8108 207.474C59.2923 203.919 58.523 197.751 57.1726 193.993C56.9505 193.338 56.6642 192.708 56.3179 192.11C55.2922 190.4 53.2238 188.719 50.7565 187.03C50.352 186.752 49.937 186.475 49.5115 186.198C46.7451 184.386 43.6367 182.574 40.9643 180.742C35.3944 176.921 32.5767 175.87 28.1436 179.685" stroke="url(#paint15_linear_53_2668)" stroke-width="0.854717" stroke-miterlimit="10"/>
<path d="M57.7679 198.383C57.1298 194.91 47.1808 196.887 49.0641 201.5C50.9473 206.113 58.446 202.064 57.7679 198.383Z" stroke="url(#paint16_radial_53_2668)" stroke-width="0.854717" stroke-miterlimit="10"/>
<path d="M58.5256 179.856C58.5256 179.856 59.6652 175.97 62.7137 175.759C65.7622 175.548 63.3148 180.639 58.5256 179.856Z" stroke="#E22D69" stroke-width="0.854717" stroke-miterlimit="10"/>
<path d="M316.146 188.035C316.146 188.035 312.035 173.531 300.285 169.012C288.536 164.494 279.202 177.018 285.105 190.34C294.322 211.124 286.732 229.372 264.863 226.486C244.797 223.834 242.452 199.919 218.594 197.568C194.736 195.218 186.064 207.688 157.146 221.438C128.228 235.187 104.723 237.703 100.575 214.207C96.4267 190.711 114.854 175.175 126.422 178.061C137.989 180.947 136.724 196.494 122.627 198.483C108.529 200.471 96.6004 178.061 83.4065 166.314C70.2125 154.568 63.8876 160.901 61.1838 167.397C59.5316 171.477 58.6144 175.818 58.4744 180.218C58.4744 180.218 53.9672 177.255 52.3745 174.388C51.4714 172.762 52.007 171.234 52.8703 170.639C53.7335 170.044 55.4914 170.414 56.5313 172.086C58.2407 174.858 58.4744 180.218 58.4744 180.218" stroke="#E22D69" stroke-width="0.854717" stroke-linecap="round" stroke-linejoin="round"/>
<path d="M316.491 188.275C316.1 185.924 315.559 183.124 316.462 178.334C316.929 175.85 319.263 174.448 320.981 175.081C322.525 175.651 322.975 178.471 322.155 180.494C320.925 183.506 318.981 186.173 316.491 188.266L317.516 197.303" stroke="#E22D69" stroke-width="0.854717" stroke-miterlimit="10" stroke-linecap="round"/>
<path d="M316.146 188.035C316.146 188.035 314.881 183.477 313.026 181.844C311.171 180.212 309.593 180.135 308.827 180.99C308.114 181.785 308.448 183.956 310.166 185.372C311.325 186.326 316.146 188.035 316.146 188.035Z" stroke="#E22D69" stroke-width="0.854717" stroke-miterlimit="10"/>
<path d="M58.4202 179.722L56.3746 188.05" stroke="#E22D69" stroke-width="0.854717" stroke-miterlimit="10" stroke-linecap="round"/>
</g>
<defs>
<filter id="filter0_f_53_2668" x="-551" y="77" width="1296" height="918" filterUnits="userSpaceOnUse" color-interpolation-filters="sRGB">
<feFlood flood-opacity="0" result="BackgroundImageFix"/>
<feBlend mode="normal" in="SourceGraphic" in2="BackgroundImageFix" result="shape"/>
<feGaussianBlur stdDeviation="128" result="effect1_foregroundBlur_53_2668"/>
</filter>
<linearGradient id="paint0_linear_53_2668" x1="335.289" y1="207.785" x2="333.542" y2="207.785" gradientUnits="userSpaceOnUse">
<stop stop-color="#47F8D8"/>
<stop offset="1" stop-color="#7FA5E7"/>
</linearGradient>
<linearGradient id="paint1_linear_53_2668" x1="335.075" y1="191.711" x2="304.593" y2="191.711" gradientUnits="userSpaceOnUse">
<stop stop-color="#47F8D8"/>
<stop offset="1" stop-color="#7FA5E7"/>
</linearGradient>
<linearGradient id="paint2_linear_53_2668" x1="331.292" y1="219.013" x2="322.203" y2="219.013" gradientUnits="userSpaceOnUse">
<stop stop-color="#47F8D8"/>
<stop offset="1" stop-color="#7FA5E7"/>
</linearGradient>
<linearGradient id="paint3_linear_53_2668" x1="356.984" y1="192.508" x2="324.981" y2="192.508" gradientUnits="userSpaceOnUse">
<stop stop-color="#47F8D8"/>
<stop offset="1" stop-color="#7FA5E7"/>
</linearGradient>
<linearGradient id="paint4_linear_53_2668" x1="323.815" y1="209.819" x2="313.952" y2="209.819" gradientUnits="userSpaceOnUse">
<stop stop-color="#47F8D8"/>
<stop offset="1" stop-color="#7FA5E7"/>
</linearGradient>
<linearGradient id="paint5_linear_53_2668" x1="405.056" y1="210.839" x2="330.941" y2="210.839" gradientUnits="userSpaceOnUse">
<stop stop-color="#47F8D8"/>
<stop offset="1" stop-color="#7FA5E7"/>
</linearGradient>
<linearGradient id="paint6_linear_53_2668" x1="381.948" y1="222.324" x2="313.71" y2="222.324" gradientUnits="userSpaceOnUse">
<stop stop-color="#47F8D8"/>
<stop offset="1" stop-color="#7FA5E7"/>
</linearGradient>
<linearGradient id="paint7_linear_53_2668" x1="55.6851" y1="213.907" x2="46.6416" y2="212.154" gradientUnits="userSpaceOnUse">
<stop stop-color="#47F8D8"/>
<stop offset="1" stop-color="#7FA5E7"/>
</linearGradient>
<linearGradient id="paint8_linear_53_2668" x1="45.971" y1="195.007" x2="39.8117" y2="193.813" gradientUnits="userSpaceOnUse">
<stop stop-color="#47F8D8"/>
<stop offset="1" stop-color="#7FA5E7"/>
</linearGradient>
<linearGradient id="paint9_linear_53_2668" x1="20.0853" y1="225.703" x2="-11.5266" y2="219.574" gradientUnits="userSpaceOnUse">
<stop stop-color="#47F8D8"/>
<stop offset="1" stop-color="#7FA5E7"/>
</linearGradient>
<linearGradient id="paint10_linear_53_2668" x1="67.7562" y1="184.042" x2="43.6466" y2="179.367" gradientUnits="userSpaceOnUse">
<stop stop-color="#47F8D8"/>
<stop offset="1" stop-color="#7FA5E7"/>
</linearGradient>
<linearGradient id="paint11_linear_53_2668" x1="54.693" y1="209.028" x2="18.2704" y2="201.966" gradientUnits="userSpaceOnUse">
<stop stop-color="#47F8D8"/>
<stop offset="1" stop-color="#7FA5E7"/>
</linearGradient>
<linearGradient id="paint12_linear_53_2668" x1="58.3773" y1="198.887" x2="32.573" y2="193.884" gradientUnits="userSpaceOnUse">
<stop stop-color="#47F8D8"/>
<stop offset="1" stop-color="#7FA5E7"/>
</linearGradient>
<radialGradient id="paint13_radial_53_2668" cx="0" cy="0" r="1" gradientUnits="userSpaceOnUse" gradientTransform="translate(19.712 193.082) rotate(-169.028) scale(26.4271)">
<stop stop-color="#47F8D8"/>
<stop offset="1" stop-color="#7FA5E7"/>
</radialGradient>
<linearGradient id="paint14_linear_53_2668" x1="67.7378" y1="201.052" x2="55.6901" y2="198.716" gradientUnits="userSpaceOnUse">
<stop stop-color="#47F8D8"/>
<stop offset="1" stop-color="#7FA5E7"/>
</linearGradient>
<linearGradient id="paint15_linear_53_2668" x1="63.0987" y1="196.589" x2="25.8776" y2="189.373" gradientUnits="userSpaceOnUse">
<stop stop-color="#47F8D8"/>
<stop offset="1" stop-color="#7FA5E7"/>
</linearGradient>
<radialGradient id="paint16_radial_53_2668" cx="0" cy="0" r="1" gradientUnits="userSpaceOnUse" gradientTransform="translate(53.4085 198.41) rotate(-169.028) scale(4.45382)">
<stop stop-color="#47F8D8"/>
<stop offset="1" stop-color="#7FA5E7"/>
</radialGradient>
<clipPath id="clip0_53_2668">
<rect width="375" height="812" fill="white"/>
</clipPath>
</defs>
</svg>
