<svg width="375" height="812" viewBox="0 0 375 812" fill="none" xmlns="http://www.w3.org/2000/svg">
<g clip-path="url(#clip0_53_2699)">
<g opacity="0.1" filter="url(#filter0_f_53_2699)">
<ellipse cx="97" cy="536" rx="392" ry="203" fill="#D172FD"/>
</g>
<path d="M333.97 140.717C334.303 139.315 334.631 137.967 334.873 136.959" stroke="url(#paint0_linear_53_2699)" stroke-width="0.854717" stroke-miterlimit="10"/>
<path d="M335.009 118.471C330.867 117.825 329.724 117.363 327.485 117.363C324.684 117.363 314.926 119.984 308.599 120.978C302.271 121.973 305.519 127.303 309.223 127.936C312.926 128.568 324.226 126.58 327.568 126.58C327.972 126.58 328.365 126.58 328.741 126.62" stroke="url(#paint1_linear_53_2699)" stroke-width="0.854717" stroke-miterlimit="10"/>
<path d="M330.947 150.515C329.636 152.292 327.599 153.822 325.106 153.21C322.157 152.483 322.363 149.506 323.095 146.252" stroke="url(#paint2_linear_53_2699)" stroke-width="0.854717" stroke-miterlimit="10"/>
<path d="M325.4 135.802C325.497 135.292 325.599 134.751 325.71 134.172C326.505 129.973 327.488 128.189 328.75 126.62C329.32 125.907 329.95 125.241 330.645 124.412C332.245 122.543 333.703 120.557 335.007 118.471C335.229 118.127 335.46 117.759 335.708 117.363C339.75 110.896 345.827 107.785 356.671 119.169" stroke="url(#paint3_linear_53_2699)" stroke-width="0.854717" stroke-miterlimit="10"/>
<path d="M314.382 140.227C314.667 136.078 320.596 137.947 321.975 138.6C323.468 139.315 324.038 141.58 322.328 143.389C320.619 145.198 314.203 142.848 314.382 140.227Z" stroke="url(#paint4_linear_53_2699)" stroke-width="0.854717" stroke-miterlimit="10"/>
<path d="M341.548 140.634C339.43 139.787 337.411 138.711 335.528 137.423C335.3 137.269 335.081 137.113 334.873 136.956C327.542 131.454 333.306 125.01 337.699 120.617C342.215 116.098 348.904 111.215 356.674 119.169C364.443 127.124 404.749 168.871 404.749 168.871" stroke="url(#paint5_linear_53_2699)" stroke-width="0.854717" stroke-miterlimit="10"/>
<path d="M346.785 135.107C350.634 128.936 347.639 126.605 345.289 126.942C343.107 127.255 341.585 131.597 346.785 135.107ZM346.785 135.107C346.505 135.557 346.187 136.032 345.83 136.531C344.406 138.5 342.981 139.839 341.557 140.645C339.166 141.987 336.699 141.865 333.978 140.728C332.101 139.889 330.321 138.846 328.67 137.62C327.658 136.891 326.563 136.286 325.408 135.816C319.901 133.6 315.331 135.802 314.582 137.62C313.679 139.788 313.679 142.862 319.995 144.848C321.072 145.228 322.112 145.705 323.103 146.272C325.277 147.443 327.901 149.059 330.955 150.546C337.73 153.82 346.625 156.401 357.406 151.914C364.634 158.962 381.623 179.928 381.623 179.928L404.224 205.679" stroke="url(#paint6_linear_53_2699)" stroke-width="0.854717" stroke-miterlimit="10"/>
<path d="M48.366 137.369C46.8873 145.062 45.7021 151.999 51.215 153.124C55.2037 153.939 54.1695 150.204 55.0299 142.868" stroke="url(#paint7_linear_53_2699)" stroke-width="0.854717" stroke-miterlimit="10"/>
<path d="M39.9329 124.762C41.87 126.094 43.6305 127.666 45.1722 129.44" stroke="url(#paint8_linear_53_2699)" stroke-width="0.854717" stroke-miterlimit="10"/>
<path d="M23.1233 141.349C20.619 141.44 17.8725 142.583 12.8382 146.691C5.89217 152.361 -6.93144 163.555 -6.93144 163.555C-12.5612 168.509 -14.7322 169.774 -14.7322 169.774" stroke="url(#paint9_linear_53_2699)" stroke-width="0.854717" stroke-miterlimit="10"/>
<path d="M49.9586 117.195C55.2009 117.152 59.8619 120.563 63.6626 119.346C67.8877 117.993 68.4347 114.218 64.9532 113.466C61.4716 112.713 54.5598 109.594 52.0014 109.451C49.6737 109.32 48.6879 110.021 43.7818 110.591" stroke="url(#paint10_linear_53_2699)" stroke-width="0.854717" stroke-miterlimit="10"/>
<path d="M18.0263 136.637C18.0263 136.637 19.4509 139.201 23.1204 141.349C24.9813 142.428 27.0003 143.208 29.1035 143.66C37.3002 145.48 42.2547 139.734 45.8587 138.133C46.6638 137.795 47.5009 137.539 48.3574 137.369C49.232 137.181 50.1295 137.033 51.0155 136.842C52.6281 136.497 54.2008 136.007 55.5114 134.87" stroke="url(#paint11_linear_53_2699)" stroke-width="0.854717" stroke-miterlimit="10"/>
<path d="M48.5941 127.688C47.423 128.208 46.2816 128.793 45.1753 129.44C44.1202 130.081 43.0104 130.627 41.859 131.073C38.725 132.118 31.8474 130.637 32.742 126.922C33.3118 124.551 36.5369 124.34 39.9472 124.762C41.8015 125.015 43.6415 125.363 45.4602 125.805C46.4203 126.024 47.483 126.722 48.5941 127.688C50.2124 127.007 51.9048 126.6 53.6056 126.922C57.9362 127.745 58.8735 129.745 57.1356 132.856C56.7192 133.617 56.1724 134.299 55.5202 134.87" stroke="url(#paint12_linear_53_2699)" stroke-width="0.854717" stroke-miterlimit="10"/>
<path d="M-13.6151 142.44C-13.6151 142.44 20.8186 117.411 28.135 110.693C35.4514 103.975 39.5996 106.662 42.2492 109.064C42.5655 109.349 43.1039 109.881 43.7906 110.602C45.2721 112.132 47.4943 114.514 49.9645 117.195L50.7451 118.05" stroke="url(#paint13_radial_53_2699)" stroke-width="0.854717" stroke-miterlimit="10"/>
<path d="M57.1641 125.004C61.0103 129.184 64.4177 132.87 65.6884 134.121C67.9363 136.358 65.9733 140.306 61.1299 139.033C60.6654 138.902 60.22 138.71 59.8052 138.463" stroke="url(#paint14_linear_53_2699)" stroke-width="0.854717" stroke-miterlimit="10"/>
<path d="M51.0243 136.842C51.0612 138.497 51.7168 140.079 52.862 141.275C53.4794 141.932 54.2137 142.468 55.0273 142.856C57.902 144.21 60.6257 142.814 60.1556 140.577C60.0501 140.093 59.939 139.366 59.8108 138.474C59.2923 134.919 58.523 128.751 57.1726 124.993C56.9505 124.338 56.6642 123.708 56.3179 123.11C55.2922 121.4 53.2238 119.719 50.7565 118.03C50.352 117.752 49.937 117.475 49.5115 117.198C46.7451 115.386 43.6367 113.574 40.9643 111.742C35.3944 107.921 32.5767 106.87 28.1436 110.685" stroke="url(#paint15_linear_53_2699)" stroke-width="0.854717" stroke-miterlimit="10"/>
<path d="M57.7679 129.383C57.1298 125.91 47.1808 127.887 49.0641 132.5C50.9473 137.113 58.446 133.064 57.7679 129.383Z" stroke="url(#paint16_radial_53_2699)" stroke-width="0.854717" stroke-miterlimit="10"/>
<path d="M58.5256 110.856C58.5256 110.856 59.6652 106.97 62.7137 106.759C65.7622 106.548 63.3148 111.639 58.5256 110.856Z" stroke="#E22D69" stroke-width="0.854717" stroke-miterlimit="10"/>
<path d="M316.146 119.035C316.146 119.035 312.035 104.531 300.285 100.012C288.536 95.4936 279.202 108.018 285.105 121.34C294.322 142.124 286.732 160.372 264.863 157.486C244.797 154.834 242.452 130.919 218.594 128.568C194.736 126.218 186.064 138.688 157.146 152.438C128.228 166.187 104.723 168.703 100.575 145.207C96.4267 121.711 114.854 106.175 126.422 109.061C137.989 111.947 136.724 127.494 122.627 129.483C108.529 131.471 96.6004 109.061 83.4065 97.3142C70.2125 85.5675 63.8876 91.901 61.1838 98.3968C59.5316 102.477 58.6144 106.818 58.4744 111.218C58.4744 111.218 53.9672 108.255 52.3745 105.388C51.4714 103.762 52.007 102.234 52.8703 101.639C53.7335 101.044 55.4914 101.414 56.5313 103.086C58.2407 105.858 58.4744 111.218 58.4744 111.218" stroke="#E22D69" stroke-width="0.854717" stroke-linecap="round" stroke-linejoin="round"/>
<path d="M316.491 119.275C316.1 116.924 315.559 114.124 316.462 109.334C316.929 106.85 319.263 105.448 320.981 106.081C322.525 106.651 322.975 109.471 322.155 111.494C320.925 114.506 318.981 117.173 316.491 119.266L317.516 128.303" stroke="#E22D69" stroke-width="0.854717" stroke-miterlimit="10" stroke-linecap="round"/>
<path d="M316.146 119.035C316.146 119.035 314.881 114.477 313.026 112.844C311.171 111.212 309.593 111.135 308.827 111.99C308.114 112.785 308.448 114.956 310.166 116.372C311.325 117.326 316.146 119.035 316.146 119.035Z" stroke="#E22D69" stroke-width="0.854717" stroke-miterlimit="10"/>
<path d="M58.4202 110.722L56.3746 119.05" stroke="#E22D69" stroke-width="0.854717" stroke-miterlimit="10" stroke-linecap="round"/>
</g>
<defs>
<filter id="filter0_f_53_2699" x="-551" y="77" width="1296" height="918" filterUnits="userSpaceOnUse" color-interpolation-filters="sRGB">
<feFlood flood-opacity="0" result="BackgroundImageFix"/>
<feBlend mode="normal" in="SourceGraphic" in2="BackgroundImageFix" result="shape"/>
<feGaussianBlur stdDeviation="128" result="effect1_foregroundBlur_53_2699"/>
</filter>
<linearGradient id="paint0_linear_53_2699" x1="335.289" y1="138.785" x2="333.542" y2="138.785" gradientUnits="userSpaceOnUse">
<stop stop-color="#47F8D8"/>
<stop offset="1" stop-color="#7FA5E7"/>
</linearGradient>
<linearGradient id="paint1_linear_53_2699" x1="335.075" y1="122.711" x2="304.593" y2="122.711" gradientUnits="userSpaceOnUse">
<stop stop-color="#47F8D8"/>
<stop offset="1" stop-color="#7FA5E7"/>
</linearGradient>
<linearGradient id="paint2_linear_53_2699" x1="331.292" y1="150.013" x2="322.203" y2="150.013" gradientUnits="userSpaceOnUse">
<stop stop-color="#47F8D8"/>
<stop offset="1" stop-color="#7FA5E7"/>
</linearGradient>
<linearGradient id="paint3_linear_53_2699" x1="356.984" y1="123.508" x2="324.981" y2="123.508" gradientUnits="userSpaceOnUse">
<stop stop-color="#47F8D8"/>
<stop offset="1" stop-color="#7FA5E7"/>
</linearGradient>
<linearGradient id="paint4_linear_53_2699" x1="323.815" y1="140.819" x2="313.952" y2="140.819" gradientUnits="userSpaceOnUse">
<stop stop-color="#47F8D8"/>
<stop offset="1" stop-color="#7FA5E7"/>
</linearGradient>
<linearGradient id="paint5_linear_53_2699" x1="405.056" y1="141.839" x2="330.941" y2="141.839" gradientUnits="userSpaceOnUse">
<stop stop-color="#47F8D8"/>
<stop offset="1" stop-color="#7FA5E7"/>
</linearGradient>
<linearGradient id="paint6_linear_53_2699" x1="381.948" y1="153.324" x2="313.71" y2="153.324" gradientUnits="userSpaceOnUse">
<stop stop-color="#47F8D8"/>
<stop offset="1" stop-color="#7FA5E7"/>
</linearGradient>
<linearGradient id="paint7_linear_53_2699" x1="55.6851" y1="144.907" x2="46.6416" y2="143.154" gradientUnits="userSpaceOnUse">
<stop stop-color="#47F8D8"/>
<stop offset="1" stop-color="#7FA5E7"/>
</linearGradient>
<linearGradient id="paint8_linear_53_2699" x1="45.9711" y1="126.007" x2="39.8118" y2="124.813" gradientUnits="userSpaceOnUse">
<stop stop-color="#47F8D8"/>
<stop offset="1" stop-color="#7FA5E7"/>
</linearGradient>
<linearGradient id="paint9_linear_53_2699" x1="20.0853" y1="156.703" x2="-11.5266" y2="150.574" gradientUnits="userSpaceOnUse">
<stop stop-color="#47F8D8"/>
<stop offset="1" stop-color="#7FA5E7"/>
</linearGradient>
<linearGradient id="paint10_linear_53_2699" x1="67.7562" y1="115.042" x2="43.6466" y2="110.367" gradientUnits="userSpaceOnUse">
<stop stop-color="#47F8D8"/>
<stop offset="1" stop-color="#7FA5E7"/>
</linearGradient>
<linearGradient id="paint11_linear_53_2699" x1="54.693" y1="140.028" x2="18.2704" y2="132.966" gradientUnits="userSpaceOnUse">
<stop stop-color="#47F8D8"/>
<stop offset="1" stop-color="#7FA5E7"/>
</linearGradient>
<linearGradient id="paint12_linear_53_2699" x1="58.3773" y1="129.887" x2="32.573" y2="124.884" gradientUnits="userSpaceOnUse">
<stop stop-color="#47F8D8"/>
<stop offset="1" stop-color="#7FA5E7"/>
</linearGradient>
<radialGradient id="paint13_radial_53_2699" cx="0" cy="0" r="1" gradientUnits="userSpaceOnUse" gradientTransform="translate(19.712 124.082) rotate(-169.028) scale(26.4271)">
<stop stop-color="#47F8D8"/>
<stop offset="1" stop-color="#7FA5E7"/>
</radialGradient>
<linearGradient id="paint14_linear_53_2699" x1="67.7378" y1="132.052" x2="55.6901" y2="129.716" gradientUnits="userSpaceOnUse">
<stop stop-color="#47F8D8"/>
<stop offset="1" stop-color="#7FA5E7"/>
</linearGradient>
<linearGradient id="paint15_linear_53_2699" x1="63.0987" y1="127.589" x2="25.8776" y2="120.373" gradientUnits="userSpaceOnUse">
<stop stop-color="#47F8D8"/>
<stop offset="1" stop-color="#7FA5E7"/>
</linearGradient>
<radialGradient id="paint16_radial_53_2699" cx="0" cy="0" r="1" gradientUnits="userSpaceOnUse" gradientTransform="translate(53.4085 129.41) rotate(-169.028) scale(4.45382)">
<stop stop-color="#47F8D8"/>
<stop offset="1" stop-color="#7FA5E7"/>
</radialGradient>
<clipPath id="clip0_53_2699">
<rect width="375" height="812" fill="white"/>
</clipPath>
</defs>
</svg>
