<svg width="160" height="180" viewBox="0 0 160 180" fill="none" xmlns="http://www.w3.org/2000/svg">
<rect y="0.00012207" width="160" height="180" rx="80" fill="#111111"/>
<g clip-path="url(#clip0_965_11678)">
<path d="M133.434 86.5925L134.86 82.0568L130.143 82.2038C129.745 82.2038 126.849 82.122 124.039 80.0972C124.248 80.1176 124.458 80.1463 124.671 80.1463C127.563 80.1463 130.361 78.4151 131.483 75.9414L133.512 71.4712C130.969 71.5037 128.644 71.1852 128.644 71.1852C128.623 71.1814 126.791 70.9485 124.671 68.7971C123.151 67.2541 121.27 66.4377 119.232 66.4377C118.341 66.4377 117.544 66.5967 116.857 66.8131C116.964 66.4498 117.067 66.0824 117.124 65.7028C117.774 61.5183 115.062 58.3259 115.062 58.3299L111.517 53.9658L109.319 59.0933C109.311 59.1096 108.756 60.3098 107.762 60.8977C107.462 59.3913 106.727 57.6971 105.153 56.0765C102.187 53.0228 98.5758 52.5696 96.6863 52.5696C95.8113 52.5696 95.1868 52.6635 95.0346 52.688L90.7539 53.5248C91.0006 52.5736 91.5264 50.9203 92.4877 49.4303L94.85 45.7725L88.9051 46.446L87.0113 42.4493L83.3468 44.3272L79.9576 41L76.5766 44.3272L72.8996 42.4493L71.0098 46.446L65.0694 45.7725L67.4358 49.4303C68.3971 50.9203 68.9229 52.5696 69.1653 53.5209L65.082 52.7208L64.9421 52.6962C64.7366 52.6635 64.1164 52.5696 63.2372 52.5696C61.3476 52.5696 57.7364 53.0268 54.7783 56.0765C53.2008 57.6931 52.4655 59.3913 52.1615 60.8977C51.1755 60.318 50.6249 59.1342 50.6249 59.1342L48.4231 53.978L44.82 58.3706C44.3806 58.9382 42.2074 61.9388 42.7988 65.7108C42.8605 66.0865 42.9592 66.454 43.066 66.8173C42.384 66.6009 41.587 66.4415 40.6955 66.4415C38.6579 66.4415 36.7762 67.2581 35.2522 68.8011C33.1404 70.9446 31.3164 71.1852 31.333 71.1852C31.333 71.1852 29.4061 71.5283 26.4235 71.4752L28.4408 75.9455C29.5622 78.4234 32.3641 80.1503 35.2522 80.1503C35.4698 80.1503 35.6793 80.1219 35.893 80.1013C33.0911 82.1263 30.195 82.208 29.8458 82.2119L25.0391 82.0568L26.4934 86.5884C27.2247 88.9235 29.6691 92.7937 34.3524 93.21C33.843 95.3329 32.7133 97.7089 30.232 98.7334L26.6538 100.199L28.6051 103.575C29.706 105.396 32.2903 107.527 35.9711 107.527C36.768 107.523 37.5361 107.445 38.2759 107.29C38.4648 108.123 38.703 108.956 38.9823 109.78C40.0793 113.022 39.1343 115.284 39.1222 115.308L37.3555 118.986L41.2994 120.019C41.3486 120.035 42.54 120.358 44.0312 120.358C44.7092 120.358 45.3542 120.289 45.9623 120.146C46.4223 120.04 46.8619 119.897 47.285 119.725C47.7944 120.636 48.4148 121.464 49.138 122.207C51.6644 124.783 55.2427 126.09 59.7781 126.09H59.7945L63.0319 126.049L56.3437 128.808L61.4215 131.246C63.2658 132.14 65.4558 133.197 67.6822 134.005L67.0496 135.728L68.7998 136.52C68.9558 136.59 72.3204 138.088 77.9158 138.406C77.9158 138.406 79.2673 138.467 80.0111 138.467C80.7546 138.467 82.0898 138.402 82.0898 138.402C87.6481 138.076 90.9881 136.594 91.1443 136.52L92.8984 135.724L92.2576 133.997C94.55 133.164 96.8176 132.066 98.5841 131.209L103.567 128.804L96.8998 126.041L100.15 126.081C104.689 126.081 108.271 124.775 110.794 122.195C111.513 121.456 112.133 120.627 112.647 119.717C113.07 119.889 113.513 120.031 113.974 120.137C114.577 120.28 115.222 120.35 115.9 120.35C117.367 120.35 118.571 120.027 118.604 120.019L122.564 118.978L120.838 115.369C120.797 115.275 119.852 113.018 120.949 109.772C121.229 108.943 121.463 108.111 121.652 107.282C122.395 107.437 123.172 107.519 123.973 107.519C128.66 107.519 130.908 104.241 131.343 103.53L133.274 100.191L129.696 98.7294C127.21 97.7047 126.085 95.3247 125.579 93.2058C130.197 92.814 132.678 88.9439 133.434 86.5925ZM69.4777 55.0843L69.4283 55.0967L69.4692 55.0436L69.4777 55.0843Z" fill="white"/>
<path d="M79.9619 54.8843C76.1739 54.8883 73.3351 56.1212 72.7148 57.5705L79.9619 60.4118L87.2088 57.5705C86.5926 56.1212 83.7538 54.8883 79.9619 54.8843Z" fill="white"/>
<path d="M80.0339 130.103H80.0259H79.9641H79.8945H79.8902C77.5938 130.119 74.4344 129.65 72.9102 129.208L71.0781 134.136C72.2859 134.565 76.3777 135.381 79.9641 135.381C83.5422 135.381 87.6383 134.561 88.842 134.136L87.014 129.208C85.4855 129.653 82.3304 130.119 80.0339 130.103Z" fill="white"/>
<path d="M93.9014 125.204C92.5374 125.971 89.4934 127.123 87.7227 127.658L89.2098 131.728C91.9501 130.985 94.2096 130.115 96.0786 129.184L92.9934 128.164L93.9014 125.204Z" fill="white"/>
<path d="M66.0248 125.204L66.9369 128.164L63.8477 129.184C65.7126 130.115 67.9845 130.985 70.7123 131.728L72.1996 127.658C70.4372 127.123 67.3888 125.967 66.0248 125.204Z" fill="white"/>
<path d="M79.96 50.1731C82.8151 50.1731 85.617 50.8508 87.7698 52.043C87.967 51.3856 88.2421 50.5895 88.6163 49.7569L87.8027 49.8547L86.9481 49.9445L86.5866 49.1729L85.4981 46.8868L83.5137 47.9157L82.7413 48.3076L82.1251 47.7033L79.9683 45.5804L77.8157 47.7033L77.1993 48.3076L76.4269 47.9157L74.4305 46.8868L73.3541 49.1729L72.9844 49.9445L72.1298 49.8547L71.3164 49.7569C71.6904 50.5937 71.9615 51.3856 72.1627 52.043C74.3195 50.8508 77.1131 50.1731 79.96 50.1731Z" fill="white"/>
<path d="M123.554 76.595C123.924 76.7216 124.302 76.7787 124.676 76.7787C126.29 76.7787 127.851 75.7417 128.39 74.5537C128.39 74.5537 125.427 74.374 122.244 71.1612C121.229 70.1202 120.157 69.8099 119.236 69.8099C117.807 69.8099 116.734 70.561 116.734 70.561C120.58 72.5942 121.364 75.8601 123.554 76.595Z" fill="white"/>
<path d="M35.2488 76.7787C35.6226 76.7787 36.0006 76.7216 36.3621 76.595C38.5601 75.8601 39.3489 72.5942 43.194 70.561C43.194 70.561 42.1176 69.8099 40.6961 69.8099C39.7719 69.8099 38.6996 70.1202 37.6809 71.1612C34.501 74.374 31.5391 74.5537 31.5391 74.5537C32.0689 75.7417 33.6341 76.7787 35.2488 76.7787Z" fill="white"/>
<path d="M124.597 89.8664C124.663 89.8702 124.721 89.8702 124.79 89.8702C128.82 89.8702 130.188 85.5798 130.188 85.5798H130.11C129.371 85.5798 123.377 85.4083 119.141 80.0562C116.352 76.5372 114.068 73.4427 109.553 72.2262L109.109 72.1485L109.01 71.6996C108.887 71.0136 109.36 70.3728 110.432 69.6789C116.66 65.625 112.433 60.4566 112.433 60.4566C112.433 60.4566 110.654 64.592 106.673 64.592C106.579 64.592 106.476 64.588 106.377 64.588C105.925 64.5636 105.49 64.5472 105.05 64.4534L104.315 64.3105C104.315 64.3105 105.449 61.2446 102.713 58.4276C100.65 56.3007 98.1403 55.9414 96.6901 55.9414C95.9589 55.9414 95.4946 56.0354 95.4946 56.0354C96.8707 57.8235 97.865 60.7874 96.2751 62.6161C94.9031 64.188 91.5508 64.2655 91.5508 66.6088C91.5508 67.6008 92.4833 68.7603 94.1595 69.8012C99.2001 72.9569 104.204 77.1415 106.283 82.7505C108.883 89.7479 105.954 94.3895 101.772 97.0513C101.772 97.0513 103.083 98.2514 104.985 98.4026C105.371 98.4393 105.749 98.4557 106.102 98.4557C110.116 98.4557 112.19 96.5859 112.19 96.5859C112.19 96.5859 111.849 99.17 109.758 101.571C107.832 103.787 105.301 105.09 101.443 105.147C101.443 105.147 101.32 106.927 103.029 108.466C104.122 109.437 106.648 109.756 106.648 109.756C106.648 109.756 101.92 110.707 101.398 117.647C101.115 121.407 100.149 122.713 100.149 122.713H100.235C111.208 122.713 110.925 113.361 110.925 113.361C110.925 113.361 111.689 116.128 114.75 116.851C115.119 116.949 115.514 116.986 115.892 116.986C116.878 116.986 117.732 116.757 117.732 116.757C117.732 116.757 116.13 113.397 117.72 108.698C119.039 104.8 118.825 101.909 118.825 101.909C118.825 101.909 120.304 104.13 123.969 104.151H124.006C127.058 104.151 128.389 101.852 128.389 101.852C121.072 98.8353 121.795 89.0948 121.795 89.0948C121.795 89.0948 122.744 89.797 124.597 89.8664ZM122.395 100.039C119.421 98.5822 117.539 94.7121 117.083 93.316C116.59 100.991 112.819 106.318 108.411 111.446C106.123 114.104 105.325 116.688 105.325 116.688C105.325 116.688 105.765 113.761 107.745 111.376C111.858 106.465 115.764 100.354 116.056 93.2873C116.257 88.3557 114.98 84.3551 112.987 81.0605C114.101 84.4938 113.945 88.6988 110.161 92.6219C110.161 92.6219 117.691 83.6529 107.162 74.4593C102.947 70.9605 98.3375 68.8011 95.9631 67.27C104.541 70.0503 108.727 66.9884 108.727 66.9884C105.987 69.3481 102.442 69.3073 100.244 68.9684C100.839 69.2585 101.46 69.5604 102.129 69.9156C109.36 73.8183 115.859 80.2399 116.968 89.1356V89.0661C118.653 97.7983 122.395 100.039 122.395 100.039Z" fill="white"/>
<path d="M53.2746 109.756C53.2746 109.756 55.8009 109.441 56.8939 108.466C58.5986 106.927 58.4797 105.147 58.4797 105.147C54.6178 105.094 52.0914 103.787 50.1522 101.575C48.0777 99.1742 47.7326 96.5899 47.7326 96.5899C47.7326 96.5899 49.807 98.4597 53.8167 98.4597C54.1784 98.4597 54.5522 98.4434 54.9383 98.4066C56.8404 98.2557 58.1549 97.0554 58.1549 97.0554C53.9729 94.3938 51.0396 89.7479 53.636 82.7505C55.719 77.1456 60.7186 72.9569 65.7593 69.8012C67.4355 68.7603 68.368 67.6048 68.368 66.6088C68.368 64.2655 65.0199 64.188 63.6479 62.6161C62.0578 60.7874 63.0561 57.8193 64.4282 56.0354C64.4282 56.0354 63.9722 55.9414 63.2367 55.9414C61.7908 55.9414 59.2806 56.3007 57.2184 58.4276C54.4741 61.2446 55.612 64.3105 55.612 64.3105L54.8767 64.4534C54.4371 64.5472 53.9975 64.5636 53.5497 64.588C53.4471 64.588 53.3565 64.592 53.258 64.592C49.2689 64.592 47.4982 60.4608 47.4982 60.4608C47.4982 60.4608 43.2708 65.6289 49.495 69.6827C50.5671 70.3768 51.0354 71.0178 50.9123 71.7037L50.8136 72.1528L50.3617 72.2303C45.8551 73.4467 43.5669 76.5415 40.7773 80.0605C36.5499 85.4042 30.5643 85.5798 29.8167 85.5798H29.7344C29.7344 85.5798 31.1024 89.8702 35.1326 89.8702C35.1982 89.8702 35.2557 89.8702 35.3256 89.8664C37.1786 89.8008 38.1317 89.0948 38.1317 89.0948C38.1317 89.0948 38.8464 98.8313 31.538 101.852C31.538 101.852 32.8691 104.151 35.9214 104.151H35.9583C39.6269 104.13 41.1019 101.909 41.1019 101.909C41.1019 101.909 40.8882 104.8 42.2027 108.698C43.7928 113.397 42.1989 116.757 42.1989 116.757C42.1989 116.757 43.0532 116.986 44.0352 116.986C44.417 116.986 44.8076 116.949 45.1731 116.851C48.2295 116.128 48.9979 113.361 48.9979 113.361C48.9979 113.361 48.7183 122.713 59.6915 122.713H59.7696C59.7696 122.713 58.8083 121.407 58.5289 117.647C58.0029 110.707 53.2746 109.756 53.2746 109.756ZM51.5121 111.446C47.1039 106.318 43.3368 100.991 42.8395 93.316C42.3837 94.7078 40.5101 98.5822 37.5361 100.039C37.5361 100.039 41.2745 97.7983 42.9545 89.0661V89.1356C44.0681 80.2441 50.5631 73.8183 57.7977 69.9156C58.4591 69.5562 59.0874 69.2542 59.6792 68.9684C57.4812 69.3073 53.936 69.3481 51.1959 66.9884C51.1959 66.9884 55.3821 70.0503 63.9557 67.27C61.5813 68.8011 56.976 70.9605 52.7609 74.4593C42.2275 83.6529 49.762 92.6219 49.762 92.6219C45.9742 88.6945 45.8222 84.4938 46.9355 81.0605C44.939 84.3589 43.6652 88.3557 43.8709 93.2873C44.1583 100.354 48.0652 106.465 52.1695 111.376C54.1535 113.757 54.6014 116.688 54.6014 116.688C54.6014 116.688 53.7961 114.104 51.5121 111.446Z" fill="white"/>
<path d="M71.8454 75.5616C72.026 75.7533 72.2026 75.9616 72.3712 76.1699C72.4123 76.2189 72.4493 76.2638 72.49 76.3209C72.6463 76.5292 72.8067 76.7496 72.9585 76.9742C72.9914 77.019 73.0243 77.0721 73.0612 77.1252C73.2461 77.4027 73.4187 77.6885 73.5912 77.9824C75.173 80.6975 77.7077 82.318 79.9549 82.3222C82.2062 82.318 84.7327 80.6975 86.3226 77.9824C86.4992 77.6804 86.6758 77.3866 86.8607 77.1129C86.8895 77.0721 86.9182 77.0354 86.9428 76.9944C87.099 76.7619 87.2633 76.5332 87.4359 76.3128C87.4728 76.2638 87.5057 76.223 87.5384 76.1822C87.7152 75.9658 87.8959 75.7533 88.0808 75.5575C88.1139 75.5248 88.1383 75.4964 88.1672 75.4718C88.9723 74.6513 89.9338 74.0266 91.1908 73.6797L90.6322 73.3571H90.5991L88.3726 72.071L86.0844 70.7688L79.9712 74.0755L79.9549 74.0633L79.9426 74.0755L73.8254 70.7688L71.5412 72.067L69.3105 73.3531H69.2859L68.7188 73.6754C69.98 74.0226 70.9373 74.639 71.7467 75.4596C71.7836 75.4923 71.8082 75.5291 71.8454 75.5616ZM77.4818 75.2962H80.0699H82.6538V77.0598C82.0459 76.3209 80.8627 76.472 80.8627 76.472V79.0154C80.8627 79.0154 80.908 80.2645 81.3476 80.8077H80.0699H78.7881C79.2358 80.2686 79.2769 79.0154 79.2769 79.0154V76.472C79.2769 76.472 78.098 76.3209 77.4818 77.0598V75.2962Z" fill="white"/>
<path d="M79.4307 71.8751V61.5508L72.8164 59.3217L74.5625 69.3279L79.4307 71.8751ZM78.0092 64.086V65.7433L77.6889 65.5964C77.6723 65.5843 77.2039 65.4779 76.3824 64.833C75.0265 63.7879 75.0021 62.8246 75.0021 62.8246L78.0092 64.086Z" fill="white"/>
<path d="M85.3643 69.3279L87.1023 59.3217L80.4922 61.5508V71.8751L85.3643 69.3279ZM81.9135 64.086L84.9206 62.8286C84.9206 62.8286 84.896 63.792 83.5363 64.8371C82.7186 65.4821 82.2461 65.5881 82.2298 65.6006L81.9093 65.7476V64.086H81.9135Z" fill="white"/>
<path d="M70.0751 95.8105C70.72 96.0432 71.5006 96.0925 71.8993 96.0925C71.9156 96.0432 71.9362 95.9821 71.9568 95.9086C71.9937 95.7901 72.0264 95.6759 72.0512 95.5453C72.1621 94.9737 72.2032 94.3246 72.2113 93.9082C71.9402 93.7407 71.5582 93.4428 71.3444 92.9977C71.098 92.4835 70.7488 92.2467 70.2351 92.2467C69.5699 92.2467 68.855 92.6427 68.551 92.8304C68.3086 94.2552 69.3644 95.5493 70.0751 95.8105Z" fill="white"/>
<path d="M84.7051 90.3314C83.4767 91.6581 81.0735 93.9689 80.9542 94.0872L80.8105 94.2341L73.2145 94.1156C73.2102 94.863 73.0871 95.4998 72.9678 95.965C72.9474 96.0428 72.9268 96.1245 72.9062 96.206L81.9442 97.8187C82.8852 97.1652 85.4733 95.2873 86.4756 94.5526C85.7444 93.4912 85.6747 92.2339 85.839 91.3479C85.3623 91.0417 84.9968 90.699 84.7051 90.3314Z" fill="white"/>
<path d="M85.735 81.253C83.9849 82.9801 82.3046 83.6168 80.8052 83.7638C80.5341 83.7922 80.2588 83.8086 79.9794 83.8086H79.9589H79.9423C79.663 83.8086 79.3836 83.7922 79.1126 83.7638C78.8496 83.7394 78.5745 83.6984 78.299 83.6372C78.2005 84.0252 78.0772 84.8375 78.4308 85.6049C78.747 86.3031 79.3919 86.8214 80.3327 87.1645L80.6489 87.287L80.6532 87.6257C80.6532 87.7278 80.727 89.924 83.1386 90.5323C83.533 90.1282 83.8904 89.7649 84.1534 89.463C83.6603 88.3117 83.9191 87.1358 84.634 86.5604C84.6011 86.6827 84.289 89.5649 86.6142 90.6344L86.996 90.8143L86.8812 91.2182C86.8443 91.3409 86.0678 94.129 88.8818 95.1658L89.3791 95.3537L89.1571 95.8355C89.1078 95.9417 88.0028 98.4727 90.603 99.9096H96.2437V95.4599C94.2391 95.2151 93.3885 93.6145 93.171 92.4796C92.2381 92.3206 91.5153 91.9205 91.0222 91.2672C89.8391 89.7201 90.8579 88.3035 90.8703 88.2257C90.866 88.2383 90.8703 89.7486 91.8068 90.6795C92.2712 91.1283 92.8216 91.4753 93.6556 91.553L94.0663 91.5897L94.1034 92.0061C94.1117 92.0959 94.3376 94.1373 96.2479 94.4596L96.2437 85.3724C96.2437 83.9638 96.6587 82.5471 97.1558 81.2408H85.735V81.253Z" fill="white"/>
<path d="M70.5582 85.416L70.4062 91.2048L71.0677 91.3029L72.6862 85.7508L71.8645 84.0443L70.5582 85.416Z" fill="white"/>
<path d="M88.4009 111.965C88.4503 111.965 88.5079 111.973 88.5614 111.985C89.5677 112.271 89.8226 115.88 91.5891 116.202C91.7614 116.239 91.9217 116.247 92.0614 116.247C92.5708 116.247 92.8748 116.031 93.2036 115.647C93.2036 115.647 92.3161 114.259 91.6506 113.324C90.7672 112.099 90.0814 110.617 88.4378 110.617C88.4009 110.617 88.3516 110.617 88.3107 110.622C87.7683 110.65 87.4357 110.912 87.4357 110.912C86.7701 110.495 86.1496 110.352 85.5869 110.352C84.5557 110.352 83.7547 110.822 83.3562 110.822H83.3397L79.6669 110.462C79.0919 110.409 78.64 109.834 78.4757 109.609C78.4345 109.548 78.4139 109.511 78.4139 109.511C78.4139 109.413 78.4139 109.311 78.4058 109.221C78.2825 106.237 75.9574 104.959 75.1315 104.939C75.1315 104.939 75.2302 104.372 75.0043 104.155L74.1949 105.131L71.5368 103.804L73.4306 106.004L71.8244 107.796C71.6232 108.001 71.6478 108.278 71.7299 108.392L72.4242 109.001L73.3032 108.47C73.3486 108.437 73.4268 108.429 73.525 108.429C73.7675 108.429 74.1332 108.491 74.4618 108.491C74.8192 108.491 75.1315 108.413 75.1686 108.078C75.0576 109.184 74.0264 111.107 74.7044 112.618L75.2055 113.757L71.96 113.291L70.44 115.843C69.9718 116.692 69.8975 117.611 70.3494 118.109L70.9165 118.815C70.9165 118.815 71.7136 117.974 71.8942 117.423L71.6355 117.141C71.4177 116.904 71.43 116.692 71.5616 116.435L72.5145 114.863L76.3475 115.761L76.5487 115.419C76.8077 114.99 77.1815 114.859 77.5924 114.859C77.7608 114.859 77.9333 114.879 78.114 114.908C78.8248 115.047 79.9957 115.235 81.1665 115.235C82.4524 115.235 83.7258 115.006 84.4038 114.251C85.7922 116.296 88.6064 116.623 88.3845 117.66L87.6452 121.162C88.1341 121.142 88.6064 121.109 89.0542 121.048L89.7566 117.402C89.8347 117.007 89.9088 116.472 89.9088 116.472C89.6377 116.198 88.9804 115.619 88.6104 114.916C88.1135 113.969 88.3845 113.475 87.9203 112.242C87.9369 112.25 88.0765 111.965 88.4009 111.965ZM74.0633 106.845C73.8744 106.841 73.7388 106.682 73.7471 106.494C73.7636 106.315 73.9156 106.172 74.1005 106.188C74.2894 106.196 74.4248 106.36 74.4168 106.539C74.4002 106.719 74.2442 106.858 74.0633 106.845Z" fill="white"/>
<path d="M68.8328 115.279C68.8328 115.279 70.1023 114.761 70.2174 114.389L70.049 113.969C69.9298 113.695 69.9463 113.397 70.1764 113.234L71.5485 112.291L73.8409 112.727C73.8409 112.727 73.4259 112.213 73.4671 111.523L71.2814 111.062L69.2191 112.311C68.3359 112.968 68.2701 114.042 68.5617 114.679L68.8328 115.279Z" fill="white"/>
<path d="M85.0352 121.215C85.4459 121.199 85.8978 121.19 86.3951 121.19C86.3951 121.19 87.574 117.765 87.6398 117.655C86.9784 117.365 85.6063 116.643 85.0763 116.312C85.4257 116.83 86.2758 117.427 86.1075 117.884L85.0352 121.215Z" fill="white"/>
<path d="M96.2584 100.901H63.668V113.083C63.668 118.064 67.2955 121.183 72.6486 121.183C77.1225 121.183 78.3014 121.354 79.9653 122.995C81.1113 121.861 82.0606 121.436 84.0077 121.277L84.0531 121.089L85.08 117.933C85.0225 117.864 83.3424 115.966 83.3424 115.966C82.6768 116.186 82.1181 116.223 81.1773 116.223C80.2118 116.223 79.1231 116.112 77.9442 115.892C77.8249 115.864 77.7141 115.855 77.603 115.855C77.4593 115.855 77.4468 115.868 77.4099 115.937L77.2044 116.272L76.8306 116.884L76.1282 116.725L73.0018 115.994L72.5747 116.696L72.6403 116.77L73.0224 117.186L72.8541 117.729C72.624 118.44 71.8762 119.268 71.6503 119.497L70.8698 120.33L70.159 119.435L69.6249 118.77C69.0622 118.146 68.9306 117.186 69.2471 116.182C69.2386 116.19 69.2265 116.194 69.2142 116.194L68.331 116.557L67.9323 115.7L67.653 115.092C67.1722 114.022 67.349 112.459 68.643 111.516L71.1615 110.103L73.5567 110.573C73.6142 110.344 73.7004 109.528 73.77 109.319C73.725 109.315 73.6798 109.303 73.6346 109.303L72.2542 109.813L70.9231 108.899C70.9231 108.899 70.4016 108.401 70.8737 107.903L72.1638 105.964L68.8979 101.889L73.9179 103.939L74.2508 103.526L74.9287 102.722L75.6969 103.449C75.9147 103.657 76.0378 103.914 76.0994 104.171C77.4838 104.706 79.9613 106.286 80.1789 108.854L79.4024 109.164V109.185C79.5792 109.393 79.727 109.479 79.7724 109.487L83.3545 109.838C83.445 109.821 83.56 109.781 83.6874 109.744C84.1312 109.593 84.8007 109.376 85.5937 109.376C86.2386 109.376 86.863 109.524 87.4627 109.801C87.6845 109.719 87.9558 109.658 88.268 109.638L88.4406 109.634C90.359 109.634 91.3121 111.059 92.0764 112.193C92.2038 112.389 92.3309 112.577 92.4625 112.761C93.132 113.7 94.0072 115.076 94.0441 115.133L94.4385 115.745L93.9539 116.304C93.5801 116.733 93.0212 117.235 92.0599 117.235C91.8627 117.235 91.6451 117.215 91.4108 117.17C91.2053 117.133 91.0206 117.072 90.8396 116.999C90.8109 117.186 90.774 117.411 90.7371 117.603L90.1083 120.86C93.8675 119.942 96.2544 117.121 96.2544 113.087L96.2584 100.901Z" fill="#FFDD2D"/>
<path d="M63.6694 99.9217H89.013C87.7475 98.6237 87.7641 96.9785 88.0886 95.9088C87.7189 95.7332 87.4149 95.5211 87.1438 95.2924C86.1536 96.019 83.1299 98.2071 82.3412 98.7542L82.1729 98.8685L72.2268 97.0804H72.0254C71.7872 97.0804 71.4381 97.0724 71.056 97.0274C70.9492 97.4724 70.5629 97.7786 70.1193 97.7786C70.07 97.7786 70.0125 97.7745 69.959 97.7622C69.7003 97.7172 69.4742 97.5866 69.3222 97.3703C69.1662 97.1581 69.1046 96.905 69.1499 96.6437L69.1868 96.4313C68.1597 95.7128 67.2149 94.1084 67.6339 92.4182L67.6749 92.2386L67.8186 92.1367C67.8391 92.1203 68.0117 92.0061 68.2666 91.859L67.5435 91.7488C67.2724 91.6999 67.0915 91.4507 67.1327 91.1854C67.1779 90.916 67.4326 90.724 67.6997 90.7771L69.4209 91.0468L69.5771 85.021L72.1404 82.3265L73.7386 85.6701L72.0502 91.4672L73.5702 91.704C73.8373 91.7447 74.0222 91.9938 73.981 92.2673C73.94 92.5083 73.7345 92.6754 73.4921 92.6754C73.4675 92.6754 73.4387 92.6754 73.4142 92.6716L72.1774 92.4715C72.1939 92.5083 72.2186 92.5285 72.2349 92.5694C72.3665 92.8387 72.6582 93.0349 72.8309 93.1164L80.4145 93.2349C80.735 92.9247 81.5318 92.1488 82.3495 91.3283C80.4843 90.6262 79.8065 89.0258 79.6913 87.9644C78.648 87.5236 77.9291 86.8621 77.5304 86.0007C77.0456 84.9352 77.2184 83.8697 77.3456 83.3512C76.335 82.9839 75.2711 82.3144 74.1864 81.2449H62.7656C63.2545 82.5511 63.6694 83.9676 63.6694 85.3762V99.9217Z" fill="#FFDD2D"/>
<path d="M74.1079 106.188C73.923 106.172 73.7668 106.315 73.7547 106.494C73.7422 106.682 73.8818 106.841 74.071 106.845C74.2516 106.861 74.4119 106.723 74.4282 106.539C74.4282 106.359 74.2968 106.192 74.1079 106.188Z" fill="black"/>
<path d="M96.2124 128.277L94.3349 127.563L94.8524 125.636L95.4236 123.533C95.4236 123.533 92.0959 125.326 87.4085 126.673C86.0772 127.053 85.0709 127.224 85.0709 127.224V128.653C85.0709 128.653 82.5647 129.086 80.0301 129.086H80.0014H79.9645H79.915H79.8863C77.3515 129.086 74.8455 128.653 74.8455 128.653V127.224C74.8455 127.224 73.8349 127.053 72.5081 126.673C67.8205 125.326 64.4968 123.533 64.4968 123.533L65.0598 125.636L65.5898 127.563L63.7081 128.277L61.6211 129.053C64.0163 130.2 67.3316 131.874 70.3676 132.698L69.6529 134.642C69.6529 134.642 73.5021 136.385 79.915 136.401V136.405H79.9356H79.9645H79.9891H80.0056V136.401C86.4266 136.385 90.2718 134.642 90.2718 134.642L89.5528 132.698C92.589 131.874 95.9124 130.2 98.2953 129.053L96.2124 128.277ZM63.8479 129.184L66.9372 128.163L66.0253 125.203C67.3851 125.971 70.4374 127.122 72.2039 127.657L70.7125 131.727C67.9849 130.98 65.7131 130.11 63.8479 129.184ZM79.9645 135.381C76.378 135.381 72.282 134.56 71.0783 134.136L72.9105 129.208C74.4305 129.649 77.5939 130.119 79.8904 130.102H79.8946H79.9645H80.026H80.0343C82.3308 130.119 85.4858 129.649 87.0141 129.208L88.8422 134.136C87.6384 134.564 83.5466 135.381 79.9645 135.381ZM89.2079 131.727L87.7208 127.657C89.4915 127.122 92.5355 125.971 93.8993 125.203L92.9915 128.163L96.0767 129.184C94.2075 130.11 91.948 130.98 89.2079 131.727Z" fill="black"/>
<path d="M79.959 51.3655C83.7798 51.3655 86.8364 52.6229 88.5247 53.966C88.5247 53.966 89.0259 50.9654 90.739 48.316L87.6621 48.6629L86.0516 45.2623L82.9581 46.8463L79.959 43.8988L76.9682 46.8463L73.8707 45.2623L72.2645 48.6629L69.1875 48.316C70.9005 50.9654 71.4018 53.966 71.4018 53.966C73.0944 52.6229 76.1425 51.3655 79.959 51.3655ZM72.1248 49.8551L72.9794 49.9449L73.3489 49.1732L74.4255 46.887L76.4219 47.9117L77.1943 48.3038L77.8107 47.6995L79.9633 45.5767L82.1201 47.6995L82.7363 48.3038L83.5085 47.9117L85.4927 46.887L86.5816 49.1732L86.9431 49.9449L87.7977 49.8551L88.6109 49.7571C88.2371 50.5939 87.962 51.3858 87.7648 52.0432C85.612 50.851 82.8102 50.1735 79.955 50.1735C77.1122 50.1735 74.3145 50.851 72.1537 52.0432C71.9522 51.3858 71.6812 50.5899 71.3074 49.7571L72.1248 49.8551Z" fill="black"/>
<path d="M124.785 91.1806C129.727 91.1806 131.378 86.1838 131.448 85.9715L131.999 84.2121L130.146 84.2692H130.138C129.484 84.2692 124.033 84.1263 120.167 79.2437L119.801 78.7906C117.275 75.5982 114.88 72.565 110.599 71.181C110.722 71.0708 110.899 70.9319 111.141 70.7767C113.413 69.2908 114.736 67.4864 115.069 65.3922C115.553 62.2403 113.532 59.7297 113.442 59.6277L112.066 57.9376L111.207 59.9421C111.15 60.0687 109.703 63.2776 106.663 63.2776H106.437C106.228 63.265 106.031 63.257 105.834 63.2408C105.94 61.8078 105.677 59.5909 103.656 57.513C101.228 55.0105 98.2457 54.635 96.6845 54.635C95.8506 54.635 95.2959 54.737 95.2384 54.7452L93.1595 55.1534L94.4413 56.8313C95.4481 58.1255 96.36 60.5136 95.2796 61.763C94.9344 62.1588 94.2238 62.4813 93.5418 62.8039C92.1408 63.4447 90.2305 64.3348 90.2305 66.6044C90.2305 68.0742 91.3767 69.6093 93.4556 70.9156C99.6095 74.7614 103.406 78.7742 105.045 83.2037C107.58 90.0173 104.272 93.9036 101.06 95.949L99.6178 96.8714L100.879 98.0226C101.047 98.1698 102.592 99.5211 104.872 99.717C105.303 99.7455 105.718 99.7701 106.105 99.7701C107.567 99.7701 108.812 99.5414 109.823 99.2353C109.543 99.7211 109.202 100.215 108.771 100.713C106.935 102.828 104.675 103.791 101.425 103.84L100.218 103.861L100.123 105.065C100.111 105.306 100.02 107.539 102.148 109.437C102.473 109.731 102.867 109.972 103.278 110.172C101.836 111.462 100.37 113.707 100.086 117.557C99.8477 120.77 99.0757 121.958 99.0672 121.97L97.7321 123.995L100.144 124.028C104.128 124.028 107.181 122.934 109.297 120.77C110.546 119.488 111.26 118.043 111.683 116.761C112.378 117.349 113.274 117.863 114.44 118.137C114.884 118.239 115.369 118.296 115.89 118.296C117.016 118.296 117.957 118.059 118.063 118.035L119.604 117.626L118.922 116.198C118.873 116.083 117.587 113.218 118.972 109.127C119.567 107.359 119.871 105.775 120.019 104.542C120.989 105.045 122.287 105.461 123.967 105.465C127.779 105.465 129.46 102.636 129.538 102.517L130.29 101.219L128.897 100.648C124.353 98.7739 123.347 93.7403 123.146 91.0133C123.556 91.0908 124.024 91.1643 124.555 91.1806H124.785ZM128.388 101.852C128.388 101.852 127.056 104.151 124.004 104.151H123.967C120.302 104.13 118.824 101.909 118.824 101.909C118.824 101.909 119.037 104.8 117.714 108.698C116.125 113.397 117.727 116.757 117.727 116.757C117.727 116.757 116.872 116.986 115.886 116.986C115.508 116.986 115.114 116.949 114.744 116.851C111.684 116.128 110.92 113.36 110.92 113.36C110.92 113.36 111.203 122.713 100.23 122.713H100.144C100.144 122.713 101.109 121.407 101.397 117.647C101.918 110.707 106.647 109.756 106.647 109.756C106.647 109.756 104.125 109.441 103.032 108.466C101.323 106.927 101.442 105.147 101.442 105.147C105.303 105.094 107.83 103.787 109.757 101.57C111.844 99.1699 112.189 96.5858 112.189 96.5858C112.189 96.5858 110.114 98.4556 106.1 98.4556C105.747 98.4556 105.369 98.4392 104.983 98.4025C103.085 98.2515 101.771 97.0512 101.771 97.0512C105.949 94.3894 108.882 89.7438 106.281 82.7464C104.198 77.1412 99.1946 72.9527 94.158 69.7968C92.4819 68.7562 91.5493 67.6007 91.5493 66.6044C91.5493 64.2613 94.9015 64.1878 96.2776 62.6119C97.8637 60.7831 96.8694 57.8151 95.4931 56.0312C95.4931 56.0312 95.9573 55.9372 96.6888 55.9372C98.1388 55.9372 100.649 56.3005 102.711 58.4233C105.451 61.2402 104.313 64.3061 104.313 64.3061L105.049 64.449C105.488 64.5429 105.924 64.5592 106.376 64.5796C106.475 64.5796 106.573 64.5838 106.672 64.5838C110.652 64.5838 112.431 60.4484 112.431 60.4484C112.431 60.4484 116.663 65.6207 110.435 69.6703C109.362 70.3644 108.89 71.0054 109.013 71.6913L109.112 72.1403L109.555 72.2178C114.07 73.4343 116.355 76.529 119.144 80.048C123.38 85.4001 129.374 85.5714 130.113 85.5714H130.191C130.191 85.5714 128.823 89.862 124.793 89.862C124.727 89.862 124.67 89.862 124.6 89.858C122.747 89.7926 121.798 89.0864 121.798 89.0864C121.798 89.0864 121.071 98.831 128.388 101.852Z" fill="black"/>
<path d="M116.105 71.7202C117.949 72.6961 119.022 74.0024 119.963 75.1617C120.887 76.2926 121.766 77.3825 123.138 77.8356C123.627 78.0032 124.145 78.0807 124.671 78.0807C126.733 78.0807 128.803 76.8273 129.588 75.0923L130.377 73.3533L128.466 73.2388C128.376 73.2348 125.92 73.0144 123.183 70.2343C122.058 69.0954 120.698 68.4951 119.231 68.4951C117.44 68.4951 116.113 69.3852 115.965 69.4748L114.207 70.7038L116.105 71.7202ZM119.236 69.8097C120.156 69.8097 121.228 70.1201 122.243 71.161C125.426 74.374 128.388 74.5534 128.388 74.5534C127.85 75.7374 126.289 76.7784 124.675 76.7784C124.301 76.7784 123.927 76.7211 123.553 76.5945C121.363 75.8597 120.579 72.5938 116.729 70.5609C116.729 70.5609 117.806 69.8097 119.236 69.8097Z" fill="black"/>
<path d="M116.966 89.0666V89.1318C115.857 80.2404 109.358 73.8188 102.127 69.9119C101.458 69.5566 100.841 69.2547 100.242 68.9649C102.444 69.3035 105.989 69.3445 108.725 66.9849C108.725 66.9849 104.539 70.0467 95.9609 67.2666C98.3353 68.7973 102.949 70.9572 107.16 74.4556C117.689 83.6494 110.155 92.6183 110.155 92.6183C113.938 88.695 114.094 84.4902 112.981 81.057C114.974 84.3513 116.247 88.3521 116.05 93.2837C115.758 100.35 111.851 106.462 107.739 111.373C105.763 113.757 105.319 116.684 105.319 116.684C105.319 116.684 106.116 114.1 108.404 111.442C112.813 106.315 116.58 100.987 117.073 93.3122C117.529 94.7045 119.406 98.5787 122.385 100.036C122.393 100.04 118.65 97.7988 116.966 89.0666Z" fill="black"/>
<path d="M60.8539 121.966C60.8496 121.954 60.0857 120.766 59.8392 117.553C59.5514 113.703 58.0889 111.458 56.643 110.168C57.062 109.972 57.4481 109.731 57.7726 109.433C59.8967 107.535 59.8063 105.302 59.794 105.061L59.7119 103.857L58.4958 103.836C55.2543 103.783 52.9908 102.82 51.1543 100.709C50.7272 100.211 50.382 99.7168 50.1025 99.2312C51.1133 99.5374 52.3499 99.7661 53.8165 99.7661C54.2109 99.7661 54.6176 99.7414 55.0489 99.713C57.329 99.5168 58.8738 98.1697 59.0462 98.0186L60.3075 96.8673L58.8656 95.9449C55.6407 93.8955 52.3457 90.009 54.8763 83.1994C56.5156 78.7702 60.3075 74.7573 66.4697 70.9115C68.5484 69.6053 69.6865 68.0701 69.6865 66.6004C69.6865 64.3307 67.7802 63.4368 66.3795 62.7998C65.6975 62.4773 64.9868 62.1547 64.6415 61.7589C63.557 60.5136 64.4732 58.1215 65.4757 56.8273L66.7656 55.1494L64.6786 54.7412C64.6171 54.733 64.0707 54.631 63.2325 54.631C61.6715 54.631 58.697 55.0065 56.2649 57.509C54.2397 59.5911 53.9725 61.8078 54.0754 63.2368C53.878 63.2529 53.681 63.261 53.4756 63.2735H53.2538C50.2054 63.2735 48.7635 60.0646 48.706 59.9381L47.8474 57.9336L46.4586 59.6236C46.3807 59.7257 44.3512 62.2405 44.8441 65.3881C45.1729 67.4824 46.4957 69.2868 48.7676 70.7727C49.014 70.9277 49.1866 71.0668 49.3099 71.177C45.033 72.5609 42.6423 75.5981 40.1155 78.7906L39.75 79.2437C35.8883 84.1263 30.4245 84.2692 29.7713 84.2692L27.9102 84.2121L28.4771 85.9714C28.5428 86.1838 30.1902 91.1806 35.1365 91.1806L35.3748 91.1723C35.8966 91.1562 36.3648 91.0868 36.784 91.0052C36.5786 93.728 35.572 98.7617 31.0241 100.64L29.6357 101.211L30.3875 102.509C30.4614 102.628 32.1459 105.457 35.9664 105.457C37.6342 105.453 38.9324 105.036 39.906 104.534C40.054 105.767 40.3579 107.351 40.9537 109.119C42.3381 113.209 41.0484 116.075 40.9989 116.19L40.3171 117.618L41.8616 118.026C41.9643 118.051 42.9134 118.288 44.0349 118.288C44.5607 118.288 45.0455 118.231 45.4811 118.129C46.6517 117.855 47.5556 117.341 48.2418 116.753C48.6606 118.035 49.3797 119.48 50.6245 120.762C52.7443 122.925 55.7926 124.02 59.7775 124.02L62.1932 123.987L60.8539 121.966ZM59.687 122.713C48.7141 122.713 48.9936 113.36 48.9936 113.36C48.9936 113.36 48.2293 116.128 45.1687 116.851C44.8031 116.949 44.4128 116.985 44.0309 116.985C43.0447 116.985 42.1944 116.757 42.1944 116.757C42.1944 116.757 43.7885 113.397 42.1985 108.698C40.8839 104.8 41.0974 101.909 41.0974 101.909C41.0974 101.909 39.6226 104.13 35.9541 104.15H35.9171C32.8646 104.15 31.5335 101.852 31.5335 101.852C38.8462 98.8352 38.1272 89.0944 38.1272 89.0944C38.1272 89.0944 37.1784 89.7968 35.3213 89.8661C35.2557 89.8703 35.194 89.8703 35.1284 89.8703C31.0941 89.8703 29.7301 85.5797 29.7301 85.5797H29.8122C30.5558 85.5797 36.5416 85.4081 40.7771 80.0561C43.5665 76.5371 45.8549 73.4466 50.3617 72.2261L50.8136 72.1486L50.9119 71.6995C51.0354 71.0137 50.5669 70.3726 49.4948 69.6787C43.2666 65.6249 47.498 60.4565 47.498 60.4565C47.498 60.4565 49.2687 64.5879 53.258 64.5879C53.3563 64.5879 53.4467 64.5838 53.5494 64.5838C53.9973 64.5592 54.4412 64.543 54.8763 64.449L55.6118 64.3061C55.6118 64.3061 54.4738 61.2402 57.2182 58.4235C59.2805 56.2965 61.7906 55.9373 63.2365 55.9373C63.972 55.9373 64.4281 56.0311 64.4281 56.0311C63.0559 57.8192 62.0618 60.7831 63.6474 62.6121C65.0195 64.1838 68.3678 64.2613 68.3678 66.6046C68.3678 67.5966 67.4353 68.7559 65.759 69.797C60.7182 72.9529 55.7145 77.1414 53.6356 82.7463C51.0394 89.7437 53.9687 94.3853 58.1549 97.0512C58.1549 97.0512 56.8402 98.2515 54.9381 98.4025C54.552 98.4392 54.1782 98.4553 53.8165 98.4553C49.8068 98.4553 47.7324 96.5857 47.7324 96.5857C47.7324 96.5857 48.0773 99.1698 50.152 101.57C52.0912 103.787 54.6176 105.093 58.4795 105.147C58.4795 105.147 58.6026 106.926 56.8936 108.466C55.7967 109.437 53.2743 109.755 53.2743 109.755C53.2743 109.755 58.007 110.707 58.5245 117.647C58.808 121.407 59.7652 122.713 59.7652 122.713H59.687Z" fill="black"/>
<path d="M35.2449 78.0849C35.7747 78.0849 36.2924 78.0074 36.7814 77.8399C38.1616 77.3868 39.0367 76.2967 39.9611 75.166C40.9059 74.0066 41.97 72.7002 43.8146 71.7245L45.7124 70.7119L43.9502 69.4833C43.8022 69.3895 42.4794 68.5034 40.6924 68.5034C39.2216 68.5034 37.8578 69.0996 36.736 70.2426C34.0001 73.0187 31.5476 73.2433 31.457 73.2473L29.5469 73.3573L30.3314 75.1006C31.1202 76.8275 33.1865 78.0849 35.2449 78.0849ZM37.677 71.1652C38.6958 70.1244 39.768 69.8139 40.6924 69.8139C42.1137 69.8139 43.1903 70.565 43.1903 70.565C39.3447 72.6023 38.556 75.8639 36.3582 76.599C35.9967 76.7254 35.6187 76.7827 35.2449 76.7827C33.6304 76.7827 32.0692 75.7457 31.5351 74.5577C31.5351 74.5536 34.493 74.374 37.677 71.1652Z" fill="black"/>
<path d="M43.8703 93.2878C43.6646 88.3561 44.9384 84.3554 46.9347 81.061C45.8216 84.4942 45.9736 88.6991 49.7614 92.6223C49.7614 92.6223 42.2269 83.6534 52.7603 74.4596C56.9754 70.9612 61.5847 68.8014 63.9551 67.2707C55.3815 70.0507 51.1953 66.9889 51.1953 66.9889C53.9311 69.3485 57.4766 69.3076 59.6786 68.9647C59.083 69.2545 58.4585 69.5568 57.7969 69.9119C50.5583 73.8188 44.0632 80.2406 42.9501 89.1318V89.0624C41.2696 97.7947 37.5312 100.036 37.5312 100.036C40.5057 98.5785 42.3789 94.7085 42.8351 93.3122C43.332 100.987 47.0992 106.315 51.5073 111.442C53.7955 114.1 54.6008 116.684 54.6008 116.684C54.6008 116.684 54.153 113.757 52.1687 111.373C48.0646 106.47 44.1577 100.354 43.8703 93.2878Z" fill="black"/>
<path d="M77.4844 75.2966V77.0603C78.0967 76.3211 79.2799 76.4723 79.2799 76.4723V79.0156C79.2799 79.0156 79.2387 80.2648 78.7911 80.8079H80.0725H81.3503C80.9107 80.2688 80.8655 79.0156 80.8655 79.0156V76.4723C80.8655 76.4723 82.0487 76.3211 82.6568 77.0603V75.2966H80.0725H77.4844Z" fill="black"/>
<path d="M76.3806 64.8373C77.198 65.4823 77.6705 65.5885 77.6868 65.6006L78.0073 65.7475V64.086L75 62.8286C75 62.8329 75.0289 63.7922 76.3806 64.8373Z" fill="black"/>
<path d="M83.5368 64.8373C84.8968 63.7922 84.9212 62.8286 84.9212 62.8286L81.9141 64.086V65.7475L82.2305 65.6006C82.2511 65.5885 82.7194 65.4823 83.5368 64.8373Z" fill="black"/>
<path d="M88.9524 58.0728C88.9524 55.5541 84.6838 53.2883 79.9717 53.2883H79.9677H79.9554H79.9429C75.2308 53.2883 70.9626 55.5541 70.9626 58.0728L71.0571 58.6935L72.9384 69.4261L71.0488 70.516L66.16 73.3534H66.1763C66.1763 73.3534 65.0755 73.9126 64.5661 74.2596C62.705 75.5457 62.3106 77.4193 63.3912 78.1952C63.6582 76.6681 64.8741 75.0679 67.1502 75.0679C68.7893 75.0679 70.0382 75.909 71.0488 77.1705C71.3076 77.4888 71.554 77.8276 71.7841 78.1952C72.0677 78.6564 72.3511 79.0604 72.6346 79.4524H60.043C60.9674 81.3016 61.8464 83.2612 61.8464 85.3884V113.083C61.8464 119.786 67.0351 122.987 72.647 122.987C76.9852 122.987 77.5685 122.791 79.9635 125.159C82.3461 122.787 82.9296 122.987 87.2719 122.987C92.888 122.987 98.0683 119.786 98.0683 113.083V85.3884C98.0683 83.2612 98.9476 81.3016 99.8759 79.4524H87.2804C87.5597 79.0647 87.8431 78.6564 88.1267 78.1952C88.3606 77.8276 88.603 77.4888 88.8579 77.1705C89.8768 75.9048 91.1213 75.0679 92.7606 75.0679C95.0365 75.0679 96.2483 76.6641 96.5196 78.1952C97.6 77.4193 97.2099 75.5457 95.3364 74.2596C94.8353 73.9126 93.7343 73.3534 93.7343 73.3534H93.7506L88.862 70.516L86.9805 69.4261L88.862 58.6935L88.9524 58.0728ZM72.8153 59.3221L79.4296 61.5511V71.8755L74.5614 69.3241L72.8153 59.3221ZM74.1833 81.2528C75.2678 82.3263 76.3321 82.992 77.3426 83.3593C77.211 83.8776 77.0385 84.9474 77.5273 86.0128C77.9259 86.87 78.6489 87.5315 79.6884 87.9725C79.8034 89.0339 80.4771 90.63 82.3461 91.3364C81.5287 92.1569 80.7316 92.9283 80.4073 93.2428L72.8276 93.1245C72.6552 93.0385 72.3634 92.8468 72.232 92.5733C72.2154 92.5366 72.1908 92.5162 72.1785 92.4752L73.4151 92.6752C73.444 92.6795 73.4684 92.6795 73.4932 92.6795C73.7314 92.6795 73.9409 92.5162 73.9821 92.2713C74.0233 91.9977 73.8384 91.7486 73.5714 91.7078L72.0513 91.4711L73.7397 85.6782L72.1416 82.3346L69.5781 85.0289L69.422 91.0547L67.7006 90.7852C67.4334 90.7321 67.1788 90.9281 67.1338 91.1935C67.0927 91.4588 67.2733 91.7078 67.5446 91.7569L68.2675 91.8671C68.0088 92.014 67.8403 92.1282 67.8197 92.1446L67.6719 92.2467L67.6307 92.4263C67.2117 94.1163 68.1608 95.7209 69.1837 96.4392L69.1465 96.6518C69.1058 96.9127 69.1631 97.1658 69.3191 97.3784C69.467 97.5947 69.6971 97.7253 69.9518 97.7701C70.0053 97.7784 70.0629 97.7824 70.1121 97.7824C70.5557 97.7824 70.9421 97.4763 71.0529 97.0314C71.4349 97.076 71.7841 97.0843 72.0223 97.0843H72.2237L82.1697 98.8683L82.3381 98.7581C83.1311 98.2069 86.1505 96.0188 87.1405 95.2962C87.4118 95.529 87.7157 95.7411 88.0855 95.9169C87.765 96.9864 87.7444 98.6316 89.0137 99.9298H63.6663V85.3922C63.6663 83.9838 63.2513 82.5673 62.7625 81.261H74.1833V81.2528ZM86.4751 94.5531C85.4685 95.288 82.8804 97.1658 81.9437 97.8192L72.9057 96.2067C72.9263 96.125 72.9467 96.0475 72.9673 95.9657C73.0865 95.5005 73.2056 94.8635 73.2139 94.1163L80.8098 94.239L80.9537 94.0919C81.0687 93.9776 83.476 91.667 84.7044 90.3359C84.996 90.6994 85.3617 91.0466 85.8385 91.3526C85.674 92.2346 85.7438 93.4918 86.4751 94.5531ZM71.3445 92.9979C71.5583 93.4428 71.9444 93.7409 72.2114 93.9082C72.2033 94.3246 72.1621 94.9737 72.0513 95.5453C72.0265 95.6719 71.9936 95.7903 71.9567 95.9086C71.9361 95.9821 71.9157 96.0434 71.8992 96.0923C71.5007 96.0923 70.716 96.0434 70.0752 95.8107C69.3645 95.5493 68.3045 94.2552 68.5509 92.8304C68.8591 92.6427 69.5698 92.2467 70.2352 92.2467C70.7489 92.2427 71.0981 92.4835 71.3445 92.9979ZM70.4038 91.2057L70.5557 85.4209L71.8622 84.0452L72.6839 85.7517L71.0652 91.3035L70.4038 91.2057ZM86.3929 121.195C85.8998 121.195 85.4441 121.203 85.0329 121.219L86.1093 117.892C86.2779 117.431 85.4273 116.839 85.0784 116.321C85.6082 116.651 86.9805 117.374 87.6419 117.664C87.5718 117.77 86.3929 121.195 86.3929 121.195ZM89.7698 117.415L89.0674 121.056C88.6194 121.117 88.143 121.15 87.6542 121.17L88.3937 117.668C88.6155 116.627 85.8013 116.304 84.4127 114.259C83.7349 115.018 82.4573 115.243 81.1755 115.243C80.0046 115.243 78.834 115.055 78.1229 114.916C77.9423 114.888 77.7697 114.867 77.6014 114.867C77.1905 114.867 76.8167 114.994 76.5579 115.427L76.3524 115.769L72.5196 114.871L71.5663 116.439C71.4309 116.692 71.4226 116.909 71.6404 117.145L71.8992 117.427C71.7225 117.982 70.9257 118.819 70.9257 118.819L70.3545 118.113C69.9026 117.61 69.9765 116.696 70.449 115.847L71.969 113.296L75.2145 113.761L74.7091 112.618C74.0313 111.107 75.0625 109.184 75.1733 108.078C75.1364 108.413 74.8284 108.487 74.4667 108.487C74.1383 108.487 73.7726 108.425 73.5302 108.425C73.4357 108.425 73.3534 108.433 73.3084 108.466L72.4292 108.997L71.7347 108.389C71.6527 108.27 71.6238 107.996 71.8293 107.792L73.4357 106.004L71.5377 103.804L74.1956 105.131L75.005 104.155C75.2268 104.372 75.1323 104.939 75.1323 104.939C75.9621 104.959 78.2874 106.237 78.4107 109.217C78.419 109.307 78.419 109.409 78.419 109.507C78.419 109.507 78.4396 109.544 78.4804 109.605C78.6449 109.83 79.0968 110.405 79.6718 110.458L83.3446 110.818H83.361C83.7636 110.818 84.5647 110.348 85.5918 110.348C86.1505 110.348 86.775 110.491 87.4404 110.907C87.4404 110.907 87.7733 110.646 88.3156 110.617C88.3568 110.613 88.4018 110.613 88.443 110.613C90.0903 110.613 90.7723 112.091 91.6556 113.32C92.321 114.255 93.2083 115.643 93.2083 115.643C92.8799 116.031 92.5757 116.243 92.0663 116.243C91.9266 116.243 91.7664 116.231 91.5938 116.198C89.8273 115.876 89.5726 112.267 88.5661 111.981C88.5128 111.965 88.4553 111.961 88.406 111.961C88.0813 111.961 87.9376 112.246 87.9376 112.246C88.3975 113.475 88.1307 113.973 88.6236 114.92C88.9936 115.622 89.6507 116.202 89.9218 116.476C89.9218 116.484 89.8479 117.015 89.7698 117.415ZM70.0463 113.969L70.2146 114.39C70.1038 114.757 68.8303 115.28 68.8303 115.28L68.5552 114.684C68.2633 114.047 68.3251 112.973 69.2125 112.316L71.2747 111.067L73.4603 111.528C73.4192 112.218 73.8341 112.732 73.8341 112.732L71.5417 112.295L70.1696 113.238C69.9395 113.398 69.9232 113.696 70.0463 113.969ZM90.115 120.856L90.7435 117.598C90.7764 117.407 90.8173 117.182 90.8462 116.994C91.023 117.068 91.2117 117.129 91.4174 117.166C91.6513 117.21 91.8691 117.231 92.0663 117.231C93.0276 117.231 93.5863 116.729 93.9601 116.3L94.4449 115.741L94.0505 115.129C94.0136 115.067 93.1427 113.696 92.469 112.757C92.3376 112.573 92.21 112.389 92.0826 112.189C91.3187 111.054 90.3614 109.63 88.443 109.63L88.2704 109.634C87.9541 109.654 87.6828 109.715 87.4651 109.797C86.8612 109.515 86.2409 109.372 85.5961 109.372C84.8031 109.372 84.1334 109.589 83.6897 109.74C83.5624 109.777 83.4473 109.817 83.3569 109.834L79.7705 109.483C79.7253 109.474 79.5774 109.389 79.4007 109.176V109.16L80.1772 108.85C79.9596 106.282 77.4781 104.702 76.0935 104.167C76.0321 103.91 75.9088 103.653 75.691 103.445L74.9186 102.718L74.2408 103.526L73.9082 103.939L68.8878 101.889L72.1539 105.963L70.8639 107.903C70.3914 108.401 70.9132 108.899 70.9132 108.899L72.2441 109.809L73.6246 109.299C73.6739 109.299 73.7151 109.311 73.7603 109.315C73.6945 109.523 73.6083 110.34 73.5508 110.568L71.1556 110.099L68.6371 111.512C67.3431 112.455 67.1665 114.018 67.6471 115.088L67.9264 115.696L68.3251 116.553L69.2041 116.19C69.2166 116.186 69.2289 116.182 69.237 116.174C68.9207 117.178 69.0482 118.133 69.615 118.762L70.149 119.431L70.8597 120.326L71.6404 119.493C71.8703 119.264 72.6141 118.435 72.8439 117.725L73.0127 117.182L72.6304 116.766L72.5688 116.692L72.9959 115.99L76.1223 116.721L76.8247 116.88L77.1987 116.267L77.4042 115.933C77.4411 115.863 77.4534 115.851 77.5972 115.851C77.7082 115.851 77.8192 115.863 77.9383 115.888C79.1172 116.108 80.2059 116.219 81.1714 116.219C82.108 116.219 82.6666 116.182 83.3365 115.962C83.3365 115.962 85.0166 117.856 85.0741 117.929L84.0472 121.081L84.0018 121.273C82.0547 121.428 81.1056 121.852 79.9596 122.991C78.2955 121.35 77.1166 121.179 72.6427 121.179C67.2896 121.179 63.6621 118.06 63.6621 113.079V100.901H96.2483L96.2568 113.079C96.2608 117.121 93.8739 119.938 90.115 120.856ZM97.1606 81.2528C96.6633 82.5592 96.2483 83.9757 96.2483 85.3841L96.2525 94.4715C94.3424 94.153 94.1163 92.1079 94.1081 92.018L94.0711 91.6017L93.6604 91.5649C92.8304 91.4872 92.28 91.1364 91.8156 90.6871C90.8791 89.7563 90.8749 88.2459 90.8791 88.2338C90.8668 88.3111 89.8479 89.7278 91.0311 91.2751C91.5282 91.9282 92.2469 92.3283 93.1796 92.4877C93.3974 93.6224 94.2477 95.2228 96.2525 95.4676V99.9177H90.6161C88.0157 98.4804 89.1167 95.9494 89.17 95.8434L89.3918 95.3614L88.8949 95.1739C86.0807 94.1367 86.8531 91.3445 86.8941 91.2262L87.0091 90.8179L86.6272 90.6383C84.3017 89.5688 84.6182 86.6825 84.6468 86.5639C83.9321 87.1397 83.6734 88.3154 84.1663 89.4666C83.8992 89.7688 83.5418 90.1359 83.1516 90.5362C80.7442 89.9278 80.6703 87.7274 80.6703 87.6255L80.6661 87.2866L80.3498 87.1641C79.409 86.817 78.764 86.2986 78.4477 85.6005C78.0902 84.8289 78.2176 84.0205 78.3161 83.6328C78.5914 83.694 78.8667 83.739 79.1297 83.7594C79.4007 83.7878 79.6801 83.8042 79.9596 83.8042H79.976H79.9966C80.2759 83.8042 80.551 83.7878 80.8223 83.7594C82.3217 83.6124 84.0018 82.9714 85.7519 81.2485H97.1606V81.2528ZM88.3772 72.0673L90.6038 73.3534H90.6367L91.1954 73.6759C89.9381 74.0228 88.9768 74.6475 88.1717 75.468C88.143 75.4926 88.1142 75.5251 88.0855 75.5538C87.9006 75.7497 87.7157 75.9621 87.5432 76.1782C87.5105 76.2192 87.4774 76.264 87.4404 76.309C87.2679 76.5294 87.1078 76.7541 86.9516 76.9908C86.927 77.0316 86.8981 77.0724 86.8694 77.1091C86.6848 77.3826 86.508 77.6767 86.3312 77.9786C84.7455 80.6935 82.2147 82.3142 79.9635 82.3183C77.7164 82.3142 75.1858 80.6935 73.6 77.9786C73.4272 77.6849 73.2549 77.3989 73.07 77.1212C73.0329 77.0683 73.0002 77.0152 72.9673 76.9704C72.8112 76.7458 72.6552 76.5254 72.4948 76.3171C72.4538 76.26 72.4169 76.2152 72.3757 76.1661C72.2033 75.9578 72.0265 75.7497 71.8497 75.5578C71.8128 75.5293 71.7883 75.4926 71.7514 75.4597C70.9421 74.6392 69.9847 74.0186 68.7235 73.6759L69.2904 73.3534H69.3151L71.5417 72.0673L73.8301 70.7652L79.9429 74.0717L79.9554 74.0596L79.9717 74.0717L86.0847 70.7652L88.3772 72.0673ZM85.3617 69.328L80.4892 71.8794V61.5511L87.0993 59.3221L85.3617 69.328ZM79.9596 60.4162L72.7125 57.5707C73.329 56.1214 76.1716 54.8886 79.9596 54.8846C83.7513 54.8886 86.5941 56.1214 87.2063 57.5707L79.9596 60.4162Z" fill="black"/>
</g>
<defs>
<clipPath id="clip0_965_11678">
<rect width="110" height="97.4862" fill="white" transform="translate(25 41)"/>
</clipPath>
</defs>
</svg>
