<svg width="160" height="180" viewBox="0 0 160 180" fill="none" xmlns="http://www.w3.org/2000/svg">
<rect y="0.00012207" width="160" height="180" rx="80" fill="#111111"/>
<g clip-path="url(#clip0_965_11717)">
<path d="M37 88.2801C37 68.8205 37 59.0908 43.0453 53.0454C49.0906 47.0001 58.8204 47.0001 78.28 47.0001H81.72C101.18 47.0001 110.909 47.0001 116.955 53.0454C123 59.0908 123 68.8205 123 88.2801V91.7201C123 111.18 123 120.909 116.955 126.955C110.909 133 101.18 133 81.72 133H78.28C58.8204 133 49.0906 133 43.0453 126.955C37 120.909 37 111.18 37 91.7201V88.2801Z" fill="#0077FF"/>
<path d="M83.0454 109C63.5707 109 52.4628 95.4866 52 73.0001H61.7552C62.0756 89.5046 69.2672 96.4956 74.9636 97.9371V73.0001H84.1495V87.2344C89.7747 86.6217 95.684 80.1353 97.6778 73.0001H106.863C105.333 81.7929 98.9241 88.2794 94.3669 90.9461C98.9241 93.1082 106.223 98.7659 109 109H98.8885C96.7167 102.153 91.3056 96.856 84.1495 96.1353V109H83.0454Z" fill="white"/>
</g>
<defs>
<clipPath id="clip0_965_11717">
<rect width="86" height="86" fill="white" transform="translate(37 47.0001)"/>
</clipPath>
</defs>
</svg>
