<svg width="26" height="26" viewBox="0 0 26 26" fill="none" xmlns="http://www.w3.org/2000/svg">
<path d="M14.1777 15H12.3418L12.1855 5H14.3438L14.1777 15ZM13.2598 20.1953C12.9212 20.1953 12.625 20.0749 12.3711 19.834C12.1237 19.5866 12 19.2969 12 18.9648C12 18.6198 12.1237 18.3236 12.3711 18.0762C12.625 17.8223 12.9212 17.6953 13.2598 17.6953C13.6048 17.6953 13.8978 17.8223 14.1387 18.0762C14.3796 18.3236 14.5 18.6198 14.5 18.9648C14.5 19.3034 14.3796 19.5931 14.1387 19.834C13.8978 20.0749 13.6048 20.1953 13.2598 20.1953Z" fill="#FC6470"/>
<rect x="1" y="1" width="24" height="24" rx="12" stroke="#FF8E97"/>
</svg>
