<svg width="63" height="63" viewBox="0 0 63 63" fill="none" xmlns="http://www.w3.org/2000/svg">
<g clip-path="url(#clip0_645_10392)">
<path d="M0 23.5C0 12.422 0 6.88299 3.4415 3.4415C6.88299 0 12.422 0 23.5 0H39.5C50.578 0 56.117 0 59.5585 3.4415C63 6.88299 63 12.422 63 23.5V39.5C63 50.578 63 56.117 59.5585 59.5585C56.117 63 50.578 63 39.5 63H23.5C12.422 63 6.88299 63 3.4415 59.5585C0 56.117 0 50.578 0 39.5V23.5Z" fill="#A8E0FD"/>
<path d="M106.282 36.3257L59.2374 89.1846C57.8655 90.7261 57.1795 91.4969 56.2961 91.4969C55.4128 91.4969 54.7268 90.7261 53.3548 89.1846L6.31052 36.3257C5.21895 35.0992 4.67316 34.486 4.66699 33.7462C4.66083 33.0064 5.19632 32.3841 6.26729 31.1396L26.2037 7.97282C26.6803 7.41903 26.9186 7.14213 27.2318 6.97049C27.5451 6.79885 27.9067 6.74705 28.63 6.64347L55.7379 2.76087C56.0165 2.72096 56.1559 2.701 56.2961 2.701C56.4364 2.701 56.5757 2.72096 56.8544 2.76087L83.9623 6.64347C84.6855 6.74705 85.0472 6.79885 85.3604 6.97049C85.6737 7.14213 85.912 7.41903 86.3886 7.97283L106.325 31.1396C107.396 32.3841 107.931 33.0064 107.925 33.7462C107.919 34.486 107.373 35.0992 106.282 36.3257Z" fill="#D172FD"/>
<path opacity="0.45" fill-rule="evenodd" clip-rule="evenodd" d="M61.6612 34.8511H5.36328L33.7868 65.6809L63.0016 36.2035L92.2164 65.6809L120.64 34.8511H64.342H61.6612Z" fill="#AC64CE"/>
<path opacity="0.45" fill-rule="evenodd" clip-rule="evenodd" d="M28.1484 6.55402L62.9995 34.851L97.8506 6.55402L62.9995 1.34033L28.1484 6.55402Z" fill="#A8E0FD"/>
</g>
<defs>
<clipPath id="clip0_645_10392">
<path d="M0 23.5C0 12.422 0 6.88299 3.4415 3.4415C6.88299 0 12.422 0 23.5 0H39.5C50.578 0 56.117 0 59.5585 3.4415C63 6.88299 63 12.422 63 23.5V39.5C63 50.578 63 56.117 59.5585 59.5585C56.117 63 50.578 63 39.5 63H23.5C12.422 63 6.88299 63 3.4415 59.5585C0 56.117 0 50.578 0 39.5V23.5Z" fill="white"/>
</clipPath>
</defs>
</svg>
