<svg width="605" height="76" viewBox="0 0 605 76" fill="none" xmlns="http://www.w3.org/2000/svg">
<g clip-path="url(#clip0_551_10858)">
<rect width="605" height="76" rx="12" fill="#292929"/>
<g opacity="0.67" filter="url(#filter0_f_551_10858)">
<path d="M497.127 -29.3374C423.39 -106.186 315.142 -162.139 190.829 -187.664C66.5162 -213.188 -66.1707 -206.705 -184.623 -169.318C-303.076 -131.931 -399.965 -65.9538 -458.782 17.3717C-517.6 100.697 -534.706 196.215 -507.186 287.652C-479.666 379.088 -409.223 460.784 -307.859 518.82C-206.496 576.857 -80.4831 607.643 48.7072 605.932C177.898 604.222 302.272 570.121 400.64 509.441C499.007 448.76 565.281 365.254 588.168 273.15L368.301 244.49C354.568 299.752 314.804 349.856 255.784 386.264C196.763 422.673 122.139 443.133 44.6243 444.159C-32.8899 445.186 -108.497 426.714 -169.316 391.892C-230.134 357.07 -272.4 308.053 -288.911 253.191C-305.423 198.329 -295.16 141.018 -259.869 91.023C-224.579 41.0277 -166.446 1.44147 -95.374 -20.9907C-24.3024 -43.4228 55.3098 -47.313 129.898 -31.9982C204.485 -16.6835 269.434 16.8885 313.676 62.9975L497.127 -29.3374Z" fill="#BFFFA7"/>
</g>
</g>
<defs>
<filter id="filter0_f_551_10858" x="-776" y="-459" width="1620.17" height="1321" filterUnits="userSpaceOnUse" color-interpolation-filters="sRGB">
<feFlood flood-opacity="0" result="BackgroundImageFix"/>
<feBlend mode="normal" in="SourceGraphic" in2="BackgroundImageFix" result="shape"/>
<feGaussianBlur stdDeviation="128" result="effect1_foregroundBlur_551_10858"/>
</filter>
<clipPath id="clip0_551_10858">
<rect width="605" height="76" rx="12" fill="white"/>
</clipPath>
</defs>
</svg>
