<svg width="761" height="792" viewBox="0 0 761 792" fill="none" xmlns="http://www.w3.org/2000/svg">
<g filter="url(#filter0_dii_898_11488)">
<path d="M608.419 288.551C583.799 324.505 579.045 361.237 580.15 377.031C609.379 485.687 563.004 634.812 417.763 644C370.217 643.452 327.604 603.936 312.241 584.247C259.632 544.571 199.53 469.895 166.295 424.234C157.25 411.808 147.842 395.422 157.279 383.29C165.851 372.269 182.977 368.183 193.663 374.683C204.919 381.53 288.625 477.125 292.916 456.315L161.748 300.298C153.981 290.872 145.94 280.388 146 268.174C146.042 259.871 149.628 254.36 155.074 250.852C177.767 236.236 205.066 258.748 222.19 279.615L320.079 391.668C329.433 403.067 339.78 394.335 329.06 381.675L203.951 217.555C192.981 203.164 180.831 184.99 188.601 168.647C192.42 160.613 199.845 157.05 208.363 156.146C230.153 153.834 247.946 171.248 260.93 188.9L369.554 336.582C371.989 339.892 377.925 344.216 381.683 340.618C384.461 337.958 382.747 333.513 380.604 330.319C349.122 283.406 287.734 190.683 282.571 173.851C273.563 144.489 311.223 128.738 335.532 160.47C361.808 194.771 439.061 296.265 472.177 346.823C505.098 359.755 518.477 335.085 521.051 321.134C509.51 278.759 569.753 215.65 609.085 251.235C619.578 260.728 616.414 276.876 608.419 288.551Z" fill="#FBFCFE" fill-opacity="0.19" shape-rendering="crispEdges"/>
<path d="M577.72 377.201L577.737 377.436L577.798 377.664C592.272 431.47 588.009 495.295 562.206 546.724C536.467 598.025 489.315 637.003 417.701 641.564C394.609 641.273 372.566 631.526 354.289 619.278C336.001 607.023 321.694 592.403 314.161 582.749L313.964 582.496L313.708 582.302C261.41 542.862 201.487 468.446 168.264 422.801C163.772 416.63 159.354 409.686 157.175 402.907C155.013 396.178 155.157 389.985 159.201 384.785C163.106 379.766 169.023 376.261 175.24 374.786C181.473 373.307 187.733 373.927 192.397 376.764C193.532 377.454 195.87 379.488 199.3 382.77C202.647 385.973 206.836 390.166 211.585 394.966C213.432 396.832 215.362 398.789 217.357 400.813C225.608 409.179 234.979 418.681 244.207 427.62C255.643 438.697 266.976 449.026 275.768 455.286C280.102 458.372 284.103 460.681 287.327 461.434C288.954 461.814 290.752 461.887 292.339 461.065C294.029 460.189 294.933 458.591 295.301 456.806L295.54 455.651L294.78 454.747L163.628 298.749C163.625 298.746 163.623 298.743 163.62 298.74C155.768 289.21 148.38 279.386 148.436 268.186C148.473 260.723 151.625 255.97 156.392 252.9C166.7 246.261 178.177 247.887 189.558 254.068C200.968 260.264 211.839 270.841 220.307 281.16L220.331 281.189L220.355 281.217L318.22 393.243C320.769 396.34 323.559 398.288 326.286 399.043C329.05 399.809 331.837 399.337 333.792 397.443C335.721 395.574 336.38 392.767 335.899 389.792C335.42 386.83 333.812 383.531 330.96 380.15L205.888 216.079C200.411 208.894 194.807 200.972 191.502 192.909C188.209 184.877 187.319 177.014 190.8 169.692C194.134 162.681 200.617 159.417 208.62 158.568C218.751 157.493 228.062 160.979 236.535 167.02C245.03 173.077 252.546 181.612 258.968 190.343L367.593 338.025C369.012 339.955 371.411 342.156 374.1 343.401C376.796 344.648 380.451 345.169 383.367 342.377C385.55 340.287 385.825 337.555 385.382 335.215C384.948 332.924 383.793 330.701 382.626 328.962C366.888 305.511 343.683 270.619 323.769 239.492C313.811 223.927 304.688 209.32 297.736 197.563C294.259 191.684 291.337 186.536 289.129 182.347C286.895 178.109 285.47 175 284.899 173.137C282.81 166.329 283.474 160.506 285.79 156.03C288.114 151.539 292.199 148.209 297.303 146.569C307.46 143.303 321.939 146.731 333.598 161.951C359.896 196.279 437.084 297.692 470.14 348.157L470.565 348.806L471.287 349.09C488.444 355.829 500.969 352.875 509.526 345.953C517.895 339.183 522.09 328.923 523.446 321.576L523.546 321.03L523.4 320.494C520.695 310.561 522.159 299.236 526.66 288.255C531.155 277.288 538.613 266.839 547.617 258.763C556.631 250.676 567.06 245.085 577.458 243.596C587.771 242.12 598.177 244.651 607.451 253.041C612.021 257.176 613.694 262.786 613.256 268.901C612.814 275.065 610.218 281.614 606.41 287.175C581.465 323.603 576.579 360.885 577.72 377.201Z" stroke="url(#paint0_linear_898_11488)" stroke-width="4.8708" shape-rendering="crispEdges"/>
</g>
<g filter="url(#filter1_dii_898_11488)">
<path d="M608.419 288.551C583.799 324.505 579.045 361.237 580.15 377.031C609.379 485.687 563.004 634.812 417.763 644C370.217 643.452 327.604 603.936 312.241 584.247C259.632 544.571 199.53 469.895 166.295 424.234C157.25 411.808 147.842 395.422 157.279 383.29C165.851 372.269 182.977 368.183 193.663 374.683C204.919 381.53 288.625 477.125 292.916 456.315L161.748 300.298C153.981 290.872 145.94 280.388 146 268.174C146.042 259.871 149.628 254.36 155.074 250.852C177.767 236.236 205.066 258.748 222.19 279.615L320.079 391.668C329.433 403.067 339.78 394.335 329.06 381.675L203.951 217.555C192.981 203.164 180.831 184.99 188.601 168.647C192.42 160.613 199.845 157.05 208.363 156.146C230.153 153.834 247.946 171.248 260.93 188.9L369.554 336.582C371.989 339.892 377.925 344.216 381.683 340.618C384.461 337.958 382.747 333.513 380.604 330.319C349.122 283.406 287.734 190.683 282.571 173.851C273.563 144.489 311.223 128.738 335.532 160.47C361.808 194.771 439.061 296.265 472.177 346.823C505.098 359.755 518.477 335.085 521.051 321.134C509.51 278.759 569.753 215.65 609.085 251.235C619.578 260.728 616.414 276.876 608.419 288.551Z" fill="#FBFCFE" fill-opacity="0.19" shape-rendering="crispEdges"/>
<path d="M577.72 377.201L577.737 377.436L577.798 377.664C592.272 431.47 588.009 495.295 562.206 546.724C536.467 598.025 489.315 637.003 417.701 641.564C394.609 641.273 372.566 631.526 354.289 619.278C336.001 607.023 321.694 592.403 314.161 582.749L313.964 582.496L313.708 582.302C261.41 542.862 201.487 468.446 168.264 422.801C163.772 416.63 159.354 409.686 157.175 402.907C155.013 396.178 155.157 389.985 159.201 384.785C163.106 379.766 169.023 376.261 175.24 374.786C181.473 373.307 187.733 373.927 192.397 376.764C193.532 377.454 195.87 379.488 199.3 382.77C202.647 385.973 206.836 390.166 211.585 394.966C213.432 396.832 215.362 398.789 217.357 400.813C225.608 409.179 234.979 418.681 244.207 427.62C255.643 438.697 266.976 449.026 275.768 455.286C280.102 458.372 284.103 460.681 287.327 461.434C288.954 461.814 290.752 461.887 292.339 461.065C294.029 460.189 294.933 458.591 295.301 456.806L295.54 455.651L294.78 454.747L163.628 298.749C163.625 298.746 163.623 298.743 163.62 298.74C155.768 289.21 148.38 279.386 148.436 268.186C148.473 260.723 151.625 255.97 156.392 252.9C166.7 246.261 178.177 247.887 189.558 254.068C200.968 260.264 211.839 270.841 220.307 281.16L220.331 281.189L220.355 281.217L318.22 393.243C320.769 396.34 323.559 398.288 326.286 399.043C329.05 399.809 331.837 399.337 333.792 397.443C335.721 395.574 336.38 392.767 335.899 389.792C335.42 386.83 333.812 383.531 330.96 380.15L205.888 216.079C200.411 208.894 194.807 200.972 191.502 192.909C188.209 184.877 187.319 177.014 190.8 169.692C194.134 162.681 200.617 159.417 208.62 158.568C218.751 157.493 228.062 160.979 236.535 167.02C245.03 173.077 252.546 181.612 258.968 190.343L367.593 338.025C369.012 339.955 371.411 342.156 374.1 343.401C376.796 344.648 380.451 345.169 383.367 342.377C385.55 340.287 385.825 337.555 385.382 335.215C384.948 332.924 383.793 330.701 382.626 328.962C366.888 305.511 343.683 270.619 323.769 239.492C313.811 223.927 304.688 209.32 297.736 197.563C294.259 191.684 291.337 186.536 289.129 182.347C286.895 178.109 285.47 175 284.899 173.137C282.81 166.329 283.474 160.506 285.79 156.03C288.114 151.539 292.199 148.209 297.303 146.569C307.46 143.303 321.939 146.731 333.598 161.951C359.896 196.279 437.084 297.692 470.14 348.157L470.565 348.806L471.287 349.09C488.444 355.829 500.969 352.875 509.526 345.953C517.895 339.183 522.09 328.923 523.446 321.576L523.546 321.03L523.4 320.494C520.695 310.561 522.159 299.236 526.66 288.255C531.155 277.288 538.613 266.839 547.617 258.763C556.631 250.676 567.06 245.085 577.458 243.596C587.771 242.12 598.177 244.651 607.451 253.041C612.021 257.176 613.694 262.786 613.256 268.901C612.814 275.065 610.218 281.614 606.41 287.175C581.465 323.603 576.579 360.885 577.72 377.201Z" stroke="url(#paint1_linear_898_11488)" stroke-width="4.8708" shape-rendering="crispEdges"/>
</g>
<defs>
<filter id="filter0_dii_898_11488" x="0.789993" y="0.109993" width="760.178" height="791.42" filterUnits="userSpaceOnUse" color-interpolation-filters="sRGB">
<feFlood flood-opacity="0" result="BackgroundImageFix"/>
<feColorMatrix in="SourceAlpha" type="matrix" values="0 0 0 0 0 0 0 0 0 0 0 0 0 0 0 0 0 0 127 0" result="hardAlpha"/>
<feOffset dy="2.32"/>
<feGaussianBlur stdDeviation="72.605"/>
<feComposite in2="hardAlpha" operator="out"/>
<feColorMatrix type="matrix" values="0 0 0 0 1 0 0 0 0 0.901961 0 0 0 0 0.631373 0 0 0 0.32 0"/>
<feBlend mode="normal" in2="BackgroundImageFix" result="effect1_dropShadow_898_11488"/>
<feBlend mode="normal" in="SourceGraphic" in2="effect1_dropShadow_898_11488" result="shape"/>
<feColorMatrix in="SourceAlpha" type="matrix" values="0 0 0 0 0 0 0 0 0 0 0 0 0 0 0 0 0 0 127 0" result="hardAlpha"/>
<feOffset dy="-22.8163"/>
<feGaussianBlur stdDeviation="55.4054"/>
<feComposite in2="hardAlpha" operator="arithmetic" k2="-1" k3="1"/>
<feColorMatrix type="matrix" values="0 0 0 0 1 0 0 0 0 0.901 0 0 0 0 0.633333 0 0 0 1 0"/>
<feBlend mode="normal" in2="shape" result="effect2_innerShadow_898_11488"/>
<feColorMatrix in="SourceAlpha" type="matrix" values="0 0 0 0 0 0 0 0 0 0 0 0 0 0 0 0 0 0 127 0" result="hardAlpha"/>
<feOffset dx="-6" dy="32.8779"/>
<feGaussianBlur stdDeviation="27.3983"/>
<feComposite in2="hardAlpha" operator="arithmetic" k2="-1" k3="1"/>
<feColorMatrix type="matrix" values="0 0 0 0 1 0 0 0 0 0.901961 0 0 0 0 0.631373 0 0 0 0.7 0"/>
<feBlend mode="normal" in2="effect2_innerShadow_898_11488" result="effect3_innerShadow_898_11488"/>
</filter>
<filter id="filter1_dii_898_11488" x="0.789993" y="0.109993" width="760.178" height="791.42" filterUnits="userSpaceOnUse" color-interpolation-filters="sRGB">
<feFlood flood-opacity="0" result="BackgroundImageFix"/>
<feColorMatrix in="SourceAlpha" type="matrix" values="0 0 0 0 0 0 0 0 0 0 0 0 0 0 0 0 0 0 127 0" result="hardAlpha"/>
<feOffset dy="2.32"/>
<feGaussianBlur stdDeviation="72.605"/>
<feComposite in2="hardAlpha" operator="out"/>
<feColorMatrix type="matrix" values="0 0 0 0 1 0 0 0 0 0.901961 0 0 0 0 0.631373 0 0 0 0.32 0"/>
<feBlend mode="normal" in2="BackgroundImageFix" result="effect1_dropShadow_898_11488"/>
<feBlend mode="normal" in="SourceGraphic" in2="effect1_dropShadow_898_11488" result="shape"/>
<feColorMatrix in="SourceAlpha" type="matrix" values="0 0 0 0 0 0 0 0 0 0 0 0 0 0 0 0 0 0 127 0" result="hardAlpha"/>
<feOffset dy="-22.8163"/>
<feGaussianBlur stdDeviation="55.4054"/>
<feComposite in2="hardAlpha" operator="arithmetic" k2="-1" k3="1"/>
<feColorMatrix type="matrix" values="0 0 0 0 1 0 0 0 0 0.901 0 0 0 0 0.633333 0 0 0 1 0"/>
<feBlend mode="normal" in2="shape" result="effect2_innerShadow_898_11488"/>
<feColorMatrix in="SourceAlpha" type="matrix" values="0 0 0 0 0 0 0 0 0 0 0 0 0 0 0 0 0 0 127 0" result="hardAlpha"/>
<feOffset dx="-6" dy="32.8779"/>
<feGaussianBlur stdDeviation="27.3983"/>
<feComposite in2="hardAlpha" operator="arithmetic" k2="-1" k3="1"/>
<feColorMatrix type="matrix" values="0 0 0 0 1 0 0 0 0 0.901961 0 0 0 0 0.631373 0 0 0 0.7 0"/>
<feBlend mode="normal" in2="effect2_innerShadow_898_11488" result="effect3_innerShadow_898_11488"/>
</filter>
<linearGradient id="paint0_linear_898_11488" x1="171.5" y1="72.5" x2="336.5" y2="394" gradientUnits="userSpaceOnUse">
<stop stop-color="#FFE6A1"/>
<stop offset="0.7781" stop-color="#FFE6A1" stop-opacity="0"/>
</linearGradient>
<linearGradient id="paint1_linear_898_11488" x1="171.5" y1="72.5" x2="336.5" y2="394" gradientUnits="userSpaceOnUse">
<stop stop-color="#FFE6A1"/>
<stop offset="0.7781" stop-color="#FFE6A1" stop-opacity="0"/>
</linearGradient>
</defs>
</svg>
