<svg width="679" height="775" viewBox="0 0 679 775" fill="none" xmlns="http://www.w3.org/2000/svg">
<g filter="url(#filter0_dii_898_11485)">
<path d="M447.31 249.501C447.31 308.872 399.18 357.002 339.809 357.002C280.438 357.002 232.308 308.872 232.308 249.501C232.308 190.13 280.438 142 339.809 142C399.18 142 447.31 190.13 447.31 249.501Z" fill="#FBFCFE" fill-opacity="0.19" shape-rendering="crispEdges"/>
<path d="M533.609 539.06C533.609 653.647 146 653.647 146 539.06C146 456.074 232.769 388.801 339.805 388.801C446.84 388.801 533.609 456.074 533.609 539.06Z" fill="#FBFCFE" fill-opacity="0.19" shape-rendering="crispEdges"/>
<path d="M443.977 249.501C443.977 307.031 397.339 353.669 339.809 353.669C282.279 353.669 235.642 307.031 235.642 249.501C235.642 191.971 282.279 145.333 339.809 145.333C397.339 145.333 443.977 191.971 443.977 249.501ZM149.333 539.06C149.333 458.654 233.771 392.134 339.805 392.134C445.838 392.134 530.276 458.654 530.276 539.06C530.276 565.498 507.908 586.19 471.823 600.414C435.995 614.536 387.991 621.667 339.805 621.667C291.618 621.667 243.614 614.536 207.786 600.414C171.701 586.19 149.333 565.498 149.333 539.06Z" stroke="url(#paint0_linear_898_11485)" stroke-width="6.66672" shape-rendering="crispEdges"/>
</g>
<g filter="url(#filter1_dii_898_11485)">
<path d="M447.31 249.501C447.31 308.872 399.18 357.002 339.809 357.002C280.438 357.002 232.308 308.872 232.308 249.501C232.308 190.13 280.438 142 339.809 142C399.18 142 447.31 190.13 447.31 249.501Z" fill="#FBFCFE" fill-opacity="0.19" shape-rendering="crispEdges"/>
<path d="M533.609 539.06C533.609 653.647 146 653.647 146 539.06C146 456.074 232.769 388.801 339.805 388.801C446.84 388.801 533.609 456.074 533.609 539.06Z" fill="#FBFCFE" fill-opacity="0.19" shape-rendering="crispEdges"/>
<path d="M443.977 249.501C443.977 307.031 397.339 353.669 339.809 353.669C282.279 353.669 235.642 307.031 235.642 249.501C235.642 191.971 282.279 145.333 339.809 145.333C397.339 145.333 443.977 191.971 443.977 249.501ZM149.333 539.06C149.333 458.654 233.771 392.134 339.805 392.134C445.838 392.134 530.276 458.654 530.276 539.06C530.276 565.498 507.908 586.19 471.823 600.414C435.995 614.536 387.991 621.667 339.805 621.667C291.618 621.667 243.614 614.536 207.786 600.414C171.701 586.19 149.333 565.498 149.333 539.06Z" stroke="url(#paint1_linear_898_11485)" stroke-width="6.66672" shape-rendering="crispEdges"/>
</g>
<defs>
<filter id="filter0_dii_898_11485" x="0.800003" y="0.800003" width="678.009" height="773.4" filterUnits="userSpaceOnUse" color-interpolation-filters="sRGB">
<feFlood flood-opacity="0" result="BackgroundImageFix"/>
<feColorMatrix in="SourceAlpha" type="matrix" values="0 0 0 0 0 0 0 0 0 0 0 0 0 0 0 0 0 0 127 0" result="hardAlpha"/>
<feOffset dy="4"/>
<feGaussianBlur stdDeviation="72.6"/>
<feComposite in2="hardAlpha" operator="out"/>
<feColorMatrix type="matrix" values="0 0 0 0 0.737255 0 0 0 0 0.984314 0 0 0 0 0.647059 0 0 0 0.32 0"/>
<feBlend mode="normal" in2="BackgroundImageFix" result="effect1_dropShadow_898_11485"/>
<feBlend mode="normal" in="SourceGraphic" in2="effect1_dropShadow_898_11485" result="shape"/>
<feColorMatrix in="SourceAlpha" type="matrix" values="0 0 0 0 0 0 0 0 0 0 0 0 0 0 0 0 0 0 127 0" result="hardAlpha"/>
<feOffset dy="11.6668"/>
<feGaussianBlur stdDeviation="75.8339"/>
<feComposite in2="hardAlpha" operator="arithmetic" k2="-1" k3="1"/>
<feColorMatrix type="matrix" values="0 0 0 0 0.737255 0 0 0 0 0.984314 0 0 0 0 0.647059 0 0 0 1 0"/>
<feBlend mode="normal" in2="shape" result="effect2_innerShadow_898_11485"/>
<feColorMatrix in="SourceAlpha" type="matrix" values="0 0 0 0 0 0 0 0 0 0 0 0 0 0 0 0 0 0 127 0" result="hardAlpha"/>
<feOffset dx="-66.6672" dy="45.0003"/>
<feGaussianBlur stdDeviation="37.5003"/>
<feComposite in2="hardAlpha" operator="arithmetic" k2="-1" k3="1"/>
<feColorMatrix type="matrix" values="0 0 0 0 0.737255 0 0 0 0 0.984314 0 0 0 0 0.647059 0 0 0 0.7 0"/>
<feBlend mode="normal" in2="effect2_innerShadow_898_11485" result="effect3_innerShadow_898_11485"/>
</filter>
<filter id="filter1_dii_898_11485" x="0.800003" y="0.800003" width="678.009" height="773.4" filterUnits="userSpaceOnUse" color-interpolation-filters="sRGB">
<feFlood flood-opacity="0" result="BackgroundImageFix"/>
<feColorMatrix in="SourceAlpha" type="matrix" values="0 0 0 0 0 0 0 0 0 0 0 0 0 0 0 0 0 0 127 0" result="hardAlpha"/>
<feOffset dy="4"/>
<feGaussianBlur stdDeviation="72.6"/>
<feComposite in2="hardAlpha" operator="out"/>
<feColorMatrix type="matrix" values="0 0 0 0 0.737255 0 0 0 0 0.984314 0 0 0 0 0.647059 0 0 0 0.32 0"/>
<feBlend mode="normal" in2="BackgroundImageFix" result="effect1_dropShadow_898_11485"/>
<feBlend mode="normal" in="SourceGraphic" in2="effect1_dropShadow_898_11485" result="shape"/>
<feColorMatrix in="SourceAlpha" type="matrix" values="0 0 0 0 0 0 0 0 0 0 0 0 0 0 0 0 0 0 127 0" result="hardAlpha"/>
<feOffset dy="11.6668"/>
<feGaussianBlur stdDeviation="75.8339"/>
<feComposite in2="hardAlpha" operator="arithmetic" k2="-1" k3="1"/>
<feColorMatrix type="matrix" values="0 0 0 0 0.737255 0 0 0 0 0.984314 0 0 0 0 0.647059 0 0 0 1 0"/>
<feBlend mode="normal" in2="shape" result="effect2_innerShadow_898_11485"/>
<feColorMatrix in="SourceAlpha" type="matrix" values="0 0 0 0 0 0 0 0 0 0 0 0 0 0 0 0 0 0 127 0" result="hardAlpha"/>
<feOffset dx="-66.6672" dy="45.0003"/>
<feGaussianBlur stdDeviation="37.5003"/>
<feComposite in2="hardAlpha" operator="arithmetic" k2="-1" k3="1"/>
<feColorMatrix type="matrix" values="0 0 0 0 0.737255 0 0 0 0 0.984314 0 0 0 0 0.647059 0 0 0 0.7 0"/>
<feBlend mode="normal" in2="effect2_innerShadow_898_11485" result="effect3_innerShadow_898_11485"/>
</filter>
<linearGradient id="paint0_linear_898_11485" x1="339.805" y1="142" x2="339.805" y2="625" gradientUnits="userSpaceOnUse">
<stop stop-color="#BCFBA5"/>
<stop offset="0.504166" stop-color="#BCFBA5" stop-opacity="0"/>
<stop offset="1" stop-color="#BCFBA5" stop-opacity="0"/>
</linearGradient>
<linearGradient id="paint1_linear_898_11485" x1="339.805" y1="142" x2="339.805" y2="625" gradientUnits="userSpaceOnUse">
<stop stop-color="#BCFBA5"/>
<stop offset="0.504166" stop-color="#BCFBA5" stop-opacity="0"/>
<stop offset="1" stop-color="#BCFBA5" stop-opacity="0"/>
</linearGradient>
</defs>
</svg>
