<svg width="775" height="774" viewBox="0 0 775 774" fill="none" xmlns="http://www.w3.org/2000/svg">
<g filter="url(#filter0_dii_898_11482)">
<path d="M146 354.904C146 74.1171 629 70.6189 629 354.904C629 530.448 473.002 595.854 322.172 564.232C285.342 607.469 220.073 623.427 191.999 626.002C223.188 594.498 227.208 549.649 224.603 522.547C175.716 486.601 146 430.845 146 354.904Z" fill="#FBFCFE" fill-opacity="0.19" shape-rendering="crispEdges"/>
<path d="M323.36 558.568L319.996 557.863L317.767 560.479C300.18 581.126 275.591 595.472 251.664 604.988C235.123 611.566 219.115 615.75 206.352 618.114C229.875 586.272 232.734 546.663 230.364 521.993L230.116 519.418L228.032 517.885C180.743 483.114 151.787 429.153 151.787 354.904C151.787 286.573 181.087 235.357 225.031 201.03C269.127 166.584 328.191 149.004 387.521 148.789C446.851 148.574 505.898 165.726 549.976 200.051C593.896 234.254 623.213 285.676 623.213 354.904C623.213 440.696 585.237 499.011 529.193 532.279C472.866 565.715 397.712 574.156 323.36 558.568Z" stroke="url(#paint0_linear_898_11482)" stroke-width="11.5739" shape-rendering="crispEdges"/>
</g>
<g filter="url(#filter1_dii_898_11482)">
<path d="M146 354.904C146 74.1171 629 70.6189 629 354.904C629 530.448 473.002 595.854 322.172 564.232C285.342 607.469 220.073 623.427 191.999 626.002C223.188 594.498 227.208 549.649 224.603 522.547C175.716 486.601 146 430.845 146 354.904Z" fill="#FBFCFE" fill-opacity="0.19" shape-rendering="crispEdges"/>
<path d="M323.36 558.568L319.996 557.863L317.767 560.479C300.18 581.126 275.591 595.472 251.664 604.988C235.123 611.566 219.115 615.75 206.352 618.114C229.875 586.272 232.734 546.663 230.364 521.993L230.116 519.418L228.032 517.885C180.743 483.114 151.787 429.153 151.787 354.904C151.787 286.573 181.087 235.357 225.031 201.03C269.127 166.584 328.191 149.004 387.521 148.789C446.851 148.574 505.898 165.726 549.976 200.051C593.896 234.254 623.213 285.676 623.213 354.904C623.213 440.696 585.237 499.011 529.193 532.279C472.866 565.715 397.712 574.156 323.36 558.568Z" stroke="url(#paint1_linear_898_11482)" stroke-width="11.5739" shape-rendering="crispEdges"/>
</g>
<defs>
<filter id="filter0_dii_898_11482" x="0.789993" y="0.109993" width="773.42" height="773.422" filterUnits="userSpaceOnUse" color-interpolation-filters="sRGB">
<feFlood flood-opacity="0" result="BackgroundImageFix"/>
<feColorMatrix in="SourceAlpha" type="matrix" values="0 0 0 0 0 0 0 0 0 0 0 0 0 0 0 0 0 0 127 0" result="hardAlpha"/>
<feOffset dy="2.32"/>
<feGaussianBlur stdDeviation="72.605"/>
<feComposite in2="hardAlpha" operator="out"/>
<feColorMatrix type="matrix" values="0 0 0 0 0.658824 0 0 0 0 0.72549 0 0 0 0 0.866667 0 0 0 0.32 0"/>
<feBlend mode="normal" in2="BackgroundImageFix" result="effect1_dropShadow_898_11482"/>
<feBlend mode="normal" in="SourceGraphic" in2="effect1_dropShadow_898_11482" result="shape"/>
<feColorMatrix in="SourceAlpha" type="matrix" values="0 0 0 0 0 0 0 0 0 0 0 0 0 0 0 0 0 0 127 0" result="hardAlpha"/>
<feOffset dy="20.2542"/>
<feGaussianBlur stdDeviation="131.653"/>
<feComposite in2="hardAlpha" operator="arithmetic" k2="-1" k3="1"/>
<feColorMatrix type="matrix" values="0 0 0 0 0.823529 0 0 0 0 0.843137 0 0 0 0 0.933333 0 0 0 1 0"/>
<feBlend mode="normal" in2="shape" result="effect2_innerShadow_898_11482"/>
<feColorMatrix in="SourceAlpha" type="matrix" values="0 0 0 0 0 0 0 0 0 0 0 0 0 0 0 0 0 0 127 0" result="hardAlpha"/>
<feOffset dx="-115.739" dy="78.1235"/>
<feGaussianBlur stdDeviation="65.1029"/>
<feComposite in2="hardAlpha" operator="arithmetic" k2="-1" k3="1"/>
<feColorMatrix type="matrix" values="0 0 0 0 0.658824 0 0 0 0 0.72549 0 0 0 0 0.866667 0 0 0 0.7 0"/>
<feBlend mode="normal" in2="effect2_innerShadow_898_11482" result="effect3_innerShadow_898_11482"/>
</filter>
<filter id="filter1_dii_898_11482" x="0.789993" y="0.109993" width="773.42" height="773.422" filterUnits="userSpaceOnUse" color-interpolation-filters="sRGB">
<feFlood flood-opacity="0" result="BackgroundImageFix"/>
<feColorMatrix in="SourceAlpha" type="matrix" values="0 0 0 0 0 0 0 0 0 0 0 0 0 0 0 0 0 0 127 0" result="hardAlpha"/>
<feOffset dy="2.32"/>
<feGaussianBlur stdDeviation="72.605"/>
<feComposite in2="hardAlpha" operator="out"/>
<feColorMatrix type="matrix" values="0 0 0 0 0.658824 0 0 0 0 0.72549 0 0 0 0 0.866667 0 0 0 0.32 0"/>
<feBlend mode="normal" in2="BackgroundImageFix" result="effect1_dropShadow_898_11482"/>
<feBlend mode="normal" in="SourceGraphic" in2="effect1_dropShadow_898_11482" result="shape"/>
<feColorMatrix in="SourceAlpha" type="matrix" values="0 0 0 0 0 0 0 0 0 0 0 0 0 0 0 0 0 0 127 0" result="hardAlpha"/>
<feOffset dy="20.2542"/>
<feGaussianBlur stdDeviation="131.653"/>
<feComposite in2="hardAlpha" operator="arithmetic" k2="-1" k3="1"/>
<feColorMatrix type="matrix" values="0 0 0 0 0.823529 0 0 0 0 0.843137 0 0 0 0 0.933333 0 0 0 1 0"/>
<feBlend mode="normal" in2="shape" result="effect2_innerShadow_898_11482"/>
<feColorMatrix in="SourceAlpha" type="matrix" values="0 0 0 0 0 0 0 0 0 0 0 0 0 0 0 0 0 0 127 0" result="hardAlpha"/>
<feOffset dx="-115.739" dy="78.1235"/>
<feGaussianBlur stdDeviation="65.1029"/>
<feComposite in2="hardAlpha" operator="arithmetic" k2="-1" k3="1"/>
<feColorMatrix type="matrix" values="0 0 0 0 0.658824 0 0 0 0 0.72549 0 0 0 0 0.866667 0 0 0 0.7 0"/>
<feBlend mode="normal" in2="effect2_innerShadow_898_11482" result="effect3_innerShadow_898_11482"/>
</filter>
<linearGradient id="paint0_linear_898_11482" x1="387.5" y1="143" x2="387.5" y2="626.002" gradientUnits="userSpaceOnUse">
<stop stop-color="#B5BDD4"/>
<stop offset="0.865831" stop-color="#B5BDD4" stop-opacity="0"/>
<stop offset="1" stop-color="#B5BDD4" stop-opacity="0.56"/>
</linearGradient>
<linearGradient id="paint1_linear_898_11482" x1="387.5" y1="143" x2="387.5" y2="626.002" gradientUnits="userSpaceOnUse">
<stop stop-color="#B5BDD4"/>
<stop offset="0.865831" stop-color="#B5BDD4" stop-opacity="0"/>
<stop offset="1" stop-color="#B5BDD4" stop-opacity="0.56"/>
</linearGradient>
</defs>
</svg>
