<svg width="636" height="812" viewBox="0 0 636 812" fill="none" xmlns="http://www.w3.org/2000/svg">
<g filter="url(#filter0_dii_898_11479)">
<path d="M471.49 216.506C470.71 208.183 476.703 195.29 483.393 184.029C489.67 173.462 487.884 160.994 475.898 158.275C386.107 137.91 250.405 137.906 160.598 158.275C148.612 160.994 146.826 173.462 153.103 184.029C159.793 195.29 165.786 208.183 165.006 216.506C163.454 233.058 140.601 327.717 272.496 390.078C277.734 392.554 282.834 394.512 283.97 400.193C285.916 409.919 275.882 418.235 267.313 423.23C211.108 455.992 128.345 524.281 165.006 586.292C159.027 594.205 146.859 613.723 146.015 628.493C143.327 675.536 493.203 676.134 490.481 628.493C489.637 613.723 477.469 594.205 471.49 586.292C508.151 524.281 425.388 455.992 369.184 423.23C360.614 418.235 350.581 409.919 352.526 400.193C353.662 394.512 358.762 392.554 364 390.078C495.896 327.717 473.042 233.058 471.49 216.506Z" fill="#FBFCFE" fill-opacity="0.19" shape-rendering="crispEdges"/>
<path d="M469.674 585.219L468.954 586.436L469.807 587.564C472.727 591.429 477.194 598.18 481.027 605.772C484.883 613.409 487.977 621.668 488.374 628.614C488.503 630.875 487.617 633.127 485.484 635.426C483.324 637.756 479.968 640.031 475.44 642.198C466.391 646.528 453.174 650.189 437.05 653.131C404.844 659.009 361.587 661.927 318.263 661.89C274.939 661.852 231.678 658.86 199.467 652.963C183.34 650.011 170.118 646.355 161.063 642.048C156.532 639.893 153.173 637.635 151.011 635.326C148.876 633.048 147.995 630.828 148.122 628.614C148.519 621.668 151.613 613.409 155.469 605.772C159.302 598.18 163.77 591.429 166.689 587.564L167.542 586.436L166.822 585.218C149.168 555.357 160.046 523.783 182.982 495.111C205.889 466.476 240.385 441.369 268.375 425.053C272.759 422.498 277.637 419.029 281.191 414.853C284.743 410.681 287.189 405.529 286.039 399.779C285.342 396.295 283.398 393.965 281.014 392.228C279.073 390.815 276.726 389.722 274.53 388.699C274.147 388.521 273.769 388.345 273.398 388.17C207.914 357.209 181.102 318.38 170.721 285.479C161.698 256.885 164.995 232.604 166.558 221.096C166.8 219.316 167 217.841 167.107 216.703C167.545 212.033 166.087 206.347 163.819 200.595C161.525 194.781 158.295 188.637 154.917 182.951C151.988 178.02 151.053 172.825 152.053 168.707C153.021 164.719 155.842 161.518 161.065 160.333C250.565 140.034 385.947 140.038 475.432 160.333C480.655 161.518 483.475 164.719 484.444 168.707C485.444 172.825 484.508 178.02 481.579 182.951C478.202 188.637 474.971 194.781 472.678 200.595C470.409 206.347 468.952 212.033 469.39 216.703C469.496 217.841 469.697 219.316 469.938 221.097C471.501 232.604 474.798 256.885 465.776 285.479C455.394 318.38 428.582 357.209 363.098 388.17C362.727 388.345 362.349 388.521 361.967 388.7C359.77 389.722 357.423 390.815 355.483 392.228C353.098 393.965 351.154 396.295 350.457 399.779C349.307 405.53 351.753 410.681 355.305 414.854C358.86 419.029 363.738 422.498 368.121 425.053C396.111 441.369 430.608 466.476 453.514 495.111C476.45 523.783 487.328 555.357 469.674 585.219Z" stroke="url(#paint0_linear_898_11479)" stroke-width="4.2201" shape-rendering="crispEdges"/>
</g>
<g filter="url(#filter1_dii_898_11479)">
<path d="M471.49 216.506C470.71 208.183 476.703 195.29 483.393 184.029C489.67 173.462 487.884 160.994 475.898 158.275C386.107 137.91 250.405 137.906 160.598 158.275C148.612 160.994 146.826 173.462 153.103 184.029C159.793 195.29 165.786 208.183 165.006 216.506C163.454 233.058 140.601 327.717 272.496 390.078C277.734 392.554 282.834 394.512 283.97 400.193C285.916 409.919 275.882 418.235 267.313 423.23C211.108 455.992 128.345 524.281 165.006 586.292C159.027 594.205 146.859 613.723 146.015 628.493C143.327 675.536 493.203 676.134 490.481 628.493C489.637 613.723 477.469 594.205 471.49 586.292C508.151 524.281 425.388 455.992 369.184 423.23C360.614 418.235 350.581 409.919 352.526 400.193C353.662 394.512 358.762 392.554 364 390.078C495.896 327.717 473.042 233.058 471.49 216.506Z" fill="#FBFCFE" fill-opacity="0.19" shape-rendering="crispEdges"/>
<path d="M469.674 585.219L468.954 586.436L469.807 587.564C472.727 591.429 477.194 598.18 481.027 605.772C484.883 613.409 487.977 621.668 488.374 628.614C488.503 630.875 487.617 633.127 485.484 635.426C483.324 637.756 479.968 640.031 475.44 642.198C466.391 646.528 453.174 650.189 437.05 653.131C404.844 659.009 361.587 661.927 318.263 661.89C274.939 661.852 231.678 658.86 199.467 652.963C183.34 650.011 170.118 646.355 161.063 642.048C156.532 639.893 153.173 637.635 151.011 635.326C148.876 633.048 147.995 630.828 148.122 628.614C148.519 621.668 151.613 613.409 155.469 605.772C159.302 598.18 163.77 591.429 166.689 587.564L167.542 586.436L166.822 585.218C149.168 555.357 160.046 523.783 182.982 495.111C205.889 466.476 240.385 441.369 268.375 425.053C272.759 422.498 277.637 419.029 281.191 414.853C284.743 410.681 287.189 405.529 286.039 399.779C285.342 396.295 283.398 393.965 281.014 392.228C279.073 390.815 276.726 389.722 274.53 388.699C274.147 388.521 273.769 388.345 273.398 388.17C207.914 357.209 181.102 318.38 170.721 285.479C161.698 256.885 164.995 232.604 166.558 221.096C166.8 219.316 167 217.841 167.107 216.703C167.545 212.033 166.087 206.347 163.819 200.595C161.525 194.781 158.295 188.637 154.917 182.951C151.988 178.02 151.053 172.825 152.053 168.707C153.021 164.719 155.842 161.518 161.065 160.333C250.565 140.034 385.947 140.038 475.432 160.333C480.655 161.518 483.475 164.719 484.444 168.707C485.444 172.825 484.508 178.02 481.579 182.951C478.202 188.637 474.971 194.781 472.678 200.595C470.409 206.347 468.952 212.033 469.39 216.703C469.496 217.841 469.697 219.316 469.938 221.097C471.501 232.604 474.798 256.885 465.776 285.479C455.394 318.38 428.582 357.209 363.098 388.17C362.727 388.345 362.349 388.521 361.967 388.7C359.77 389.722 357.423 390.815 355.483 392.228C353.098 393.965 351.154 396.295 350.457 399.779C349.307 405.53 351.753 410.681 355.305 414.854C358.86 419.029 363.738 422.498 368.121 425.053C396.111 441.369 430.608 466.476 453.514 495.111C476.45 523.783 487.328 555.357 469.674 585.219Z" stroke="url(#paint1_linear_898_11479)" stroke-width="4.2201" shape-rendering="crispEdges"/>
</g>
<defs>
<filter id="filter0_dii_898_11479" x="0.793762" y="0.117062" width="634.909" height="811.412" filterUnits="userSpaceOnUse" color-interpolation-filters="sRGB">
<feFlood flood-opacity="0" result="BackgroundImageFix"/>
<feColorMatrix in="SourceAlpha" type="matrix" values="0 0 0 0 0 0 0 0 0 0 0 0 0 0 0 0 0 0 127 0" result="hardAlpha"/>
<feOffset dy="2.3233"/>
<feGaussianBlur stdDeviation="72.6031"/>
<feComposite in2="hardAlpha" operator="out"/>
<feColorMatrix type="matrix" values="0 0 0 0 0.956863 0 0 0 0 0.85098 0 0 0 0 0.290196 0 0 0 0.32 0"/>
<feBlend mode="normal" in2="BackgroundImageFix" result="effect1_dropShadow_898_11479"/>
<feBlend mode="normal" in="SourceGraphic" in2="effect1_dropShadow_898_11479" result="shape"/>
<feColorMatrix in="SourceAlpha" type="matrix" values="0 0 0 0 0 0 0 0 0 0 0 0 0 0 0 0 0 0 127 0" result="hardAlpha"/>
<feOffset dy="7.38517"/>
<feGaussianBlur stdDeviation="48.0036"/>
<feComposite in2="hardAlpha" operator="arithmetic" k2="-1" k3="1"/>
<feColorMatrix type="matrix" values="0 0 0 0 0.956863 0 0 0 0 0.85098 0 0 0 0 0.286275 0 0 0 1 0"/>
<feBlend mode="normal" in2="shape" result="effect2_innerShadow_898_11479"/>
<feColorMatrix in="SourceAlpha" type="matrix" values="0 0 0 0 0 0 0 0 0 0 0 0 0 0 0 0 0 0 127 0" result="hardAlpha"/>
<feOffset dx="-42.201" dy="28.4857"/>
<feGaussianBlur stdDeviation="23.738"/>
<feComposite in2="hardAlpha" operator="arithmetic" k2="-1" k3="1"/>
<feColorMatrix type="matrix" values="0 0 0 0 0.956863 0 0 0 0 0.85098 0 0 0 0 0.286275 0 0 0 0.7 0"/>
<feBlend mode="normal" in2="effect2_innerShadow_898_11479" result="effect3_innerShadow_898_11479"/>
</filter>
<filter id="filter1_dii_898_11479" x="0.793762" y="0.117062" width="634.909" height="811.412" filterUnits="userSpaceOnUse" color-interpolation-filters="sRGB">
<feFlood flood-opacity="0" result="BackgroundImageFix"/>
<feColorMatrix in="SourceAlpha" type="matrix" values="0 0 0 0 0 0 0 0 0 0 0 0 0 0 0 0 0 0 127 0" result="hardAlpha"/>
<feOffset dy="2.3233"/>
<feGaussianBlur stdDeviation="72.6031"/>
<feComposite in2="hardAlpha" operator="out"/>
<feColorMatrix type="matrix" values="0 0 0 0 0.956863 0 0 0 0 0.85098 0 0 0 0 0.290196 0 0 0 0.32 0"/>
<feBlend mode="normal" in2="BackgroundImageFix" result="effect1_dropShadow_898_11479"/>
<feBlend mode="normal" in="SourceGraphic" in2="effect1_dropShadow_898_11479" result="shape"/>
<feColorMatrix in="SourceAlpha" type="matrix" values="0 0 0 0 0 0 0 0 0 0 0 0 0 0 0 0 0 0 127 0" result="hardAlpha"/>
<feOffset dy="7.38517"/>
<feGaussianBlur stdDeviation="48.0036"/>
<feComposite in2="hardAlpha" operator="arithmetic" k2="-1" k3="1"/>
<feColorMatrix type="matrix" values="0 0 0 0 0.956863 0 0 0 0 0.85098 0 0 0 0 0.286275 0 0 0 1 0"/>
<feBlend mode="normal" in2="shape" result="effect2_innerShadow_898_11479"/>
<feColorMatrix in="SourceAlpha" type="matrix" values="0 0 0 0 0 0 0 0 0 0 0 0 0 0 0 0 0 0 127 0" result="hardAlpha"/>
<feOffset dx="-42.201" dy="28.4857"/>
<feGaussianBlur stdDeviation="23.738"/>
<feComposite in2="hardAlpha" operator="arithmetic" k2="-1" k3="1"/>
<feColorMatrix type="matrix" values="0 0 0 0 0.956863 0 0 0 0 0.85098 0 0 0 0 0.286275 0 0 0 0.7 0"/>
<feBlend mode="normal" in2="effect2_innerShadow_898_11479" result="effect3_innerShadow_898_11479"/>
</filter>
<linearGradient id="paint0_linear_898_11479" x1="318.248" y1="143" x2="318.248" y2="664" gradientUnits="userSpaceOnUse">
<stop stop-color="#F4D949"/>
<stop offset="0.493122" stop-color="#F4D949" stop-opacity="0"/>
<stop offset="0.794577" stop-color="#F4D949" stop-opacity="0.48"/>
<stop offset="1" stop-color="#F4D949" stop-opacity="0"/>
</linearGradient>
<linearGradient id="paint1_linear_898_11479" x1="318.248" y1="143" x2="318.248" y2="664" gradientUnits="userSpaceOnUse">
<stop stop-color="#F4D949"/>
<stop offset="0.493122" stop-color="#F4D949" stop-opacity="0"/>
<stop offset="0.794577" stop-color="#F4D949" stop-opacity="0.48"/>
<stop offset="1" stop-color="#F4D949" stop-opacity="0"/>
</linearGradient>
</defs>
</svg>
